<mxfile host="app.diagrams.net" modified="2022-09-14T08:55:42.598Z" agent="5.0 (Macintosh; Intel Mac OS X 10_15_7) AppleWebKit/537.36 (KHTML, like Gecko) Chrome/105.0.0.0 Safari/537.36" etag="VGko2eBH_OvlXUnCkw8r" version="20.3.0" type="github">
  <diagram id="0A2ew7b4jF6W3iwbolxe" name="Page-1">
    <mxGraphModel dx="1018" dy="659" grid="1" gridSize="10" guides="1" tooltips="1" connect="1" arrows="1" fold="1" page="1" pageScale="1" pageWidth="850" pageHeight="1100" math="0" shadow="0">
      <root>
        <mxCell id="0" />
        <mxCell id="1" parent="0" />
        <mxCell id="p4DQenMx6oALiS08usfD-9" value="" style="edgeStyle=orthogonalEdgeStyle;rounded=0;orthogonalLoop=1;jettySize=auto;html=1;fontSize=13;" edge="1" parent="1" source="p4DQenMx6oALiS08usfD-2" target="p4DQenMx6oALiS08usfD-4">
          <mxGeometry relative="1" as="geometry" />
        </mxCell>
        <mxCell id="p4DQenMx6oALiS08usfD-11" value="" style="edgeStyle=orthogonalEdgeStyle;rounded=0;orthogonalLoop=1;jettySize=auto;html=1;fontSize=13;entryX=0;entryY=0.643;entryDx=0;entryDy=0;entryPerimeter=0;" edge="1" parent="1" source="p4DQenMx6oALiS08usfD-2" target="p4DQenMx6oALiS08usfD-5">
          <mxGeometry relative="1" as="geometry" />
        </mxCell>
        <mxCell id="p4DQenMx6oALiS08usfD-2" value="&lt;font style=&quot;font-size: 15px;&quot;&gt;Beacon Chain处理新user的deposit申请&lt;br&gt;&lt;br&gt;一笔新的deposit会产生Eth1 Block这个数据结构&lt;br&gt;&lt;/font&gt;" style="rounded=1;whiteSpace=wrap;html=1;" vertex="1" parent="1">
          <mxGeometry x="160" y="160" width="320" height="80" as="geometry" />
        </mxCell>
        <mxCell id="p4DQenMx6oALiS08usfD-8" value="" style="edgeStyle=orthogonalEdgeStyle;rounded=0;orthogonalLoop=1;jettySize=auto;html=1;fontSize=13;" edge="1" parent="1" source="p4DQenMx6oALiS08usfD-3" target="p4DQenMx6oALiS08usfD-2">
          <mxGeometry relative="1" as="geometry" />
        </mxCell>
        <mxCell id="p4DQenMx6oALiS08usfD-3" value="&lt;font style=&quot;font-size: 15px;&quot;&gt;user发送32ETH，质押到deposit contract中&lt;br&gt;&lt;/font&gt;" style="rounded=1;whiteSpace=wrap;html=1;" vertex="1" parent="1">
          <mxGeometry x="160" y="40" width="320" height="80" as="geometry" />
        </mxCell>
        <mxCell id="p4DQenMx6oALiS08usfD-10" value="" style="edgeStyle=orthogonalEdgeStyle;rounded=0;orthogonalLoop=1;jettySize=auto;html=1;fontSize=13;" edge="1" parent="1" source="p4DQenMx6oALiS08usfD-4" target="p4DQenMx6oALiS08usfD-7">
          <mxGeometry relative="1" as="geometry" />
        </mxCell>
        <mxCell id="p4DQenMx6oALiS08usfD-4" value="&lt;font style=&quot;font-size: 15px;&quot;&gt;其他validator会对这个Eth1 Block投票，如果超过50%投票通过，这个eth1 block就会被认为有效，并添加进state.eth1_data&lt;br&gt;&lt;/font&gt;" style="rounded=1;whiteSpace=wrap;html=1;" vertex="1" parent="1">
          <mxGeometry x="160" y="280" width="320" height="80" as="geometry" />
        </mxCell>
        <mxCell id="p4DQenMx6oALiS08usfD-5" value="" style="shape=image;verticalLabelPosition=bottom;labelBackgroundColor=default;verticalAlign=top;aspect=fixed;imageAspect=0;image=data:image/png,iVBORw0KGgoAAAANSUhEUgAAAvAAAAEcCAYAAAChyIAeAAAMbWlDQ1BJQ0MgUHJvZmlsZQAASImVVwdYU8kWnluSkJAQIICAlNCbIFIDSAmhBZBeBBshCSSUGBOCir0sKrh2EQEbuiqi2FZA7NiVRbH3xYKKsi7qYkPlTUhA133leyff3PvnzJn/lMzk3gMA/QNPKs1DtQHIlxTIEsKDmaPT0pmkpwCBHzoYCrx4fLmUHRcXDaAM3P8u725AWyhXnZVc/5z/r6IrEMr5ACBjIc4UyPn5EB8HAK/iS2UFABCVeqvJBVIlng2xngwGCPEqJc5W4e1KnKnCh/ttkhI4EF8GQIPK48myAdC6B/XMQn425NH6DLGrRCCWAEAfBnEAX8QTQKyMfVh+/kQlLofYHtpLIYbxAFbmd5zZf+PPHOTn8bIHsSqvftEIEculebyp/2dp/rfk5ykGfNjCQRXJIhKU+cMa3sqdGKXEVIi7JJkxscpaQ/xBLFDVHQCUIlJEJKvsURO+nAPrBwwgdhXwQqIgNoE4TJIXE63WZ2aJw7gQw92CThEXcJMgNoR4oVAemqi22SibmKD2hdZnyThstf4cT9bvV+nrgSI3ma3mfyMSctX8mFaRKCkVYgrE1oXilBiItSB2kecmRqltRhaJODEDNjJFgjJ+a4gThJLwYBU/VpglC0tQ25fkywfyxTaKxNwYNd5XIEqKUNUHO8Xn9ccPc8EuCyXs5AEeoXx09EAuAmFIqCp37LlQkpyo5vkgLQhOUK3FKdK8OLU9binMC1fqLSH2kBcmqtfiKQVwc6r48SxpQVySKk68KIcXGaeKB18GogEHhAAmUMCRCSaCHCBu7Wrogt9UM2GAB2QgGwiBs1ozsCK1f0YCr4mgCPwBkRDIB9cF988KQSHUfxnUqq7OIKt/trB/RS54CnE+iAJ58Luif5Vk0FsKeAI14n9458HBh/HmwaGc//f6Ae03DRtqotUaxYBHJn3AkhhKDCFGEMOIDrgxHoD74dHwGgSHG87CfQby+GZPeEpoIzwiXCe0E25PEM+V/RDlKNAO+cPUtcj8vha4LeT0xINxf8gOmXED3Bg44x7QDxsPhJ49oZajjltZFeYP3H/L4LtfQ21HdiWj5CHkILL9jyu1HLU8B1mUtf6+PqpYMwfrzRmc+dE/57vqC+A96kdLbCG2HzuLncDOY4exBsDEjmGNWAt2RIkHd9eT/t014C2hP55cyCP+hz+e2qeyknLXWtdO18+quQLhlALlweNMlE6VibNFBUw2fDoImVwJ32UY083VzQ0A5bNG9ff1Nr7/GYIYtHzTzfsdAP9jfX19h77pIo8BsNcbHv+D33T2LAB0NAE4d5CvkBWqdLjyQoD/EnR40oyAGbAC9jAfN+AF/EAQCAWRIBYkgTQwHlZZBPe5DEwG08EcUAxKwTKwGlSADWAz2A52gX2gARwGJ8AZcBFcBtfBXbh7OsBL0A3egV4EQUgIDWEgRog5YoM4IW4ICwlAQpFoJAFJQzKQbESCKJDpyDykFFmBVCCbkBpkL3IQOYGcR9qQ28hDpBN5g3xCMZSK6qGmqC06HGWhbDQKTULHodnoJLQInY8uQcvRanQnWo+eQC+i19F29CXagwFMEzPALDBnjIVxsFgsHcvCZNhMrAQrw6qxOqwJ/s5XsXasC/uIE3EGzsSd4Q6OwJNxPj4Jn4kvxivw7Xg9fgq/ij/Eu/GvBBrBhOBE8CVwCaMJ2YTJhGJCGWEr4QDhNDxLHYR3RCLRgGhH9IZnMY2YQ5xGXExcR9xNPE5sIz4m9pBIJCOSE8mfFEvikQpIxaS1pJ2kY6QrpA7SBw1NDXMNN40wjXQNicZcjTKNHRpHNa5oPNPoJWuTbci+5FiygDyVvJS8hdxEvkTuIPdSdCh2FH9KEiWHModSTqmjnKbco7zV1NS01PTRjNcUa87WLNfco3lO86HmR6ou1ZHKoY6lKqhLqNuox6m3qW9pNJotLYiWTiugLaHV0E7SHtA+aDG0XLS4WgKtWVqVWvVaV7Re0cl0GzqbPp5eRC+j76dfondpk7VttTnaPO2Z2pXaB7VvavfoMHRG6MTq5Oss1tmhc17nuS5J11Y3VFegO193s+5J3ccMjGHF4DD4jHmMLYzTjA49op6dHlcvR69Ub5deq163vq6+h36K/hT9Sv0j+u0GmIGtAdcgz2CpwT6DGwafhpgOYQ8RDlk0pG7IlSHvDYcaBhkKDUsMdxteN/xkxDQKNco1Wm7UYHTfGDd2NI43nmy83vi0cddQvaF+Q/lDS4buG3rHBDVxNEkwmWay2aTFpMfUzDTcVGq61vSkaZeZgVmQWY7ZKrOjZp3mDPMAc7H5KvNj5i+Y+kw2M49ZzjzF7LYwsYiwUFhssmi16LW0s0y2nGu52/K+FcWKZZVltcqq2arb2tx6lPV061rrOzZkG5aNyGaNzVmb97Z2tqm2C2wbbJ/bGdpx7Yrsau3u2dPsA+0n2VfbX3MgOrAcch3WOVx2RB09HUWOlY6XnFAnLyex0zqntmGEYT7DJMOqh910pjqznQuda50fuhi4RLvMdWlweTXcenj68OXDzw7/6urpmue6xfXuCN0RkSPmjmga8cbN0Y3vVul2zZ3mHuY+y73R/bWHk4fQY73HLU+G5yjPBZ7Nnl+8vL1kXnVend7W3hneVd43WXqsONZi1jkfgk+wzyyfwz4ffb18C3z3+f7p5+yX67fD7/lIu5HCkVtGPva39Of5b/JvD2AGZARsDGgPtAjkBVYHPgqyChIEbQ16xnZg57B3sl8FuwbLgg8Ev+f4cmZwjodgIeEhJSGtobqhyaEVoQ/CLMOyw2rDusM9w6eFH48gRERFLI+4yTXl8rk13O5I78gZkaeiqFGJURVRj6Ido2XRTaPQUZGjVo66F2MTI4lpiAWx3NiVsffj7OImxR2KJ8bHxVfGP00YkTA94WwiI3FC4o7Ed0nBSUuT7ibbJyuSm1PoKWNTalLep4akrkhtHz189IzRF9OM08Rpjemk9JT0rek9Y0LHrB7TMdZzbPHYG+Psxk0Zd3688fi88Ucm0CfwJuzPIGSkZuzI+MyL5VXzejK5mVWZ3XwOfw3/pSBIsErQKfQXrhA+y/LPWpH1PNs/e2V2pyhQVCbqEnPEFeLXORE5G3Le58bmbsvty0vN252vkZ+Rf1CiK8mVnJpoNnHKxDapk7RY2j7Jd9LqSd2yKNlWOSIfJ28s0IMv9S0Ke8VPioeFAYWVhR8mp0zeP0VnimRKy1THqYumPisKK/plGj6NP615usX0OdMfzmDP2DQTmZk5s3mW1az5szpmh8/ePocyJ3fOb3Nd566Y+9e81HlN803nz57/+Kfwn2qLtYplxTcX+C3YsBBfKF7Yush90dpFX0sEJRdKXUvLSj8v5i++8POIn8t/7luStaR1qdfS9cuIyyTLbiwPXL59hc6KohWPV45aWb+Kuapk1V+rJ6w+X+ZRtmENZY1iTXt5dHnjWuu1y9Z+rhBVXK8MrtxdZVK1qOr9OsG6K+uD1tdtMN1QuuHTRvHGW5vCN9VX21aXbSZuLtz8dEvKlrO/sH6p2Wq8tXTrl22Sbe3bE7afqvGuqdlhsmNpLVqrqO3cOXbn5V0huxrrnOs27TbYXboH7FHsebE3Y++NfVH7mvez9tf9avNr1QHGgZJ6pH5qfXeDqKG9Ma2x7WDkweYmv6YDh1wObTtscbjyiP6RpUcpR+cf7TtWdKznuPR414nsE4+bJzTfPTn65LVT8adaT0edPncm7MzJs+yzx875nzt83vf8wQusCw0XvS7Wt3i2HPjN87cDrV6t9Ze8LzVe9rnc1Day7eiVwCsnroZcPXONe+3i9ZjrbTeSb9y6OfZm+y3Bree3826/vlN4p/fu7HuEeyX3te+XPTB5UP27w++7273ajzwMedjyKPHR3cf8xy+fyJ987pj/lPa07Jn5s5rnbs8Pd4Z1Xn4x5kXHS+nL3q7iP3T+qHpl/+rXP4P+bOke3d3xWva6783it0Zvt/3l8VdzT1zPg3f573rfl3ww+rD9I+vj2U+pn571Tv5M+lz+xeFL09eor/f68vv6pDwZr/9VAIMDzcoC4M02AGhpADBg30YZo+oF+wVR9a/9CPwnrOoX+8ULgDr4/h7fBd9ubgKwZwtsvyA/HfaqcTQAknwA6u4+ONQiz3J3U3FRYZ9CeNDX9xb2bKSVAHxZ1tfXW93X92UzDBb2jsclqh5UKUTYM2yM+ZKZnwn+jaj60+9y/PEOlBF4gB/v/wLn2JDQ/9dpQgAAAIplWElmTU0AKgAAAAgABAEaAAUAAAABAAAAPgEbAAUAAAABAAAARgEoAAMAAAABAAIAAIdpAAQAAAABAAAATgAAAAAAAACQAAAAAQAAAJAAAAABAAOShgAHAAAAEgAAAHigAgAEAAAAAQAAAvCgAwAEAAAAAQAAARwAAAAAQVNDSUkAAABTY3JlZW5zaG90ipuFLAAAAAlwSFlzAAAWJQAAFiUBSVIk8AAAAdZpVFh0WE1MOmNvbS5hZG9iZS54bXAAAAAAADx4OnhtcG1ldGEgeG1sbnM6eD0iYWRvYmU6bnM6bWV0YS8iIHg6eG1wdGs9IlhNUCBDb3JlIDYuMC4wIj4KICAgPHJkZjpSREYgeG1sbnM6cmRmPSJodHRwOi8vd3d3LnczLm9yZy8xOTk5LzAyLzIyLXJkZi1zeW50YXgtbnMjIj4KICAgICAgPHJkZjpEZXNjcmlwdGlvbiByZGY6YWJvdXQ9IiIKICAgICAgICAgICAgeG1sbnM6ZXhpZj0iaHR0cDovL25zLmFkb2JlLmNvbS9leGlmLzEuMC8iPgogICAgICAgICA8ZXhpZjpQaXhlbFlEaW1lbnNpb24+Mjg0PC9leGlmOlBpeGVsWURpbWVuc2lvbj4KICAgICAgICAgPGV4aWY6UGl4ZWxYRGltZW5zaW9uPjc1MjwvZXhpZjpQaXhlbFhEaW1lbnNpb24+CiAgICAgICAgIDxleGlmOlVzZXJDb21tZW50PlNjcmVlbnNob3Q8L2V4aWY6VXNlckNvbW1lbnQ+CiAgICAgIDwvcmRmOkRlc2NyaXB0aW9uPgogICA8L3JkZjpSREY+CjwveDp4bXBtZXRhPgq10lKvAAAAHGlET1QAAAACAAAAAAAAAI4AAAAoAAAAjgAAAI4AAK/iB39yNwAAQABJREFUeAHsXQegVjWynnvpvamAHRA72Hvvu/a1gw0soIgde3muurqru/au2JWmgr13xS42BCsdpKn0fu/7vpnMOedvF1BU0ATuSTKZZJLJZDInf5JTVgknRRyBZVk4AJUAOIy5ykLEcDM5PKh+pVQil+ezIh0hSyA3XIABQKQf+e9yFOUvjr+of7LaNKMxPah+1L9x/onzr88b2RGTa3HkxnwIJVAAov0R7Q+Xo6XF/ihzA75AzWdrmEhxGijAT5MQcvF3PyR61P0Ejzny1Gykn1poOby1SAG/cnCcwe5H/isHnB3uR/kDW0wlFchTHH9x/PkbUo5usUiBvOTg+ABzPyR61P04/sCYOP4oHQXyFPVP1D9R/wTFWej5eCmrrMBI8deKgJfoVw4sJgdGZuH5RRak5QHyoppdYUUSsqBIP/I/yp9P8j7d54++9JU5SckOIgDzonH8OU+KMCYLivon6p+of6L+ocLM6gVVoJlHQVoeIC+qORVWJCELivon6p+q9E+yAm+ymBUdQrLxbNiwc5IDyPMYNp7Z350cp+TbdT6NbDwbjvSVA0VYEvlvTEmeUf4Krf44/kqsbuUPqGw8G476J+ofcKCISDjQkvCM+ifqn7wFUqyKRv1TdHU9f0Bl49lw1L+uf9WAz77lmQJicpA65Zsxj086l8cUmgsxrMxTM+JRtNNAMbPKH+nncVmZrA+dLyL/o/zljjaTDRtt2XAcfwkHyBaOnqh/EpZkA1H/pqt8cf7RwQLxiPO/jhFVqfqI829QGnH+MUakUpHLkcCm1NMhhcdvMf9AeXM7DQrPVEcJEpbWYWGhnCw5kcKcBckERPpkQtoVZFvkP7mwSC5HpnIihdkLkqP8xfEX9Q8GStQ/iSqg2oj6t1B5loDk6NScSGGGguSE6VH+ElaQbVH+CoWnBCRHpnIihRkKkhOmL3vyV4Yt8PyRL+O0NSGeaWoAZ1OJZPESiV4qkisxQaZn4b0U34rviGmJBiEeHWpYgoSBSyRaZs0b6Uf+R/nzkR7GCwZVVipsuHgaYwzTxfEX9U+OGKhU8GHSEmQmKzoJhiFF/Zsdac6oOP6yXDGRcd4wxjBd1D9R/+SIgUoFHyYtQWayopNgGNKfVf9gC00Fmp158/A5PsOAUnzJoFQZzMnPCF1Cx1L1mYNoaHyWAKcICwnl5GeELtI3PmSHQA6jQjK8EuAUYSGhnPyR/8atKH9Bakw69JkjKKlQlQCnCAsJ5eRnhC7y3/gQx78Kg8pIjqAE9sArAU4RFhLKyc8IXZQ/40OUPxUGlZEcQQnsgVcCnCIsJJSTnxG6KH/Gh2Vc/tJDrDm9HNrmnh+6AE6xMzmOVsxPiy222pDJkSJmgCEY6WPAYcRF/kf5gxgkurdwpBRA0mEVx1/hal+GXSmjMsAQjPon6p+of+P8E+ffOP8uZfNvkS002UmL4eLmQlXznb7UhGKKZw+5qxoQOmlG+pH/Uf58KGX9OP5KjQxwicxxV1R8ov5R7kX9W9ogifNPGGBFB1BYt/RBlufH8ZcypCj7ov6J+geCsQT0b7KFRiUuyFUqfTYXpjKYCp4a5kXwLa8leLL7Sbk5gEwkE3TcXFCIOdB9R058S/Bk9/OSQzSTmgk6bi4oxBzoviMnviV4svt5ySGaSc0EHTcXFGIOdN+RE98SPNn9vOQQzaRmgo6bCwoxB7rvyIlvCZ7sfl5yiGZSM0HHzQWFmAPdd+TEtwRPdj8vOUQzqZmg4+aCQsyB7jty4luCJ7uflxyimdRM0HFzQSHmQPcdOfEtwZPdz0sO0UxqJui4uaAQc6D7jpz4luDJ7uclh2gmNRN03FxQiDnQfUdOfEvwZPfzkkM0k5oJOm4uKMQc6L4jJ74leLL7eckhmknNBB03FxRiDnTfkRPfEjzZ/bzkEM2kZoKOmwsKMQe678iJbwme7H5ecohmUjNBx80FhZgD3XfkxLcET3Y/LzlEM6mZoOPmgkLMge47cuJbgie7n5ccopnUTNBxc0Eh5kD3HTnxLcGT3c9LDtFMaibouLmgEHOg+46c+Jbgye7nJYdoJjUTdNxcUIg50H1HTnxL8GT385JDNJOaCTpuLijEHOi+Iye+JXiy+3nJIZpJzQQdNxcUYg5035ET3xI82f285BDNpGaCjpsLCjEHuu/IiW8Jnux+XnKIZlIzQcfNBYWYA9135MS3BE92Py85RDOpmaDj5oJCzIHuO3LiW4Inu5+XHKKZ1EzQcXNBIeZA+OkKfAZYfNXci3Sj3jOkcA8VpuRD0ngS8oD7XlgR31BKIxam5EPSeBLygPtF6DrIUEojFqbkQ9J4EvKA+06siG8opRELU/IhaTwJecD9InQdZCilEQtT8iFpPAl5wH0nVsQ3lNKIhSn5kDSehDzgfhG6DjKU0oiFKfmQNJ6EPOC+EyviG0ppxMKUfEgaT0IecL8IXQcZSmnEwpR8SBpPQh5w34kV8Q2lNGJhSj4kjSchD7hfhK6DDKU0YmFKPiSNJyEPuO/EiviGUhqxMCUfksaTkAfcL0LXQYZSGrEwJR+SxpOQB9x3YkV8QymNWJiSD0njScgD7heh6yBDKY1YmJIPSeNJyAPuO7EivqGURixMyYek8STkAfeL0HWQoZRGLEzJh6TxJOQB951YEd9QSiMWpuRD0ngS8oD7Reg6yFBKIxam5EPSeBLygPtOrIhvKKURC1PyIWk8CXnA/SJ0HWQopRELU/IhaTwJecB9J1bEN5TSiIUp+ZA0noQ84H4Rug4ylNKIhSn5kDSehDzgvhMr4huKPdM98Amil0CfjuvvCPvmd082aMbW9wT3mbfQJakaSGIZRIfRp4v0I/8hC1H+kqHgg85Hio0Tj7lv0PxnkqqBJJZBcxh9ujj+4viDLMTxlwyFOP5MM7imyI3lQi0tfSapGkhiKUKyOYdpdFH/RP0DWYj6JxkKOfoHl9DgbFexgWTDx5/FMRzqvmObzyvm6SoqKmQewxXoB4LwqMShIL3XHpfglJUjXlnOhFDJMGh98FqK1xsxOuKgwAQHcZapLxvW37xgh5+hJayCvlYHeJF+5D/lQUUoyl8cf1H/RP0b5584/0b7w8wpTow0ltxPYwAGp5Mnwo4DP9haaoIhGu2v397+1BV47yrtmSSSBLzHSvqOSeOcRpH66MW58ytlQcUCGM4wofUeeBMEFuTdzrDnZ5gRLSMDTXC9cEX0MkLZyMcb7ctAh/TLWY9AJdKP/I/y56PBBk8ypmzI6UjRlDj+ov5R3QlBCFKRyErUv5xkbAAF7nBUqW4BOM4/cf6N9ke0v35P+7NgC42p7VR5U1vlwNQ6p0ov7RYsqIDxviBY2GlZGsLDfw1JJgYvChMEV+3xRF6siIQMqhix2g71oOma5i8ExKFDYVxh1yyIKlgJOCQpLtInr4xlxifyjy7yP8pfHH/UMhgLUf+YMuWETM0b9W+cf+L8q7sKqBui/aE2BM1BddH++kPszzwDPjV2TXmzazKwvJjb8ooR0ObDeJ9H4z1xNBXDVpekk0OAOMwXHCdOWycEIJTnMJbCbTeKgTQuBmFnTlgtg2plZcKvoF6e+cwZ6YNT9h9sUh7zbYcueAw6rxmO/FeGJDyJ8hfHX9Q/Uf/G+QezB+aMOP9G+yPaXzYOaE/9YfYn3igzJlxit2VtOA0XPpiNCp1Pc4XGu8Ft/YbN1KZqHubD1nddDdcCCIDT8tRasjRTFsipCaY8DE8Biq92e8ijheQ9In2un0X+R/mL44+6gJqDf1H/RP3LX4Pj/BMGRPBonHOA6C/l8HmOLM6/lJNof6TrftSgpkuj/RX0KFlSxP2W9meyAm/dUYQ6RnI67XNkwyXISUC3HsyeOx+JxPGl8aAJ1AthlqYKgXl9yZyCYFRYuGMCAY4p5YClq+g4kRpW3vGzrpaVzcFwpG8MCnxRz3kU+R/ljxNyHH9R/0T965NZnH/i/EtDK9of0f5yS4nW51Jvf1byqLAKrlUX1nKIJoGQUOhlMebOmy/zYRTwwKgqxUyimueE42RpZbCtFUdRA6JzLXntB1zLSmtHzKzLkAAYKhjGfKQf+R/lj2MHQ4KioB7GRhx/Uf9E/Rvnnzj/6tqWKshof4ANYaKI9pfNmcua/ZluocnM+Jj0sysS/m6u1kD2EbJQBmbPnRfeX40PwXYAzLZvcK2Ha+jl+A2G5dnBKBbgLkufJj8PTVmuHMPcBQ3Z+HOO2fgG9KTckiJ9bp+J/I/yF8df1D9R/8b5J86/0f6I9hct02Xf/tQtNDTAsXiN5mRM9YwVbMHMM5PGXPPn4+AqDq8qP2hFgzUWAWJY+eObnkOJkXUqTErfbjrQuoSVApJiznIz//Wp+7B0AytLIQ141gAjnVCK9CP/IVh6p2iUvzj+TFVQa2Rd1D+YzKL+xTQS5x+aNXH+hZ6I9kdiUkX7a+m1P5M98NkJTcNqFGehWUAw9QNozvz5uBGGxjLt53Tt3H+dsWkTa8C0vHVgWP5s6bS5dUVdgVAiyMyV93TKDcQ03fKrDc+lZXeRfuR/lD81Qzgs4vgDE6hCqJj4G1TUP1H/xvkHhlmcf205h7ohuGh/RPsL0wRnCk4ay4r9mTHgWXX7UUHnPMQMkg0grC5JUaTZ8+apD92oTvPrgDBFQTucaW6gW/mKgHx852d5NNjLYXTYdg8u3BNargGEGEdBylimMMxcoWDGIn0wBI584cN4Bc4gHPlPfphMKX+MQRQqhChpUf7i+Iv6J+rfOP/oyz+UJLVinH/JCNobnCowV3BhkZyJ9gdZEu2vP9j+VAOeA5WdoSNWA4zAqeAaoCQO0GbNoQFvhqIKt0q7CbkVyrJQTpm2lhH8IU4UaAs7Rss4AUhyt4j0FT3SV0M98t9li7JEYWKcHsJR/sAI5wl8siiOv6h/KAeqjzWgw0UfUf+CMRwvpkU0RHViIIUnjzj/xPlHVWoQkGTsMA4X5x+Mm2j/mfJwGUHsV86/asCbgKHQoKw0Hh6BlJvc2aQkPBMGfKLmWAaVGXIE0dU6qzyHwohraXzq+z4ACCNvmmYhzcIiLTmsolqaU1EcrU1AivQj/6P8xfHnGsr1R1AUpj2YSEDUP8qHqH/j/BPn32h/BK2oRluYQ9WkC6aV/Yod7S/qzKXB/kwNeM5n7sJE51Gd59hnBc4QZ8/h/e8Wtg8GBcR0pnR5MB8vYpXYwF5eiZ+sNR/wE1wEOJnovBqAiIb3AiOjxTMNBVHp8O020lcmRv5ndje6WFBePBzEJspfHH9R/0T9G+cfztsZ/UhFGeffaH9E+wvjIBgNS7H9mWvAo6KsM6utzpe9PZ7vc+wDeRYMeCpCrrrrW0loN21qf3vTpXPA9cYHJYIciPONjk7zgV6WPiqHeFghMzSlp+UizuqRPh+RfuR/lL84/qL+wSiI+heTAycIzAw653CKYCTOP3H+DQt+kIdof9iwMAsKeiPaX8uc/WkGfGIIsyvN5YIysUzQcXUPPCI+bxBuYZ1OVZd63DRrSPeyOJKSayGtVE/SmP5uAxwW4tuorEBDDs8syMKRvr3apP0R+U/JivKn48MHWRx/Uf9E/euqUfWDDw1TFoiptYdYnH9MeWYnW2WSzzEWifMvxSnaH9H+4NKyj4100Cyp+Td3BT4MRNNkJJFxXosMSIOAz547V4XV47qtBZqOAkznWd1XGJJ89Z1xbVDiu+gzxZzZ8IbluJoCxVqGwxFOy4hx4KQwp+s+86k+JiA4L9P8SN9Uj3PH+sqv9XReaWrkf5S/OP6i/gm6PupfaEVu64zzTzImfN51n/NGnH+j/RPtP7Wg9OE21eLanzDgK/DLCY1gKyw7yLx4h7lPuIfpz56LPfC6n8VzmG9GoC9ZUK/hbYS0Qn7DMph+a4dwKr9QllXJroe0vCjDMmXoh7pH+oEzqRf5z/f/KH8+auL4i/on6t84/8T51+wXmymj/UGdEO0vk4llzf7MrMAHk1w9N88p4ll4Jm7Sr8/ZuIXGVsA9H3041xTqW4QpuqsdAb6Fl4dNihhGlkG9EGaWAOcNRLYCbF/LY9lus1vJ9kyJWnFerBJDhCVH+sa7yP8of3H8mSKJ+ifqX5074vwDNsT5V2WBJkW0P9SQivbX0ml/Zgx4CmvqwhDOAdDgU5kGlMazr9rPxCHWcv6MTgQ6ZuYrnV7wzqnRVj00jQ8oCN4cQzQr0UIaYxFISzfAEKpZpAJlai6g60qSkrPyI/3I/yh/cfypsoj6J+rfOP/E+TfaH2o4Rfvrz2t/JgZ8gZmdtdB1Vsx9ZPH9EGuKQZHhFWWZ7QtMpOGtihVyxe00asKb0ZGUF2wQGv9leEPQVXfUheDUzGcY1+Dp6n0u3OoQ6Uf+R/mL4y/qH1sgCc+of+P8E+dfPYgc7Y9of/0Z7M8yboFX69gsX33SUHY7mlcL0ZCmy8IVEB404JmWXPhIdMydvAGS7wEszQx0ht0FWCjU1tYVOaWDclA/NdS5uK+r7khl8ZpNYVYe45G+8UUZFPkf5S+Ov6h/VKVG/Rvnn/xpPs6/KhNqSNBCMX7QmgggNYKi/RHtLy4UL632Z7ICn5rBNI/dJaIMQDYc0gPIV+BtEHDVyz4QwrdcqQCUhgSzgAs6TGjVcyUAnhrj+oKAiFr7xPHBxFzAUCQLM40ZGdMHo8FZvkg/8j/Kn05OcfxF/RP1b5x/4vwb7IVgWUT7I9pffxL7Uw347Cq7WcW0iINlrHazGc9qNKcpwX6u1A85ET/cF6NvK0w0UxtPNcwJQJj/EUzW0Znsq+yag0vHgT4NfuTlVzPxQB74pM90guCXM10zRPqR/3x5s7dlyoeJCZ5R/mzAxPGnQhH1D9VnUKIcHlH/2q+8ypM4/ygb+Ijzb7Q/ov21VNuftgJPu5izGgZtEkTMBjIDVbvZOMTKQ6d0nBYSC973tIS5gkl0hsl1YoapKABRI530zWjXkrROQAIKD70SW+vn+XQmpuHOHTuRPtigvIj8N1lJ9lSFKPlDF+XP+BDHX9Q/Uf9COcT5J86/0f7AOIj217Jmf5bZLfA2odvTTWTG3NShkkM09Qw1YMyeM7cgUW0mfdD4hoGNAVKuAkJUK4yr6+FSSMBYOODBKDcCxKNLCfNQq626W4qVZE+vY8iR2LGRfuR/lL84/qL+sQWaqH9tvojzT5x/o/1hC6DR/lo27U/oMPx+CgNZVVqwg800Tp8lwAkC98AHWz2BeYBw29hgELXPic2AZrLS9UkQYAwzkbWiwa4LJIQyzRIDBuJaRihKobkPJkf6xh9yJvKf8gWpiPIXBg0HVDr+4/iL+ifqX9WUcf6J82+0P6L9tVTbn7aFhvrK5nGGCp2ujNN6xn/aPnkYdog1GEVejs0CoVjmwCYXCAPtpnzHVDXMfctNBsHSkClYFil9TcnFNOs0GCaWZNWJ9CP/o/zF8Rf1T9S/mSkjBOP8E+ffaH9gMET7S23crIZY2u3PIltoQvXVaGeYTSh0Zhgb3G+hSbCCka4/zmDG0H1FeHqeSjW0US4AZpArm5SUTzA8WGukjX7AAAlbmfdV9RSeUE86IdIHdyL/o/yFMRPHn6mUqH+C4o36N84/nCJ0orX5Ns6/ZkdE+8PkwTRm0JvKmmh/8ffqpcb+9C002jfoMx3LJsNFQAHB8YKfb8DrRxJgmTOZL3Xe2EQMaLXr2x4w3JgnNS+XYaoVpNkGHwXgwVcB3Ebjxn0OvuMgJ43WSD/yHyIR5S+Ov6h/TPPaE0oz6t84/8T5F+Mg2h/R/gr6kOZjjj25bNif6Qq8V9791B4uCBlKipgY8GE5XFfck1f5As7kcMpX54tYm2FdwNcHSM9cQl+35PBFIaRF+iqEkf82+FRaVDRMYlx+siM1yh/HF/hDFuW+7cTxB5aYfNBXQUpESnkW9Q/m/6h/E9mI84/qkTj/xPlHvwFEbalqkw8ODndpPM6/v3b+1eVsZyx9Z65yHnHXSvBD0PvCMWfNnYdsHjPfquVlePmm7PUOfV0WC3m8XKVGdZgBMMyXAXyQxMDwcaONghQ/pEf6aV+BUZH/GcPCxQ9coXRF+cNwjePP9AqVCv6r2tMRFPVP1L8ZgVD5iPNPnH9dT8CP9ke0v6gSdL6gXCDyR9mfuITGrGGdxRJLpyCAKhbBMOgsv0aSK1KcCfkf7eIFN2UBVqGrVSyWCZgkGUeQe2TKMCAq8aEmzUgYM+uM6n4aQ0Jwmhlhx4EfaEX6xsLI/yh/cfyZTor6B3yguo76F8oxzj9x/o32R7S/oA6XcftTb6ExM5zKHS6JJAGDV/GciRV4ewnhoKAxjpdU2NMwn7RA/ZkVcDe1WVQ2nEMJEQoWSglYGVxNINxcKB32PsoGmPveI/3I/yh/cfxF/RP1r884cf7Bslqcf3Nsjmh/UD+YSy0txBGJ9hfZkHIlkZWl0P5Mr5HM6cy08gRbLMBoHbEhGad74AFSIxrwtMGIEF8hoRxEucBOnAQPYXUolzt6dBW/DCvympUGKQxz/GDBpx1gRZorJOLQsUyWbUH1CYv0nSMJOyP/KStZOUFYXZS/OP6i/qGWxQCJ+jfOP9CKmFTj/Bvtj2h/LZ32Z54Bnxp7iSWcBtTGyWCobUxbfuac+RjnSAm7YMwa8idNpXAPBA0noOnKCAN0wWOQE4etmgQ48QOMpfBnP8VAHtKtQLH0mSfSB1Mi/3PkiTJFCYryF8efygFEIeof05fKCA6PqH/JBXU+12iEfKG8xPnH5lewI86/0f6I9heszaXJ/sSKdkaFmz6nyUMXdJhFCp6WyuccfIk12bZegEclyPc3mtlqamu5zIet75aPBAkIHo1yxnWlHj738WotwbnU7mcGlhjs1kwZAOW4SD/yP8pfHH9R/0T9y7mAc4bOG3jovJWZOwiP848xKM6/kAUIRLQ/ov21tNqfyQq8Kq4cs9cjtipuao+aDi5BtsAsrMAbkInE8aXxoBnVC2FktgHBvL5kzNJtcmE5jsnSGMe9IYClq4g8EW8r7/hZQ437bA6GI31jUOCLes6jyP8of1TIcfxF/RP1r09mcf6J8y9f7qL9Ee0vt5RofS719mfOh5ysvmaDw2wOAUKLOsewe+ChAmFM88CQKkVPREzNc8JxsozX1+kKB8tX1IDoXEte+wHXstJaEDPrQs4AivQj/6P8/ZXG39Rp0+SroV/p+G/Xbj2pVadO1D9R/0IeOHfA45yiHuaG32D++fTzz2Xu7Dmy8sorScuWLeL8F+f/qH+i/oHG+X30j6q4dAtNRuNpFdI3cg9RGea4kMVX4BMbHEhBd8K37Rtc6+Eaejl+k2J5djCGBbjL0qfJz0MDlivHMHUiyMaft8zGN6An5Za0ePQr582Tinnzc+mzFTjUVa1ObWtYqPZvQd+48ce1P9InB5Ye/s+fMwNnPewAjSqGIORl1apLjRq1l7j8L0v9f+UV/5He/fpJvXr15LlnnpRGDRtSdeof2US3rOkfr/Ufpf8ifZOaReF/p07HyqBPP5U1264pfXo/KNXK8ZVwZP8180/k/6LzP86/S97+ifK3bMmfbqHhr+lcFTfTOkx9GS1kwcwzk8Zcs2bjQ05WAGdMOD6IhL+w8sFN7A4lRtapMY9EU5o0lhH2XTBAZM5yM//1yYFrG+hZCmnAW0L0x/d7REbceH1yhz15YvQrpd19D0id1m30xeG3ok+D449s/5KgP3/uHJn544TQN+hMNkg7CV4IEeKuvHpNqb8cVrD0pW3JtP/de66UD3vdCLJlctQD70rDFisvEfmbNf1nW2XBAY5adRumop4nfxXz58r0SeOUfn77q9WsJfWaLB/4AhTU0bKboZ7t/6cuOUa+H/gC5D+8+IJpXGWvAaO164ChiC1Z+V8S/Z8yhXUrk8fPP1xGffS61KhTX47tO0iq16rjXa9+Ve3n0C42/r/9/ls58KBDNfXkk7rJcccdq6zQTk562ujbnba5+mferOky6fsh+PsS/C+Xhs1XkiarrSGNWqy6zI+/fP4Xa3+2A34J/13/TRs/Svp231tlecN/HCebdOiOon28l+b/kqL/R8r/e++9L126nqhVuPTSS2S/ffaxpv9F2k/V80fyP9KP/P+ry1+yBz6rUDXMwZm1snS0OCCY+gFHv8QaZCm7dmkb/0MCV9NpeathbvmVjj9QtL5RaxxmBDJz5V07SGHZCll+PQTLRXp3QPm19MdhRW/4DTeAPo498io10xLqt7vnPqm3xhoaVqMC9PT7U0uQPlvJVvxR7V8S9EcOelueOOcwvrOxKXAhwHCR/m+53mZy4HX9S/b/uC/el5/HfI9SymTtXQ6U8urVNFxV/7/b8wr5qPctSr/DHS9Js9XXQRj1KEKfNWQ9S8kftpnJiPdflg8evlHGD/kYyCZ/XR79Umph1TdxKN7l70cYh7267qbllmr/CmttIOvvdbisvevBUl6jRlH6T6sB/7yWy/YrOwP9U54fvUzIX/+zDpIxn76rvOjy2FCphZcPM6cTzmlaKf4bViJMiFZKt+6nysC3BkrdBnXlxeef1VV4gBP+68hNsjBg+ufHYV/LS1efIhO++SJDHEEyFmgrb7iNbHvCP2X5Vmv/IfqHNWVlqhr/fPn45o2nVV6atl5bmkOO1CGzy1+p9v8S+U8KVyYxlurfn8ePlAeO3lpR2u/bWXY46VKQsN9Oc8e/8X9J0/+j9W+n44+Xjz8eJE2bNpWnnxgg9erW+Uu1/4/mf6Rvo1Off8D4j/z/Y/mfMeA5dVD921zGaiXhJEAoXQaA4Ky5c5HTjpkyVY0MNYhM0dMOh92UGCiaTiydsZmT5QEXBjMP1+nkg2RCy7GCp5YgPRSkExtTGGauUPCSoj9v6lSpmDIFtIz++F59ZPyAx5Te+vfeJ/XbtGFNfzP6f3T7lwT9MYPekgEw4LPGBM4dl+z/luttKgdd+1jJ/n/2si7y7ZtPa5+c0H+o1Khbb6H8H3j3FTKo9806mR5+58vSZPW1StIvJX8LFsyXYW88Ix88eK1MHvmN0teXhtD/NOBr1uMqvJnWFEU6yuWkYUOkT9ddk8m8qvY3W62tHHT941hVxxaQPPmfNWmCzJ01Qwul/L9w6fEyEavGlP+TX4ABv4TlP5/+khh/A846WEZ99o7y/3j8alCrbn3j0i8c/19987UcfEhH5fMxnTvLKad0Q3jh+mfY28/L05ccq/mUoYE+R7rKqt59Xim79bhG1t7jEPby765/FoX/lK1eJ+ym/Nz40JNkq2PPXaT2a3ODfGbbX0r+F6X9U8aMlPs7baWlttuvs2x/0mXGXx3vy57+XxT+Z/X/q6++Iaeefrry/8KLLpADD/jHX6r9y4L+gapcZuyPxZW/yH+qnsL5l4PQbEXMDH/i/lcDnooabTSLVQOMwHEJha1nEH9FcQDXQ6yweImqyo2YSV7mhKNFXKbWBiP4U2T9Xgi+ZouY5yFycEkZSY5MwJEc97ehP6rnXTLmvvu0xhvcc6/UbYMVeFS1wP1J278o/a+8yLR/NFbgB5yN7Q0QiIYtV5FNDzu5ZP/zba1B81VklY22A44KQsra0P/PXX4CVhyfUrZ3gQFfsx4NwDyXoc8OGnjXv+TjvrcCqVI63PGyNFttbYAXT/76dt9TJnz9mRIKEqvyp6IM6PGPYQW+fliBz6M/6bsvpfeJuyv9hi1Xla06nav02aTZU3+USd8NkS+f7aULw4S13WFf+dv59ouBEuQjtF+DeFDsHjllXxk39GMNd4cBn7g8+mle1hxOK7147U/L0GYrTR+6VmjmWQX9/jDgx3zCFfgK6TLgK6nJFzCWhqrRZl7c8f/vq66SXr37KvFH+vaWtm0xJqugT8QR778mT154uNEF4VZb7i7r7XmELL9WO1mABYgfh38tg595SIa987zsAgN+nd0PQZmsoA12clFDSYClZtxC6C9J/k8aPlR64+WQbpPDYMAfc95C278k6RsjrO3zZs8E3x7WTlyu9Tqy8sbbIoF967wjw+D+QPn7LenPhezsuPOuMmP6LFlrzbbSty948Rdqv/KWj99R/rPyF+kHDkT+/yntz4XNP+kKfKJwkyGhAZ+v3M9NtdhM3AOfTHNqxdMcN1NeMVyfh0KIa2qdT11vTxR+mmYhzeL54dsqkqU5lVCslbqE6Y+8604Zez8MeNg+G9x3r9SDAW8//9tbH1v5W9L/o9v/S+iP/vhtefycQ5Uvrbf5u+x5yZ02nwdGWe9RMghYeP8//y8Y8K/BgAdqV12Bb6B5q+r/d3r+Sz7qA4MYrgNW4JuuZivwFNRFpX9vx01lGvaxU6TabLu3bNqxuzx53hEy4+fJKt9d+w/BqnmDov0/GavkXCWlW2HtDeTgG2zLQ5b+eBji/WCQq8P46/rE11KzDreX0Fkt8/n/KPDHDhmk9E9+YQxwl37563/2wTL6E1uB7/K4rcBbGxet/3VIA5X+zBkzZattdgB/KmUtHB6kwcRSyC2Vp2LjHxi9T9pTJn39udqR7fbsKNuffIWUV6uGPLnyN+rD16V242ay/BrttDwtG4W7evy99U8x+hOHfQUDfhe0uUw2PqybbAkDvsr2e/0Do4jLoD1z25+mWagY/aj/jDeuf678Dw5T9+6n/Hzg/nukfbsN0B82LpXNQFf5ifzXgZrKGBkS5U/HYVAwKW8sFMef6f2lSf8uTfovNeBV04RHUDQJKD+elzA7uQfebnyh6KlLpdFmWC8HxnAl9iKUYwNVouYSXATYWzquAxDRMC+rrKeFoyAkJFfnQW3aB3sMo7JigcwZO05mjRghs0YOB7BMaq+4otRru5bUXKnFItEfddcdMgZbZ0i/3b1hBV6LZ91K0587cYLM+PprmTtxosz7+WepudzyUmf11aTOaqtL9fow+hah/ZVz58vUzz6ROePGyzxspSivXVtqYK8ly6i35lpojjGmVPs5q0//cojMHjVK5kwcr6tkNZs1k1rNW0i99utLdd5iEqZy4loQgV/Jf99CwzJbbw0D/v/uJOutfPpgW1Xtnz5xLLaNTAOSZXr12nPkhy8/0OjB1z+Jw5C2gquHXtExteo1kvrNmqPgtP8HYg/8x31hwINFugLfai2ZOXmCjBvykfwIA6jRKqtLizU3xi8EqyKfZrX6saKh/fd22ExW2Xg72fjgE/EC0Fbp9zx4Q5n18yTN0OWxwVKzQcOi8scDkr1PhAEP+tzrfshNT1v5ee3vfdLfZOI3nyt/2Lbma2+c0Pf2swyX/0dO3ld+gOHPDN1fGKkJVfW/9SmLXCA/jx4mP474SqaMGYG9+41lOZwLaLp6Wz1cmvRPpv3F6FfMh0z+MEp+GvWdllVWrVwaN19VlluzvTSCnx1/XqauwH/6DrmMFXj8goLDrPn9/9Pob6VyAQQDmeo2Xg5GdBNU2vo/2/4333hLup9ymuKdeOLxckLXLkX5T1pOf+QHr8kTFxyhoDoou/PDH0pZjWqLNP610zL8r1wAPo4BH7Fi//PYYVKnUVP8urMWzlisCT42KNp+Ep4xebzMmT5FyK8mK2ERAL9GTMX2k7FfvCczf5ooTSGfLdfZVGo3bFrQ//yFYOq44Qk7Jn0/WF648hSwpULW+3tH2fCALqBgCwrO/8Yrt8ZZkepafdJ3XhAw+fuv5Mcx38hM6CiOs8YrtcIB3rbSeMVWOGBcFyhocBX6d/pEvDhyDONRhquBvWLst/JatZVULk2jT9nhWRaO/zrNlsf5haagP13GDx0k47/+ROo0bCbNWq8nzSFLVdHXskGFNzT9iK1tkzGeqTOarrKGbpVrsgouGuDbfhCfnLqE8Tdn5lSZOWk8uFEp9aA7ajVopL/EjPzoDfkZsr1g/hz9ZZBnIuo1WSEZf0APLhSEgTnw7YFy4kmngFyZHHf8MdK9Gw620lVB3+V/8o+TZQq2bTpu7dp1pGVz6LIq+J8WDkaC/qKMfy9fffbdIsw/3q9ss+ufYu2P9L2j0/lnUfv/t5h/WZtIHxzwbiEzPEz/TyT/uQY8BirnTLZRHRU5R24pR2WGZF4jSUHkqgOVmM+7HOw68BWPESr9oHBgfCotpmkxyAd6WfqoHOKqyQzJEFGIFqXzDMtkLJ/+tC+/lO8uvUzmjB4V8HLpN9luW1m9x5lSq9lyWrbWuwj9kT17YgvNvYrTnlto9Of60vR/GviOjLzzdpn17XdWT20zq5jSX/mIo2Rl3pqBw5gE0+XTn/zqqzISh2nnTKKxGJAMUaM1mzSRNa/8j9Rfb13Nnd/+6Xh5GHHNtTL9C6w6MnuGvipcxFfv0UNa7Lc/Sy2gr7BfyP9Rn7wl/c/GHnjQbb0tDPiLacAjsoj9/9JVp8pXLz2KLIvW/+33PUa2636pSoHL38C7YMCHQ6yH3fqCfNzvZvn61QHgRa787dj9Cmm3z1FF2z9nyo9Sq1EzsCLlf89DYcD/NIlNwRaaIVITL2NsWD7/J2KLTJ9wiHWFNWnAP1W0/b2O2wmG8NcooVwO+N+j0qLd5lp2Kf4/choM+C9tC81JOMRqyIX0tcpkOSo6dfwYef6KE9Twz29/zdr1ZLezr5c2+KVkYeNv/FefyItXnQID53sla3KlNdX2t9p6d9np5Cul3nIwQMiyQP+xHthC89lArevx/b/Cfe3gGeTBx/97910tHz50g9Kv3WQ5Ofi6AdJoxdWL9v/1N9wod+MwOfl/0403yLbb8gBl1e1//LzDZeRHryn9zY/sIZsffkYOfRSAElCGypuiEVRAfxr5eOWJCf+z7a+Ol8rdz77W+MjKZdpPvL6ncDvWp1K9dgM5+l6Oj0NwrgL9roWQZjnS6sk+V9wvK66/eQ79n/Fy8+AxOygMiMZXeqTBOOseCLr8d374I6nftHmO/v2oz03y2eP3y4yJP7Bxgf8sxOiz/XtcdJu03X5vgyFeTP/etFu40SmP/kYHHCfbnXCJlpvfftIb+eFruJHoSATLZMdTr5AFFfPlzZsuzKFPmVjvbx1kh+6XY4GhZlH6LPvrlx+TF/59StH2r7LZDrJrj+ukXuPlc9pPXrn8fz/wWXn60uOU/zufcTVeGjbWczszp9jYVp6E9v/twltljcCTYvz/6cefZIddeCahUtq3by8PPHCP9hHrubD574wzesgrr7yKYu3811bbbCW33Yzbs+AWVf+RCex/Pr3/SZt/C6NPtUy3KPIfEK1cRNBcZtRHpB/5H+Xv9x9/0BHUUj4QORjN5YIysUzQce1DTjaWmUzHcR2akxTPuI5+T/eyqLXtdCBSzHmSxqhldLZHDG9PWkxalGUIYOYb2+thGXXLLTn0q9etK/NnzkIqMayI9W69Xeqvv56VXYL+KGyhGXP/vYrDFfh6rdeokj633HDPfLb91ZdfQeZjtSvb/kYbbSRr/edqKefd8nnt//ndd2XIWT20DKssrixsuZIsmD1L5k/+KaG/1r+vkiZb2w0Q3ia2bu6ECfLpkUfIArTXp/ZaqAPpz+VKPBzr17JDR1m1W7cC+kxnOcRRt5j8Hx0OsbKE1tv8TVfgnR9WspWdTAB57X/thvPk86ceSOhXgj4nfRWBIv3fPnN4znpX5B3eQtPnVlS/UpZv204mYZXb+G8FaH1CIw+67klpsd5GXjVtcqn29zwIBjwmeVbueN5C43vgkcvaqNn1isLeJ+xu9LECf9iNOISbwSDul8/3lZf/B2MytL8LXwiwJYeuFP1kBR4FdKcBn3FZ+hYu02sSHzn9H7IAK53e/jowbGbjV4Qs/7c67hzZ5NDuSWn59D/ue5u8jXMFyTECEKhRu77wRhR3pHng9U9Ii3U2Di1Vs0AexR74cViBJ/0uA3Dwt24DS8fm97fvulwG9btDx3/DFqvKP67qi5XPlUu2v2PHo2QwXs7pXnnpBWnWDCvWwRVrP+X/rkM2tPaC6uE9X5UmWKlVXG9knvyxOE/SoiF/k74bKo+c8Q+ZPwPtZWb81Wm0XPg1RrEUvOUx52JfencrH08ff31P+nu4+aYC8tje5NGJZOjzqs1j+nwMY76ulsGSp04cLfcfvmVJ+TfqufLXuddHWFlukdBnlfudup/8MORDhFgvtBH06y/fEqvXMOgz+m/jQ7vhYOz5CX0MPpNRZsLwuWmPlXOJAUy3AcbhdjjESqflK510ehmOX0KevMDOIayAMTkBW5oMEdgZ+sy/1fEXyCb45Utdhj5/pXnpv6fLVy8/ap1kGPor0nyVcQPw14CDMeZ4PWjC5lArYgx7+zkcaD5O6W993IXyxTP3y9SxI0Npuf2/1fHnoS4nWV2L6B9m2muf/WTMaG5pg+55+w3cRlMX4bT/nR9eaY0D+fQeZ8krL7+WtH/rrbeSW2HAe51Zdj7/tRlWoCb7Iwtyei5/Hs+nX4r/kb51t/I2I3+LYn8wj/M78j8d//nzX3b+yR//Uf4WTf7MgHcNkPg57DNoEZAmAD4bP/Fa5wCieFRc/mNuqgyzRagxRkBwrnzMd9Xnqa7DfFi4GkI6CiqDVeH0Z3zzrXx+TCfQtzWB5lhhXvHII6XWCjRgYdyOHy8TnnpSRmNfezsa8OvBgIcrRV8NeBrkyNwOW2nqroGfZ4GfVD2P/qg775TxTz4hKx58kDTeYSep07IlLB1cEYg804cOle//faXM/O47nYzbnH2urLD33iSflEm8wad0l2mDPlEaq554orQ44ECphp+meQvJgpkzZMo7A2Vsn96yStcTpNHGm+W0n5nG3H+/jL7rdgTLpNnOO8tqp54mNbH1RuuMD1VN+3Kw/PDYo1K3VWtZuVPnAvrGOXIwdabDrOX2DGl57Wem0Z9wD/whkIAyaYQtKmvuzJsZrDzmpcv2fysY+c3XWF/pMb0C2z1kgQ184j5/ZTf5DrfBcDnpuEc/xwoutmAwgQ4FlVdDrLx6iMMD3js9L5cPYcB7XVfBT+E7nvYfadxyNd2y8Mr158jwd17UPGvsuJ/8/fybE/pVtb/nIRsEY7BSV+C5fScrf1ZIGbYpDJaHYcCTfm0YExsf3NWSYLRyy8S4oR/JeKyk07Etu59zg6y1ywGhvqXl/5FT99GrLFnH7tgDz/YXo+/j7+mLO8v3776o5TaHYb3HuTfptqG5s6fLZ/3vkXfv+Y/VC3Wg0cetSPnt513pvbviZYTLeUhtt/eRet93/eVWVCNwBgzMwc/1lg8eul4Ouu5xabHupqCXjsnHYMCPVQMeZxi4hQa30FTg35s3XiSfP3mf0m+KLR/7X92vKH0QDTZMmWyw0Sbalrr16uAayTcX2v4F+CbBLXunY/bEJ7/Re+iz8qfla8tAR/1C/j99UWcZ9t5LmtoSfNwt8HEexuNnj/eUd+65isUoPzr3/kgaNLMXZoXhYQb851o+YRsceLxshsPdtRs2kYm4Vea5fx4nU8aN1PQdT/u3rI8DtomMA78S209Mx1Vi+w4OsXbbA1DsgT8Eh1g79QhpRCS4TKpV5/ZEtiaA4Pc7dV+pmD9P+MK78ibbhRV64GGr4bCBz8uLV58hZgRXyhF3vyGNV26j+fnIjv+52Apko7MMW3tGo227Ky19ke4GAx70s/2vVUIZwz94VZ664Egtk/xv0Kyl7IFxR7msRL0+wqHzDx64Rsuui5fMTtjqpNuAMvRpuL/0H24fqtQtS7uc8T/86oHVb3xLglvb3rrtUhn6ymNcz5bW2+8jf7/wNoTIqZQPrMB3A5+TZ2nAw3k6Xzw3P+J0abLqGshQjq05Q+XDh6/XRYhNDu6m+pfYXpZltvF36uk95NXXXtfC+j/WT9q0Xj1gpuU7HaWJQsjT0888S17GCrz/zrwNDPhbbsY1xvhHfHdZ/hej731tjSnO/2L0k/IR8PT88U+cSB/8Cfov8t9kRWVnIfMPcVK5snGosCD/WgYezlPzKc1R/hdl/MOAr8AaPJWQsdKZ7Yyl7zD382GzsVfblvOyudgp7ARfskAcWkBphTIN22C6lZJwKn99NfPO5lTgeR2WrVOoO/Pgb/DJMH7xdTy6Vbt0hfF+BHNrPEt/BozoWthrWK0+Dg2i/aXoj7rrLhlFAx51b3c3VuD1HvgS9EGFe95rYHtLGfafFmv/zBEj5bPDDwdfKqXBBhvKejfdlEsfZbyH7T10XDXf+LH+i95+zSUyFKv3XMUn/Q379ZVaLfASAZdtP/vS3BLkfyiRK/D9cY1kOehn+z/MAgld65dK2fXsG2WdXQ8AbvH+f+byrvLdm0+xexMDkLg22DP9H0qmxz3wg2DAkz5XnDs99L5Ur1lDec18/Kmc+9nZk7UbLS/H97MXpoXJ391YzaWhQPpdcAtNzfo04FkMIambiD3wfWHAL6z93M9/wDUDZIU262iZC6P/KIywH3AXPanpNZLs5SL0WRPure+DPfbkFPd+H/3A2zBe6wW+EUNg8Fwigx69S+V/gwOOl21OvCR3/IHQIz0OknFfvKtN3KrzObJph5OVfj7/ue+/wQorJb9KuPz3P+sQ3AOPPfAYQ12whaYGXkZfve4c/ALRBzWolGat1sXKe2/0Q7Mqx/9sfLZ+iy230XqvhM/XP/Pk48hduv2k//O4Ybin3MYTrx/tiltwrN5ajNKvavyTdz9886n0w41E7GKu7B51/8Bkhdzpv3XrJfLJY3dqoRuCj9ue8H+sGepn+q8PVuAnfvsZBVza4oWRhqs5G3+jPnwV+/SP1Pavu9vBehMO60n6+fqPhuXDuIWG6RvjFpqtsVqeL3+WM6XP+FTc2d4Q5xRKtX8wbkV6+bqztf+3OOpMNWaL0WdZlD+WM2XcqHAPPLaPhF/CmE6XbT/jIz98RZ44/ygG4Sql452v2tmSjP7tDT5PCjc/HYWtRo2wL9/bP3fmdO1LH38dbsMvMNgznyP/6CTdMvXxG6p/Drx+AH4R2kQpZvXfd1iBfwYvTawH+5/6Z+czr8HZCCy2hLGs/EdD5+Blly+dBCtMc1nY+/+SSy6V/gMeVzr39LxTNt54o4L2Z+mTf3Snn9lDXn75tWT+2WqbreW2m27QNKNV2P9MdP47/UXp/2L0vf2l5j+20vlfVfsjfe9R7brQf7njL/LfxhrlOuXWkrc/vAfy9c+fkf+ZFfigEtQLYeVEFk5ANs1YNRu30FCRpGnEgcsBWYQputqAAPQmFBce0Az8pxnUC2FmCXD+dG9vwFzXRYJlI0IgUyazx4ySTw7rAEgFjOimshE+ysRDVYbAwozK4tDXQ6z33a9bB2wFvjWKK07f62p+UrEC+h/vu4/Mw77J6k2byGZPYm90tv1YoX13BxocRmOTAQOkBvbpL0r7nf5X554lP+FgFYtY8/IrpOkO2yPpl7Xfy1wc+qMHvan7SUnfuzVLn2DCrf8Fe+Tvklbb2Iqi4ef2/3OXnyjf4hYaztTcglELWzBYNicUOiOTQ0wNeD/EunWXC2Tjg7BVKK//uSViPA7HkuaJzw7DSn4NDdPQ1FK9oqDg7e95SHuswE/W5OPCFppi9LOHWK2ChhVKVjre/sYrtZY9/9kTWzvaLpT+I6fujRX4QUpf98CXaD/AeoiXZwFIf/MjYJAdebqyNyv/U8cOlwc7baucaYhfJ466l3KTtn8KDmo+0AlXfGL81cHXY/kSUIMHHVFmVfwnfWu3YL93uEYSVI7t95m8devF2AKB8wgoowVu6NnviofxItTQMijplH5giPJ/wsRJsusee6DYMuw1bif333dPhgwK09a5b8XxA1L8kBSJNV65lRyOleVs+xdF/3yMF8GBd5KPZeDhabLFkWcWtP+nMeBjZxu3DVuuLEfdxxeWtEp9TtxTDXi27BBsM+JhZet/IIGR8+fOllv3xsovEFbeaGvZH1uJNH9ok8sfO4KHsHudsKvyn9dIbo1baJaE/p0ydoS97KD/19n9UNnlrGuSBmTpZ/Xf1HG4B54fckK92+/Pe+AvD3ngZdrPxo74AAY8XlIIXm3TnWTvKx4o0P/v33+NvP/g/zTzgfg2RMv1N9Mw6X/71jPy7GXHIz9+ifnHMbLtiZcizcmkxPiy+egZB2rCNsdfJBvh1y9lNipJ/rP/v3sLW2iwB56GK4Gden2oW44UISP/mkiKC5l/rr3uBrkH8wSJXvu/q2TnnXfyigXfCDl9jh32/+XQz88991yoWZlss9XWcvXVV2o5KMoqtwj0l0T/a0VZwV/Q/kjf+jftdOtCkyd2Y/H+XxT9wzIXJn+R/39N/mcMeAhZxuk4zsQpiJRBsomOCoi2N91MHGIth4RxJUMdM1MzwhilMqBweT5NB0z3NFsET2Ywp2WinPQH+AAHSgXK5Dut/geO0bfySf/n9z6QIWdyTzH2dx92qKx20sm/mn52C836WImvhy00pehn2z8XN578/M572I8+XmaPnyAVs2Z6E2XKB+9JxYxZUo59kps9/yLgue3//PguMm3Il8ozbvFp2aGDNMLVZNWw37eq9jv9Ubfj5pyHHlD+12jaWFbqfIw03nxzqb3Sygkzfwv+O/3RH+NDTufhRQr932qrXeVvMNCr6n9+WdVdsf5/9vIT5PvXn9L+7zoA+8S5haZI/zt9snPgPTjE2usW7f+9//WgrL7ZTk5CYWz/s//CiwHKJf+P6TNI6sJALUafGTmnUf7uxhYaHmIlrS79B+tqM+U7X/71ru4uu2rG5dfaUA7Fflx1GDizpk3WG0g+ffxu+foVrtpxO0B9OfrBd3ETR2NES8v/o9hCw0OspH/yi6M1bzH6HH+vXX+efPHUfSi9TA685lEcjtzC6pA3/nhd5nRcl0nX/fkR4EH1ZPyN/Oh1XdHkFuX2B3XBIcWLVVwXxv/s+H8MK/DcQkO3YrstcPMKfh1C/aujzZ1hOHF1011V/B8/eZLstjt+UUBd1l13Pen1EA2mdPxn+9/pjxv8HvauH6jyxxuHjrrPXlAWR/5fu/F8GfzE/dr/B17ziKy43hZF5e+eDpsbH1G/k3BDEA8muv7jFhq9bQg1tpfQhmwGHEeGhW7fb209U9AEW1c63v26pigKsYDi+m/y91iB74JtIwBuotdIXlAgf95+p58dfxO+/VQmfDkIe+vH6u0tC+bNVTIV2F43DNutWKc22++l20+K0Wd1vf+njhsh98GAL0dd2uEwOT/kpM0pov9HYAvNk9xCw3pz6w9/Oci0n7S+ePpBlVv2Kg+/t8EheDq2/4O+N8u7d8O4RbhBi9Wk5bo4twJXAT1D+qwTb8ZZMHu2DHv/JdU/a+6yH7Y73ZzDSxY27C181EtX4MtwQHUv+Ru22tBVJX/O/2z7WRmOr+uvv07uuRc6F+66//1XdtoF+uZ3nv+KyX+x/idsceSfbSL/q2p/vv6rSv4i/cj/KH9qyXFk4Q+DK7jF1T+JAW9qKKPmsxa6l57xs/h+iDVNpkrjLkQsWwTVqSWjnpWq2KkoWQIrbjST8rwKUH5laI2uuqMuBKfNNLVpb68pfPxjj8mwa23VqBX2JDY/gDesWIH6/AX0R/JDTvfeq6W0uwe30CRbaDhpoFSWCSruFsyYISNuvkkmYmW9ePuBCbYwazk+u20GvLWHryf8P+X992TI6WcUtL8mrsBstNGG0mTb7aXRVltin2v1AvqsxzxcTfYJDqguwE/O2fbXwNV89dqtj4Ov20ozrMpXa0DDCQThlgT/tSA8bAW+I0IV2D+6Z3KIVXn1C/r/2cuwhQYfcqLrQgMeK/CsbzH+KxLS3un5bxxivQnRMjn0ludkBeyxz6fPw3BDXuinWbgCVx+H/gI7dPItJn89ky00uLcd98DX4tdTjWjmiUOPuKqv9wm7KH1eI6kGfBH5e+5f3fAS8STKqJQtjsINKVglV1dC/h9JttBUyikvjina/wRy/D2BA4MjPnhNizsSBmHjlfAV4SL8fxSHXMcOfh94ZXIMDz/yFplA//UOP8wAAEAASURBVDPsUX/txguULbwZpN2+nbS8hfE/O/55jaQa8Np+ZE/UAr56es6Nuvd/UeRvDs7abLbF1kp/pZVXlGefeqLK9nP8TR2PA6BHbmXdCvonvQSe6fgjRfbcwuX/ifOPkJEwPumOIB9hYBdrP/k4bjB+0UFq516DsKK7PMJWvhrwvIceNn3358YU1X93H7KRbs9qvEprOeIuGPAl9J9todlF5X8TfImV98DnuuL696cR38jrt/2fjPrwjVCt3PYTqLXFo822e8meF+Ecjeq40vp3Cg5+6go8KpBuoSlOf8T72CZ0EQx48H/77pcBvxNy5fJ/6EuPyEtXn4Z9+TDgQb/NDvuAnUb/xatPl6Ev2nh1/nOaKnQEgtEgtMrGO8h+/37YqADs8j+Mt9D881jglOmh4y2POQch1MWqg6ygWYL/pOf0KUKk9n//vFQGDIA8wt17N7bQbIRfWNjQUKAWm6H/W8x/SlwfxfmvdS0y/pmF7fk17U9pW2nZ8U9IbD+YEPs/GX9R/jniqDlM4fzS8VfGLfChDI4zdWmxkDkmU4nDZeEKCA8a8EyjyqSv5XGSBMAULN828skEWCiUysMalKEDslTkNNSwuIKyDIu10WwKI0GL//DwQzLiVtw8Anjbiy+R5Xazn5kJ+KX0R95xh4zDoVDSb3e3rcCXol9WUSFDcDXllA8xiYf2N8Chu7qtWkm1xo3QDnIIt+SgnrwhhnXa6o23tL757Z/28Ucy8vbbZNrgL4u2v/4GG8jaV14JI5xbD6z9Wf7PGT1WRt56k0x+/Q2kevsDswHhPv21/vc/qb/GmkXps43k4+Lw3+mPxjWSA87CNZIAtNJ74O/6xfwn/RewUv6N7oEvwx5mGM3cj8rqsX4MwNFz+qw3tzwM6oebiJDQ4Y5XcN/5mgRnXJneZjEUN8EwgYZrXRzgpNOyGWD5efKnK/B6DzxeJvpjDzwMeLp8+pO+xTWS3XZT+itgBf7gG/EhKsX0h/XJBGyH6YdVdfZ/83U2koOwvaIq+roCjz3wdFyBL9V+yl/fk3HzCW/6QNmdcLCyftMVNJ89gkyA2FMXHy0j3nsFdCvlsNtexL7idayuqPBHvbHq2fNKlf/dz7tF1txxX03TOpI/DMDRy/Lf5Z/p3AM/+tOByKe59F78CV99pvS4snfkfW/pHeSLMv435CFW5Klbv67e9rEw+guwqnzLnq2NFp5dn/gGt+dgC5DWBjrJqoSY8cPbon3F9qH/uf99wrcwvqEEjgl81Gx57X/6oqNl+Hsvq9wcdsuL+BgUzjUQEWXzvv9J33ymBy+74mNWxejfxV93fp4ojfCCcCS2+iBbgfyxljTge3EPPNI3hgHPL7GSTCn+s6Dpk3+QPvgy8Cxu/1KHG6K2+7s0XA5nFhryHEeZ8KuqH/XGmRzgt95yN9nrsnuK0gdZpUf6bsCT/oZ+Cw0Riuh/vgTpCjySdzzl37Le3kcU8H/IC30wLs9k0+VvuNKSLxKu/wecc7iM/vh1pOAXmD0Ow21Fdoiace0PBugy9Osvv6Kss0cHpOfOP9+/zRX4Y5X+DqdcIe33OVpxmD0pC+Xkj3/yn8UrDtMZgDv51DPkzTfeUHj//v2k9Wqtfvf5r6r+z29/MfkjDt0vaT/zRPrGu6z8+fiP/M8df1H+bL5ZlPnH9V8x+zdZgdeRmw5di+bEk2Ed0uAFkK/A2yQIzY2hrALL2lUAipFNVFoBWm1KNVcC4Kky5EzAiEo7caxxCiOGJrMESyOcMX0wLbiJTzwp3139b8TKZNXu3WVFbKP5tfR5iHUMbqxh3drj/ul6a7RF+cXpTxv0KW6Q6ab0a+AA6no3Xo8PR61S0P4P9tlb5k/5Weu/1ZtvgS3aQKXhbTQKlfohqulDv5Rpn30mk3FbwfyfkC/Qb77v/tLqrB6ImzO+5fJ//k9TZcbQwbh55kv5ES8Ls777Fk0B98D/2iuvIhs+8CDuo8dKPpn5K/nv9EcPGohDrIeiF3ATxNZ7yl7/vJOlo/zQs4E+gdryKtpPjOfwJVauUjPMQ4g1cRjRylMQS1bn9Cl/b+NLrIP64KAgaHa8C19iXX2tAvov49aNIS/01bJomNVTA5ellJY/rpLOhJFFp9dIhhcoxrP0J+Lmlj7Yp0z6zdfBl1i5haZI+3kjTc9DceANjKiDQ5zH9v20SvqP4ipAfoyKTq+RJAODy9Kn/DxzcScZ9s5LKn8deGBwVb7EICWP/71P3ksm4o5y9v8xfT7RD9e4/A1+ppe8ev3ZmrZt1/+TjQ7sCmqWqoyrgj5XWTj+BpyDL7FyCw3a326fI2X7bpeif66QTx65Q2vOaz4Puv5x/KJUA/Gq+X/4EUfL4MGDlfRLzz8ry6/AVW5z+e13+ncftiH6bJLS73Db8zg0u85i6Z+n/68z+PgCiOAayjtfw8HLNZR+fvv7dd9bfvh6kLagM7Zk1Wu6XKJ/enfjFpov9Eu7/BWpmP7reTAN+MnCLTSHY6WffCZN/s+OzUm4tYYGPJM36WAGPDCUrq36Furf9x+6Tt6793/AqZRVN99Zdj/3Rmz/guHOosP4mzp2BFbTt9FyVt9yV9nr0ru1VEOyupDHJMwYH1N/SPfAb7Afv8fwTyQU0if+iPdfwy00R2Bxu1J2OhU37eA2oyx9tpG/iL0CA54U7P51rMArUiUOPp8rXz7zsKbte+VDsipW1zWNdYEr1f/F5p/v33lengm30Ox05tV693yWxy7/SiDQNwoaYdO1/U5/9z3wkjdhIt5bKuS9gW9LbVwP7PJXjH6x/v819Be3/ZE++hGdqL25kPnHkNjjppuy8u/9H/lv3Cmlf2y82AjNn39c/0T5T2VsUfWPGvDZVXbTSiaOfKqmCq8J2gkAUejpjBz29GIPvHUfjUdMEabjFE/fu2gw6GhBAv8jmqxjIJ6scmgOlMH8fNDgQV5+NY6/PVujkMJ0guCXM10zlMm0jz+UL089VeE0blvjQ0W/lv4Y3kJzPyYy0F8Pq/H118HqZAn6o++4VcbAIGa91rriSmm67XYF9Ctwrd0Hu+ySwLd8Gwa8r/IupP28Au6HRx6RkbdgawjaX16vrmzx3PNWFvKG+wKUPtOtmnhm+D/lg/dl6BlnJPTb4+WkTqvW0Oec2pnjl/Pf6Y8K98CztFbcQnMxDTVWCBD+Z9+F2tFbWPufvaIrDPhnkAe3mOAawlr16mtx+f3v9Ann4c1BfbACDwIdbn9Jv5SZT/9l/CQ/5CUY8OD/sb0/xgo8ttAspP3cQjOb98CjDcfhFpo6/KqutiWX/5P4IacTsAKPtBXwZclDsAKfT5+FzJ4yWe48qH3Cf/u6KqqhjCmUf27T4FdpSf+kF0bBVGIQDcZftv1Mf+uWi+WTAfcAoVL2/08vWRlflSVqPv/vOmgDmYN6sBzugdfJnYhg5FhcCfoYDHCVf6yY7njKldoMll8V/5nOWrHM/j0Owi003HvOQ8j8BaUBDm3OlX6n7CU0Rsn/TQ4+QbbucjFyVC1/N9x4Mz7kxDaJ3HDDtbIjbmwq1X6n//RFnbC3GwY46POO822w99ryWCUXJn9v3HaRfNr/XuQhH3F968Y4rIqs+e2/GwecZ4YDzt2fGwVyYUyB/7wNaOK3X0gN/Hp0AmS4GH3eV88VeN1Cc/ebSqCY/uM1kr267Kr0N0N7tjzm/KL97+1n//c9mR+S+kw75bi+n+mNP9oIdnPQP6PQ1wPwgSl2XKstd8eL970L1b/Tx3IP/Dagz3vgO+khVvKF/MnSJ2DEh7gH/sIjNY0r8OtDnojk9MmTIS/0tm8jIPy3C26Xttvtlej/jx/BtwjuuIzdKLuddb2suduBOfo/X/7z6WtGACn/32EF/plLsIUGA2in066S9fFFW+uTquWP7SR9ts/7f+KkH2WX3Xi4ulI22HBDue/enppeFX3v/6lTp8iUKdPC+MfNY7VryvLL48VPGVM4/ovRt7IKx/+i0Fcyizj/LGz+XRz+e/sj/Vz5X5j+i/1fOP7+yvJvK/BQRqrVVAWFoEoKHwt3s2HA89ApHZWGajbG/Te1oPCYRGeYnoxEGphqpNuEx0lLS6KmpQMKDz0wZ0iBr0ClxRTSn4uPJQ064ACFEXfTZ56S6jwUaFlZkrpQamr8VEF/whNPyPf/vUrpr3nlFdh/vl0orpD+sP/+VyY8PkDpt7+XX21tw2rk0J/00kvyzT8vARBbg1DSFm++jSCQFqP9g7scj0Ou+Bke/Nns2Reker16i8X/EdiaM/ZB3AAB+mtddbU03nKrxaJv7CxsP5nLtNEfwxDACjxfvNpgBX7PS+40PhABbnH4T/xXrjlLhuCecfb+UQ+8I42ar4JQafqUv4FYgf8IX1+l3HS482X93D3LonP6r/73DPmSe+DB/859cAtF0xZablXyZx8Fmgi8cjmeh1h5DzzKzJd/3p3eqxu2OYD+Crhp5ZAbsAIfnNPn8Bj1yUBsN4LRBF4th+sUD70NK+ZVyP9zV5yEG3lwgwvoH/fIp7hHvFlR+mzloP53yNu4F5sI7fflDSGXaQ2y9H/AVhZuESF97pE/HIZjlj4Pt95z+GZI5tislONwi0ydRk0Rqpr/yuUw/u0WGqzAw/EFjEYsHfdkP3z8zsp/0t/n8gdl1c12zqGviEqKXK6UN3G7Uvfupyj9Ll2OlZPwnQSm5PM/S3/sF+/JY7yVBI6HhY/t96lUq1kLHCQWci9k/A169A4ZePtlwLWrEncAH/PbPw5fqe2HXzJYF/KRe+UDAeV/H12B/1zpd9EtNJ6c0u95MH/dwQr8Sq2QHwZ8Cf037YdRct9RW2v6unt0lF3wJdGq2s9K3Q983hjD9pei/+q15+KDRtgvDn60CltoyDPmL6V/p461ayRJn3vgyZtS+t8PsVL++CLYHivw+fzneHwFL9Z03EKjX0AN9Ie/96I8iZcxSuKqm+2iX60lLSQvtP3IkjgGv8c1ks+GQ6w7n36VrLvnYVpv1icr/5qpivaT/lv4FbXbKacq6gnQzd1OOAFhUAnyrxXMo09kJp925tn4kNMriAABZW2FD/PZNZJKlGhV8v+Xtp/FLqr8s/6l+j/S/2XyF/kf5W9JjL8yuwWe4uSOmoYqkc61DuIBnE11jNlz5iKY4hDOEqCPNB/noQooKDMCmGilUFGGSyEBY37AmaYZgVeMPvBs1Z3phkGFrhThfXPJxdhq8orSXx4fSWrV4ywpL69WQP/nd96Rem3aSPXlm1trS9Cf8v77uNnmTCXUbOedZI3LLi9Jf+xDD8nI27AHH671WWfLCvvtq/m8/RVT8fGc446VOePGaH3Z/s1hwJNNSfvBkekwzuuvjZ/5NUETvaGyYM4c+RQfiZr7009SDbfYbPr8C0BL2888M775WuqutrqU1aqZQ9/5//UF58mPb5qhts4tt0nDdu1S+r+S/6TvX2JlN7bBHvi9cJvEr+l/fiDovXv/q/zYFT/9r4MPQ7HFdNby3PYTzi+xftj3FhWnDrdjC03rNQvkj4bCYBgMZHNnrMDrFpqFtP8ubHeZg20vpHi83gPfsID/pM9rJHudiJtCgLjCmthCc/NTBfRnThwn/c87HIbs18p/7uvd+cyr0CjWiI5U6BAPTXz3/v/KRw9ep9EdTv6XrI+9u/n9H3LIT+NwteHRYbUY4++Yh3hAFb8ysFIss2KBPHtFd/mO25Mg/1sc3UM2O/yUAvp60PY14oisg5XKnbFnuKwat115tay84e++LMutsa7UX64lUZPx378HttB8jj3waBcN+Jp44WRhlP/PnnpIXr/hXKVfo3Y9GK6v2XV+LLxI+2fihpHddt1dps+YKauttqo8PuAxlBTaEzzmzNJncx856wAZ99n7TJLVt9gZxuHtUqNm7Rz9U7lgvgzFLzINVlhVVsaHv5x+er0i21Qmxz70gdQlHx0DHx57Hnz8NvBoi05nyeYd7ZdAVo30e3XnHniswMOA7voEttCE9mf1n26hmYIVeH0BeMNLV9ykidRTuDXm5j1bAc7bWFaVI+95PXMFqoIL2j/ggo52eBXJHe/CmZDVsJ0qo38nfvcF9sjjhh9WFv2kBrxuoWF5oAmweqCf1b/8+NQDR2MBAIn6kojDqXT5/Of4H/X+a3qNJGlwBb7dXthOA0ziuv4b8mIfeflq6FsQ5M0wasATA/QrFsyTh7B1aOqo77Q6e192n6y2xS5I9coFwvD4S+cwXFvZaovdpBpkNV//cA/8s1iBJ32+AK0Luf6l88/ll/9LHnm0v9bxoQfvk/Xxde9i7Xf9qzwGBvl/Kgz4V7E10tu/9TZbyq034RdWdWwXnbVfvTz+W8sL27+o9PP57/1vdCN940PkfzLEovzl6L8/evxBh+D3M2gGrYjVxmQ28ywBTjC4B14VRgJJA4TjR0lNJ1TnB8YY0ExWuj4JAoxhJrJWnDCh57BawETTsZqsGIhrGaEowObgS6uDDjrQUaQhDnuuiK+N1l19dSBXyOzhI2XCM8/IJHyGff3b+CXWdbUk0tQq5dHnIbhBhx4q8yeOB0KZNN1pZ6xYb4n75Wspjbpt20qdVVbVpkz56GP58jQYQHA0rnn9Y7PtcNsLDozO/ApfYb36vzJvwgS0BERC+7d8Aytt2lIDLZg+TT7Y8+9Se5VVpMX+/5D67dtLLdw+w2sop3/2qYx/6hmZigOudMvtvLOscemlyrDABoV/1ulovCSMk+b/OECa4Laamrg+shrqO+3zz+VnHLQa/xRWg0G/GrbgbPr0M2qMlWr/4vKfFdBrJM89TOvCL7G23n5v5Q8BbHa2/dq5SN3i6LN1oi3W/8NgGD6N2yu4JaF67fqyWcdT9KBlzTp1tKxGLVcPX/BUkvrgh5w+xhYa8uXQO2BYcg88XJb+y7oC3wc4OOTJr5A2xctcpv8XzJ0l7+PlgVvMTP7K5MNePrmKbIQP9qgcoE3VqlWTDQ86EcaprS7rPfDYQkP6lP8tYdTR4Y1ZZk35ST+qMwwrirp9DVi8UvGwm5/F/udWaJNiAloo/5OHf22r1orDQ4zdZLnW6+IlVWsoq26yg+5tDsnyKn69+OK5XloPGtY7Y7tAszbr42uw4+UTrCwPxZct2X690vHB96R2g0YF9PUmlyM2V/5zLPIqyM0OPy18hKdSfhr5rQzF4UPe7X7QDU/gwzkbO3ml+6jfQgNo1/5cgW9gHaHMqcBhwuPle3wJlH2zyibby764H7ysnB9CK2w/6f/3f9fIAw8+rDT69H5I1l5rLaVjfEtIa8D5P/Yz3AePrTykQaOl+drt9a5zbm+i4T4RB0OH4ENGE3AWYJce12halv5r1/TAh6d6qbiSjzth1Xb5NuvKDLzMcS//1y8/pmn8daET+FgLfKRz+n6NZE3Ib5fHv0rbzwZpS0XuxofFZmF7VmN8lZYr8Fn6+fpPPwyFD3WRAO9UX2e3g3BPP+S3Ggzs8hr4Gq71gdP/8MFr5b37sQce5HhIdoMDjsUVr7sJr5Ac9dEb8uoN52maVhg14haavWHA54//n2A8z5s9i02Dq9Q98M9e2lWztcGXT3kvfdY1wItOLXz8ivXgCvxT5x+p/N/p1Cvw8sntNGn7WbchL/YVjks27O8X3qq30BDF2z/yozfl8XM7JCQ2xBdt+WEsfmF5LnTklHHDdbvWJ4/11Cs5uTWuNs62kD4daVD/fI9baJ7BPfAcf7uc8V9Z528dNC07/qviv5aFx6w5s/FxsW21/LZrtJV+/XoxKXHO/3z6Rgwfcjqjh7zyyms65li3bbbhl1hvRP5fNv8lhENgYfTz+b+47c+ffyP9XA5E/v++9l8u91U9/q725+9NHwa8alBqNWttfg0YJ0oY2Rywrowc1Q6xMkG1oyGwPDgr1sSYkwFR8h1TtRb2m0JOsqUhUwF9TcngIh7oT37jdfn+X//CTS8zU/ow3nmFWJb++rfCgPfVEtarBP3Jr78uX194gTYmbb/Rb3XaGdL8QGzbIVdQ+DcX4xeAV/GTaGgnPapivjyQfuNNN9Ovtc4aPhwpMOzw86uWFOjPx37ID/eyu4+ZbmlIzGs/P1TV7u67peZy3C9JZ/RJ99POR8usb79TaD79bPvXwi02yZagQN/rrZmtVJ3k8umHmjmaYQb+6y00Z5sBXxV9z8w28naQ6jDIi9LH7T6P0Qj87D19YSN+lr5dX3c5QKBmBHUPPA14RjviFppmq7dVYyTbfj3ECoOB5XV6GKvT+DUmS3/29KnS84B1F9p+b6MelsVBURbIPfC9dQ88owAUkT+2go732u9xwa1YTdwphz7TWDcdopn+H4h9wIP0ACgpWxalgcrzFpnl8FVXb8e0iWPk8XM6ys+jcHg5T/41Mx6ksSuvc9z1H0m+bBrp88uVL111uszFVymJH2qmIW8/M/MWHTUerWpaDW4RGoP91aRPAz577zsLmDPlR3nwuJ3VeGWGLY89TzYNhmCx9n//3fdywEGHIie2Ph19lJymL83AzPS/ElYM1pSlVMgYXJX51PlHq2EHQOKMBqIaENkZHzBad3dsa3IQ2s+tRAMg0z+N+b7K9u+GX4jW2iXlo/OmT7c9ZAJWuWnA2y00WnyGhkhPHLad9SMMeF4jyVto4KxuKCXT/4SNHmTb1IjjNLzzqKOO6WW/KHnavJlT5UFsV5qBX33yndHAHnZ8HOnT/jTa8Qsit9Bcek8B/Rv3WLnK9mt9kN/H2fa4epQr8+T/8A9xiBUGPB230PAQK53Tp/4dgluhXoIBTxhX4Nvi5T9f/j/GzUjv3M3LCti64u13+p31cHoLYEH/gocO5xYa+xKr6Ao8b6oppf/z6bNuodby0suvyJk9ztb4Jf93ofxj//08SbGc//n0NRGP0888S1fgdf5DwVtvtZXcegsNeHPGG5SS1/85RBQVmGycEXTWZGQjt/1ePn2jgUCJ+a+q9qflRPqR/1H+fu/xV2QLTRiS1Cgc2fZIx6knZ1L8FpoEiUoETidOKBWueOhqhsKgW1TRoHD2N8c9/mmE4ZDXlIaV4k9LsrJ8VT/kJErqgDh30iQZce212CryegH98np1pMUBB8mKuCu9vEGDRaI/Y8gQGX3//TJ98Be4Cean5K2uFe5rb85998EtwE/7Y+67F1dFYi8p25Vpf7PddpM2Z58jQ87uIVMHfaJN3uItGvBp+yuxHWnkLTfLjwMHYhV9LEplmj0Da6T5XntJy6OOwg03K3lOxfHHD337yaQXX5AZYZ98Pv8b4C75VY49Xhq03+A34f+YT97B1YE4+MjaaYdan3n9TdEhDTKmkyrwTnjya6yu1ynZ/5Xz5wtvjvh0wN0y6dvBMmeWG5LZ+6cDB0DIVuBvVfq8RnI5XCNJ+srpIH+vXX+ufI4Px7B2x2FfdO3G+FBWqCTlby5o3LE/jGHPpyErw+UvgNTreKdtTSChH7Et5uHjdyna/hp16gl/mWiAz9qvutmOWD09WKqHLwZn6Wtl7aFPq5rxcghWznkF5vivPk0NUiAcdjsMeN6yAqdyhQLnzpohb958Efb791V4lv9N8MvE7ufcgCsP19eGVUV/+uTx8vpNF8qwt59N5N8KtL3lvNd744O74ReAhgp2+gPO7YhfZd5Q/nflHnhuoeHAR319/I9C+uP8+Jc1Ul+6muKly7htz2z7u+Pavjfwa1I9/Ir0HM66NGxoNJVwKMPpZ+Wfhvgbt1yEVee3ZN7MaYn8KWFUab3dD5ONO54sjVqsGkhTYixIPr4BPg4FH/P7n1tSdnM+FqHfF4dYJ2DFPNlCk9d+0r+/E/apjx2J8xpr4urTlwvoZ9tP+tPGjZTBkF/26yy9ZSdUFIid+YuSftcg1b9TsHf+jZsvlOH8yJHSt/HHF8hN8EsOv1h6615t2FxsPcEtNJfdEwpM+X/T7mbA57dfM7GCOsA0ppEdTr4M3w7oDHClDPdrJCFkO56MQ6x7YQ888LWf2PEIf/vq48JzHtQNe13aE78SYFuPlqQ9pCGWNQFb1F6//hz5IVypqkgZ+qtsvL1uv1l3j4OlrHpNpZ8kg/7wd1+Rpy48Svtft9BgBZ70q5J/5rfapje8H3lUZ/kMv2w2bdpUnn36Caldu7ZX1NqFArPyp+whkdD/Pc45V158EX0d2r8DfrG98fprwkuL0fNnMfpaHhGyzhAXiX4+/xe3/ZF+0t1pD0T+Ky+K6d98+Y/yZxrFx/9ijz/fQqMcp+CRwxmXCwoxBwY/34Dn9Vm8s5LJfKlPlX0Y7uw1fdsHhisz0vRyGab6QZpt8FEAHlSF+DHVXy5y8B0HOTP0yxYskJljxsicUaOQUC41W6wgdVZaVcpx2p+TxG9Ff97PU2XmqBFSOX0m9tkvr1t4bN8waC5i++dN4ldcJ8o8vDCU16wp1Zs0kjotVpJq9bFNI7Ayv7/IBW//vGlTZd7YcTIHH3YqQ9ur48rDmrh2r+ZyK/xu/P+j+z/ST8dfBV6CfsRK/MzJE2BI1pEmq7bFIVhs9aA80uWMp9LjbwFuQ5rywwis6mM1GqvqDVZYGfu28a0DHAylc/ljcb8V/4eNGC7773+QjoNuJ3aVrjg86G6R6ENHTB0/SiYPH6I6hfeFN2qxGrb3cH8+XRXtx7aTH0d/Bz6Ox53y4CMM7toNcFg+uEWi/zvpv2L8nzZ+LLaaDMOPQhXSaKXVpCFeJNUtYv8vjv4tRn9R9R/5uDD9P3/ebPl59DDcRz9cX4Lr4aWlEXRkjboNf/P55+2335Zu3U9V1l1x+aWy1157anhp7/8lyf+q5p/fcvwr3Rx5NRHmM/J/6bG/fuvx/1eXv3QF3geD++l4KAgZSoqYGPDBqNQVByhfdeqluCnQjAZfnSiibcMY1fc4JIfyUICVhqf+JMoXhZAW6StzIv/N+IryFwZLGDE29vi0EWQhji/ECcrVtkv9+PvP1f+TXg/1gT2C22lef0UaNsIqvDYl9j+NGHXq8WH6NgVG/Ute/Jr5p+ORR8uXnw+RtdddSx5+8H4cJMYAivJnPI3ylw41CkUcf8YPfab8+DXjL9p/mOewmkJuZpwz18FuFcMPQZdFx5w1dx4Ul8fMN7PAy/DizdjGoh23BKO8kMfLJQjCzk5VTajZECYePghjYPi40UBBih/SI33lhvGN3M+82Cgf+Yj8p3RF+ftzjL9pM2bIt998py8e7XAYnbeNRPmP+pd67rfWf5ULKuSTz7/QeWjFlVrICviVNUxQ6v/W9OP8578sxvlfhTDaP3/N8YdLaMwahsqrygVTOw/FoLP8GkmuiPNtk/9RHC+44c0hhFXoajmzMwFmFOMkSRwY5JX4UJJmJEx/0neK9DUlr4aaGSmawfxAK9I3Fkb+R/mL4y/qn6h/4/wT51/oATUlYC9E+yPaX38S+1NX4N1UpqFM49cs5SSg4KoeM7ECz8HBfe+2/wyLYhwnwbjm/c/8mdtNbZaVDedQQoSGPVdKQ0VSXE0g3JyVEcoGONKP/I/yx5fhOP6i/on612ecOP/E+TfaHz4asraThVNLC3FEov217NifBVtorDNzujSY0gFG64A9nHG6Bx4gNeIBN8PaA2lZGsKDC+zESfC8LJTLHT14ItH2E7JQNcxxFFbX0pQ+0vyFgIXSsUyWbUH1jYBDQhpxIn1lTeS/yYTKj8pQlL84/qL+ifoXk0Scf5IJM86/tDyi/RHtL7MPVDcsJfZnngGfGruJJZwG1M7JYOhKH235mXPmw3hGStgFkxhEGqCZGO6hoeEMNH0XZIAueAxy4rD3xAAnfoCxFG67UQzkIV1cohDeFiFakX7kf5S/nPHEMcURFMdf1D8qB9SnUf/aHBPnH9UOYEbifK5VAOGUlzj/qrxQi0b7I9pfS539mX+INYzb7BjWcOHDMPmcgy+xclU7qwyy+Pb+aitb+hYXULH13fJl8mqpIa4r5QBwHy/tc84+qd5VgJJUuy1TRpY2w5E+1w8i/6l+ovyRCzZU4/iL+kf1dkZ3qlaN+lcHSJx/dMqN82+0P6L9tZTan8kKvJnD+aYv47YqbtM+NbuCaBUngVlYgTeTgDAm+NJ4mAnUC2EaUTogSNGXTFm6GVcsxzFZmtEvByxdReONNFyBx9GkUFY2B8ORvjEo8EU951Hkf5Q/jDd9I47jz/RW1D9R/8b5h4sbcf6N9odbCrS+ov1FzbgU2585H3Ky/soxzrUPSzzc6Ld74NFQWNU8MKSToiciptMj4ThZxusjaXwrjqIGxJBNl+S5zM4/LStUx3IwY+IyJACL9CP/o/zF8RcUSUY5RP0D3Rj1b5x/4vwb7Y9of/257M90C01mxjNzGIa3TYa+NpFYzh4IWXwFPrHBkc4wHcvg9g2u9XENvRyGOcuzgzEswF2WPqdcHhqxXDmGqRNBttTGN6An5ZYU6Uf+R/mL4y/qn6h/4/wT599of0T7689jf+oWGv6abltSMqZ6xgq2YOaZSePK96zZ+JCTFUCLnaY1/oiEv7Dyw01UDiVG1qkxj0Qz2mHyMxzeFK0UmvI6/eiThjs/5qQklAbikb7xg0xOOB35H+UPAqF3Ksbxx6FB1ZHvov4JOlcXTaL+jfNPnH+j/ZGaVJw5ov21dNqfyR74/ElNZzo1Bj2FU58D7C1WDWmA9EusRANKdu3cDp6GBK6mM4Ma5pafKYlDObqirgBMIsjMlfd0yi2krzY8lxbdRfqR/xBC/+0myh8Ghg5Zjp04/qL+ifo3zj9QCZho7XXeJ07TE3H+dWsj2h/R/lo27M+MAW8Gsj1tYCfhJOADPgNAcNbcubAT7JgpMdRmUIPcFAXtcL6/uILQdGIpgDlZHhlWrofraJNz4Z7Qcg0gxDgKUsFiCsPECwVH+pH/FAU6ygUfJiuQDISj/JEfNqaUP8YgDiqEONLi+Iv6J+pfHu6O84+qhTj/QitG+wOzBVfC6EX7a6mzP9WA5/Stk3oSAIBOO86m+yQpCRgKn3qIlYYAO1mHPQNAJEDj9BAuUzMqwBRZ78SvIKpKiAaQHlxShpXC0rx4R0n8SD/yX0UqCGgiO4zDRfmL4y/qHwwEalEfI4jBWo36N84/cf7l5BHtDzMEOWHCJXNoojEyAUNJntH++kPsr3QFPtNZSaewD/GXUfnZpCQ8E/fAE0ex1Yq3Vb1gOmkBWnwozMuz0nW9A0EOHlUjweQ3LM2CoFfPVhEtzamEYiN9ci7yH8LikqFCGeXPx08YKDZ6wni19cZkgKVpForjLwypMLSi/oGohBnBR1kQq6h/o/6N80+cf+P8+zvaH6kBH2wd9VKNbND8eIJrCbOTe+DtxhdO/epSa0CNKLXMCcNCfCU2sJdX4idbBQKW4CJAa91/x2Q6/odxoeG0cBREo5+rq1pOpG8fbDIOpTzN8DfyP8pfHH9R/0T9G+efOP/CaqANk5kfOWlG+yPaX8uI/ZlrwNNWhvzSxlPny94ez/cp+0DmNZIcCNxLq6syLIBp+FPDW/EY4dgIBjeWspQW0+A0H+hl6aNyiIcVekPTMrRcxFk9lslHpB/5H+Uvjr+ofzAKov6N8w/nRk65OudyimQkzr/R/oj2ly74/knsTzPgE0OYxrC5XFAmlgk6rn3ISfUDdYY6m0N0OlWYx02zBlwvizNOci2k5fckKwwxt+x9G70VaMjhmQU5PTPtvW4phoacSKS/UP6PG/uDdDjyaD3GcMQRHeTYYzt7VyZ9kHI35XfkP18tU34406L8gRMJY8CN33n8/zBunHQ4/GjtmCM6dpRjj+vkXaPy7FXTiO6bQR3ZaUuR/pk4YaIMHfqVDB8+Qho0aCAtmq8g7TZoL/Xq1tWqhte5hcrfzBmz5KcpPyXtb9myBfbG8+uDwS2l7U8mG68mfPYbHeu+qO3XueV3lj+tnwtZnH9+9/Ef+Y/xEeUvKApIwzI6/nNX4FX18eE9mwCKgjQVqLNxCw2Vpcd1WwtmOod5ae4TT+1xAoLTAYWw+a56PRVw4Pq1ko6rqSioDIfTnJZVnS8OKczpus98fxX6L7z4ksyYMUOaNGkiO+ywvffSYrd/zKgxsue++5Nz0vGwQ+Scc85W9rOgvwL/X3wBfJw1Sxo3biQ7gY+J6P5F2v9nG3+jxoyRvffeT2X4MMjz+ZBn1w/2ax5fPVO3JNs/aNAnMnzUSNVpe++1p1SvXj3ovUXTf+++866cd+FF8uOPNLoLx9/5558jhx1yEOpvOjltl5XPVmX1X7fup8jAtwcm7X/ttZekSaPGv1n78+kz7jo96n9q2Dj/cQb/rcZflL/c8R/H37Krf2DAV+DmLE4C7EYqj1TJKyADy6Z5mP7sufORkaFcZ4PQl6xQLmZBpQW0FNtg+q0ZwnVPu6Valex6RMub1o0YpuxD3f+fvesAkKJY2nUERThAkohkEBXMKEoWJCcfopKRpD4VEZGMCgpKNgGiEgwowoGASk6SwUA0YEJyjiJwR5C7//uqp2dn9/aA5y+K0M0xO9Opuqurqqtrqnsc/HDkK35ipFTZslDgE+T664vJ2DHv/2n8b9++TWpC4SHOG3kK/MWE/zLlysmRI/FyA/D40YejfT7RqVYREaJoOxCO/jkJn5/8v3XbdqlVhwp8kjRs0EC6dzUK/N8hfzp17iqz58xRDl22ZIGkTx9rvrXF1pxB/sXFjZe+/QYE6I9y0HCipbtWLZtLuyfbavyZ8D9z1izp3OWZMPiL5s+VyzNn1lpZu46gym4nf4lpBjf/uPn3Ypr/nP5FPfX8k38BC7wnkvTHiqeAqPKj/BsVZLwcwyk0xtpj0/iLYOcV/TUPTFGvdtzQCpTKc9Kj1UEL6I93zyJePE+AMxZ4fqYHCfizOjuzOfgGCyGkG3SWLlNejsbHy/VFr5ePxkCBR/SfwX8CFgETJ3+Cc/dPyTXXXCMlS95xUeG/TOnycoQLoRuuk7EffuDo71/Of/HxCfLx5MmwgidJkSJF5M47SxiG+RvkTxco8LPwRofy74ulC+HykgF86cm808CfNXeedOrc2Zd/NapXl8qVK8m1Ra6W+GPHZeOGjfLxpMlS/NZb5LFHHwmJAhUNRj4E+f/g74fwFqKOHMXCNAh/4UIq8Jeb8l67nPx184+bf8lDTv9w+hfoAH/ng/4ZUOBBm4HgTSehGEToa1cvho23Vvt4bGJNRTcWZmDQWQL3esAwpwZjIzKJuMKaw40EzGZmCXOnT6wCaSEHGMZqEUmEmV5LIXvorYGp38GPjv/StBxD8bSWY4tMh///jf7KYCF0GC40N1xfVD76ABZ40Kihf0d/5G/Hf9H5j7IuUv516tJF5syep/Jv2RIo8BkyKFuqnDuN/KvftJn8+MMPKl/bPvGEPNS6JYokp7/EU4mSKk3qM8rfni/0lsmffCb58+eVffv24U1dPEZSZMGCzyVz5kx6bxuGbjj56+Yf0AQnXzf/Ovnv5r/zYf73Ffhk00xQQ7dSPPAbzG83sYaSdUoHnwdenzORjE9fGUSbzzkjwpsm/Po4gzBA+Y8BhnTVj7YwmrltYH5jvQ+PN+kXL3xuaDt16g/gi0d0Jkq9+xsoSgoXKiSD+vdLhv+cOXNKbGws8hJnwHIA/7t370ENfPVhopmHIUuWrHJpukuj4v/YsWOyHf7FhH9V7itl5arVsm7dj1Ks6HVye/Hicmn6y2Tr5q3y5VdfScKxeFgLi6t7TzT4dvwToDhv2LBB1q9fL2xTgQIFpPDVhaQQflPx673aquAlfPx/O3RIvl37jezcuUsOHPpNMsdmkuw5ssl1Ra+VvHnyasFI+Js2bJLERChl5FLQX73762u+QsTjAOAR/4L0lxMbCIlHE8Lhs80//vij7MEv4V+RPYcULFRQChXML5kyZY4KPwEW4p07dir8q67KJatXrZLvgceiaPPtt92m+N++bZt88cXXwGMC8Hir4jES/qZNW0APpyRTxli5IscVsvfAflm75lvg81e0oYBcX6yY5MqVS/sTOf4W/+w/yYJvcnbv2eO3l/0vmL/AGfHPAizPjH+G/3diw+kf2GeT7rJ0kgN9MFWF438bXGIS8XaI/uTEl6V/S9CEv2vnbkmkKVnlD5tDyonR/SGk59P1f9vWrXL8xEko2+nlyiuvlD/AYz///LOsWb0WoipJroEV/5ZbbpZLLrkEdSYf/6NHjvj979XrRVmzdq3m+3D0+3ChSa9tsfAzZYqVHNlyhMm/lRj/Vq1hVUcoXbqUDHtjcBj9aYJ/CYfP6Ej8f73ia3nokf9qyttvDpPnnu8J+tyrNagFPiNcaDC+lv5ZPshnkfSvBf3LmeE7+U8MGvoj2nhvx1/R6OY/R3+O/5z88fSPlORvDF3gjXT3pW9ArECwMJmVIITETSgv76jAM80/8JHZOUkiAsURuG6PBOPFeZVSeBmBFoCDetA+naho3NdVr1ePFtM41m/KOPgiFSpVlQMHD6SAfw/ZijGDbyr1VatW1skjEv83F789Kv6bNWksHTs+DbrgmGhlGBUz/uPiJkif/v0Vfok7bpOvv16JFAPrzjtul4dbt5aH//uYH0fLXq9ePaXuPfdEHf+pU6bJs8/1BCMHxh9l+FymTCnp/fwLki17Vh++NgdpZt2RKG+9PRL/R2jdbIWnyvjwCxcsJGM+fC/gxmBo6W4Pj1Hpz4Mf7P8AKPXVq1RWCOiuwl+8ZLEMHjJMfv5lfYrwH2rZUtq0eVTSpE6jeVBS6xg/Hnjs11/xf0eJ2+XrlSt9+r/zjhKwvraSRx59LAz/vV/oKf+5p47pIvhvz949UqVaTe1rvXp1sVjJLa8PHkoQCGZMiP9GjepL544dJVVqcpCBzy6wH8H+jx07QfphbFmG+Gf/16xawZza5nPFf42bNJN1WAClh6vJclis2TYdSbaPNwik+98OHJB8+fPJZ59Oikr/t9x6G3KyNEOo/82aNZZOHTqE4V9zsX7IHy6mSpUrr/ivDl5pCvp/9PE2Eo8FjYXPZvAt16uDBknOXFhkBOTfM6DfKVOnKcRo8NmkkPyDT37DBtKNm8Q9+Fwo9ejVSyZPnqJ1DH39VSlXvlxU/lN0sPEB+H5f2W0ELrLve6ChbMUCsFrlyjJwYD+pVr2W7Nq9G6lJaoHPAh/4IPww/tNcSGb7PPzz51yNP/vv4BPXhko4vMS3w7+jP8d/YASEi1X++Bb4EBooHmxQMeE9BO/Do6wF3ogXzBwQ5aqw63tXxEKyszSlsE6bpDpa4vGjwoiSiA9KjcxjJleNYw5NZg0mjfF80gvTvGDKXdzwa9SpI9u37fBQQ5wCKxH41zWbh39ak6tUrQIMJsf/zVbhicB/o4YPmFNozJBY9OvojI0bh012A88aPqvOkjWrfD5vlg6zHeNTsKY+17OnTJ06I2z8Y+FuwFN17PhnzZYVm0rfVyty5PgPGTJURo16z+8/fY1zZM8GxXavxMOqz0oIf+FC4zIQpL+ade6RbVBwNEdE/1nQwvcaLQOBx2pVqiA+RH/Dhg2T4cPf8eFzLK7MmUN27tqNOFTqwb+txG3yxpDXJd2llyo89mNsXBzwiIUQAZwFfNaVLVs2mTd3Bib21HhMkl27dkr16nXC4JOzguOvVQNKxYp3yWuvDPLhmx6ylyH4XJz1w9gG+792jVHgEYmcWjvu/lr+b9ikqfyw7gd1NVmORVEQvuIGMRXvrioHDx6UvPnzyJRPsFcD/2jlhcnd7//Nt5QwLYScCeKfp9B0xSbW4PgH+3/k6BEpU/Yu7WHePHkA5wDc0uJ1/Cx8gAO8GCldpqQMGzo0DP5LffvK+I8nIr+HoQj4xLLW48m/xlDgu3TphEimGPy3bPWQrFq1Bk8xsmrFF1hspZb9+w7IqjWrJW3atHibU0Dy5M6DeI7o6fE/5I03ZcSoUVr9rBlT5Uq8galavYbsBl0S3iLPhSYIP4gbxmubveahkIZzNf5EgYNvkE0cO/w7+nP8p2xg5KZKH96em/nnfJY/qsAHrexGaBMjFBQIKjeM8FCiQZSX4k0vsFDpl1iJPiovQKKRMZpP7e46MaE0FXX+4dbY4xmHe2tl1xKog+U1AXWiLL/aigvK4JcpTGcUflMxXQs4+MR/InB5Kgk4NKiVchUqYZPaUXW9+PCD9xWtQfzT6krMqZVL8RjC/++HDqMeVAT879i+W+o3aqz4b9zoAenauUtU/BsL/ACFT0WkU6eOMmXKVOnR83kzcBizoa+9KiXuuEMGDnoZm+4m6fhPnDAOmwmvQf0G/rRpM6T7Mz11/NNnvEye7/G8VKhQXpWVgwf3y6CXX5ep06fr+FeB4jxwACzDAfpTq2npcoY20Ic3hr6urgfaX3Rpz959MmPmTImDpTtu3EeSEQsDQ0cGPvGYeAoxpC/0v/xdlVRpKwpXoDEfvKf9C9JfqlSpxRiwQ/Q/bNibMmHiJ9KkUQOpXOluyQ0LeNpL0ir9fweF9Pnne8nP63/R/vd6vofUrctjOg184rFv34EKv2FjWsg7yWdTiccXfPofPPhVKQnr/IBBr8rHEyeh/0kyYTzweE0Rbd+uXbukWg1Y5DmGShAx8sILPaQWNj+mgsX/q6++lEfbtPX5b/jbb8odeEuiZMALFU6v/+Q/s6gY4MNn/79d9bWHt3PHfw2aNoEC/7Okz3CZLFuyKAy+5f+KsMAfhHtQvvz5jQXeo38dU6//vx8GPaPNRMUOfNegQUPQMxa3Des/gFNoQM+aGKJ/2//D8YehwN+NdOLRkHEvuJxUrVZFLoXLzoKFi6V9h04ozfQYmTRpPBTqQh4oUCVcmOjeow0H/K5dusucefN1XBYtnKcuNEH+I42Snix80l/VarSQ74G/ej4sEF7HZtZu+lbC9p/typY1i7BdZcuX1T6aruIaGP9f4Ib2AKzv7Gu7J5+QVq2a6/hXr8H66UKTiAXtPLOJNWL8g/1nV4P0z34H+Y/p0eAzMih/+Ozkv/eWWTGWnP7c/Edic/O/4z/QAYLT/4AET/6qAs8HlaoQIP6tYoqXM4djUODhLawZKbRVsvPZvlM1ktyvyOS0yZTgzIv/mBE4sVBpUPFPSc+ALPr1LKR6KZrPzAScODjtmLy8d/CJBeAD+PdPoYGvM48/VPTo9X/D//atO3DsHt1cBOfA0wLf1dAMJ3nEWfzrMXdQPAl/1Ltvy+2w4idiQVG2XAXdJEfQK1d8KalhQfz+u++lSbMWyJoEV5NX5C66KaC2eFjYa9epa1yBkD9u/EdStMi1uAuNP/RreaxNG1m+/CuF//7od+SmG2/Ue47/N99+I01btFQSue++e6XHs8+gvAnsA4MhT7T+LOivTJm71PJfjMdxAo+q7KkmEt7/IP3t3rdbsmXJJmnSpmHT/WBvN2/aJP+59wGFX/z2W+TdkSO1XtL/OB4X2B8LIYRRo4ZLieLAI5TAMuUrAD88NQSW2JVfYNGQRvHYqNmDmncI3CuIRwLcucdY4BUpAMqjBXnEoIXP/s/7fIG0f7qj8l/pUqXhWz00Rf4bh7cCfXCEoaEuXNH/tatW6rMd/2D//yr+b9i4KTZv/hRS4LV3Bj7HmjDvqlQF56IfkAJ0ocHpMopwM8AqP/xOmxS8XdkudXCMJPHYqAEWpN1g8U5B/hyG/3q5chW1JHHX49luct9994fR/6uDB8s7776vben1/PNwZaptCSwZ/I7eMZJcOi/FgoQfXjqd/CP/FC9+p8IvWKiQnDxxHO4vO8LgB/HfoX17ebBZk2TwuaejeYvWsvbbbyVPnqvk04kfY0GJtz6gt6o1aYHfq/gwx0jyFBqPUhTVxHKI/86G/v+q8SdSnfx3+Hf05/iPEslwggoFldl8Dsq/i0n/i8HrdExbwWBRxDhPgBNlXnQw1eY4dvwEbkN5GM86tWIU4DyQCAU9lU6QTDS1UFHxDmVCHMt7mf0WMR9DqG5uqjJWJ5NiajJX20avhIMPtFGBj8cxcUVvKCrjcPyhYvRP4H8bPuRU6x4oPMB/Eyg89kNOkfgfN96cU83xnzr1U7zWz63D/Z8HHpBNv27ExslCMnlSnI4pv4ZZFRZi5u3zUm+pBSWCmefM+Vw6doJLA0LjRg2lS2cqV3ggGQTGnx/Ead7yIZBOknR4GkpL06aah+W+X7dOGjeFUotytIZOmhz3/6I/uxAqdsP1Mg5vMhSPgBPZf+2MaepZ0d9dlarBcnxAssL9Zf7cWdp/FqSyzPO+GaZN+UzxyLrrYlPypl+5ARV4nDhe4aurjFraicdeUgsfByJOd8ACX71GbZ//5uPs8WxwOQry34k/TsldFe7GBlW6FCXJl18shivPZQrX9I63RLzIlGnTsL9hQBj/UQG1lmcPGVqW8P8q/m/YuBks8D9Khtj0snTp4jD4Fv8VgccD+w9I/gJQ4D/h24jTw98GBbh27XtU/vDDZF1hgU9J/hzBG6wyZSsoGtLHZpCFc2fLJerupGjR/n/11Qp5+JHHNE/bJx7HXo9WKfafp9DMnjMPw5AkSxYvwubnDChHHKM35M0I+bcPrjKVKlfTui39c/yfe6abFC5cWPYf2CejR4+Bj/ynmocDMGfWdLkCG6s5JqyS8nd83MfSp29/YkaGDRsiZUuV8uVvVVjg1YUGmRfO/1zPgdfCrMwbf/0J8B9TULX2P5iH8WfCP3M4+e/mPzf/GwPE6fg/yFuW/8l3DI7/iB2DBftDvFws8gcylLZMDwUeHoiAYEgh2s9CH3hFmB8TumF8Iv7zl0HnJz7xRguZ2vXKKMTxnolsFQmW8xpfoDE/723Q4nrxqrIJgV8mX8zwy5TF8Yew2NpjJP8s/nfAH1wVeOCfH3Lqik120fCvlmNP8Zw7ZyZOXMmu+G8CZfr779fJDXgTMAYLCY4/LaYVYTnl6HXrhq9HQsnn+I98513d/Mnxz503j9x4ww06/vTdtuNPt69jOPt6IRQgkkatGtWlT58X/ZE/AqtpmXIVtI0cf6bXu7eu3Hj99TjNBBbP/5H+yvKDWFByiwXeZETrv98A74Z5dsL1YdmyZfBJ3y27cRKO+k978JcvXw7LfgKsy+llOfpi6Z947Ac8kv7nzJ4hOYFHdqZRE4NH/TAX3wQgjoorN90SN/wKZwO4hDDshAJfAwo8+38tTkmZMH5sVP7rDJeOmbPnaNq0KZMlT16ezHP+8F+DRk3kpx/gAw9FdynH2wtB/LP/+wMKfDBPNP7fhg+T2Q85NVKfc9Az8GfxH+z/YbjelCt3lyZed911Mu6jD7X6IPwNv26Qe++rz2J4Q4VFZxe81UBgnkj4HeH+MnsuP+QksMAvkNgMPAUKeVOAvxfuXlWqVFX4HOOs2DMydconEsvTa7QRBg7damZhkcbwYLOmWNQ+5cPnCUhVq2Nhh/IV775bXn0Fi0Mtq5ClCtL27Nqj/V+wwLjQOPnr5h83/zr9gzLH6V9AAuQlcWGDis+A/A0k2Sy+/GU2Bspf/+2llmUpSlqTFm3+OR3+ocB7TTL1EEbywCxezZwwbGNsRrOJlQnIZ+vhL4J5ZAm85EAdzBIZmKqtsK+8AxlMGgolg68p4TkdfItw8wvslIICH88PEBWD7/ZHH/xp/G/bDhcafImV468WS1gRfSA6CkgA/seNG69WWg7FYmwOzZiJ50nHSMtWrWXlmjVSAkcgjhrxtpY4chhKNlxCOJJ87d+sOV77o9yz8Hen3zyDjnJU+tMUv7+lSpaUt94a6j+znjeGvSVvjxip8OFoCzdKQ3/0Y78TPviV7q4oN91k3G7ORH+locDxgzfFbjAuNF7LtI3mYvofpH8uIl5+9XX4RH+CdoXgBwrpLXvCowSXLTOLEUbahRDTFkGhysRTQdCnFg89jCMlV8vtt98OPL7FrEIXj7LlKuIuSTriTUSzBw0eqcBXowUe/8qVLS1D4Dsdjf8GDBhfpWFuAAAvlklEQVQE2hinXRo1HG5P2FRrA+GriPgH+Y8K/A8//qSuJkuX0uLPoC3TO17UAg8fePqI6yk0wBUDf9j/SPlDFxqjwBt67oIPJGGWMgXwYwNLUoEvU76iplWsVFFee5kuYuHw+WXX2nDJYeCpPl1ZH0I0+OZLrHM1fdmShVDgsf+CGVOAf/LkSbntjlJaGfmvS6cO0qQx/Pe1dq0GF+M21uzBlsqjd5YoISOwp8HCf+qp9vL5IuAOETOmfYajNq+yBbUnPK1IjwhF+gL4wOspNForoJyO/4K1sHID0G+aeSSunPx385+Rvz7JeDfKSSSUFOjf0R+Q8w/KX4f/8xf/UVxoPK5Soc17slfyYASziben0Pi5mIigEyeEOlccas3ROMh2FfSoF/nMgkBZWEExicEQDe8MfC+HPrMua9UKxTOvFxx8RQSxXgofcqKFlx8gGgOLreLrT+B/OxSUmp6CQgW+s2eBj8Q/FXjr+rFk0QKcc07rYow89PAj8vWKlVLi9ttk5Egonhh4no1dqlwFpMZA8XxKFU827dHH2siy5V/o0Net+x/JhXO3Q3AMLdnxt0N+Zc4rsQn0HvNoaQgvlyZM+lhGjnpXz2D3opGHd6gRPw09ZYvykVEp0R/fZNBybi3fFn6oXQa0XlEv/Y3btHlSln2JfqBi0myJO0rI1Tj//fKsl+OZmxRF3sU54Fxg8YEnulj4Y8fBhQbuKiy7ZNF8nOOekdml9cP/xR6ClVIceHwHCyHCP4I9A6V5SgoydOwABR6bPhlo8a9WsxbuYvAGopq+odD2Roz/4MFD1H+blb2MzcBV8HXP84n/jA88jpHEW4plSxajmcn5n5tYfReayThGUnuNDqGv0eTPNu7pCFuQQuE22bVssP9ciHEPB/FfDSc2DezfN5n82Ypz4mvXuVfraNTAvqGKDr8jXWjwISdWuHQpFfhY1IyHFOCzQZb+eD/6Pez3uPkmZtf/bBeDXRCzKlrpF8yDNR79p8/7g1TskadKpbuldeuWuENpRFj52/rhh/Wcf8YNf3uYZIrNKLEZM0jevPlYdQBOOP+xDaw3LHgRzJkS/hVwAP6Z+h+C4+BHo3+H/wAGHP0pMhz/XQTyx7rQ6IiT8CkpAyE8ynuykd5vpAKvH+nAzMBkLqqtsuNPA5w1dLWNHFaZIExbL+/RENZjHHw0AhdOxXiZYxcXYfltHpTkpO3gKzrLhrnQwHWFsX8C/8ZieY/ivyE3/emxe6gugl7U9QNnhRP/ixfheMaMmXT8H4LiuWLFKliOi8uo4cN1/KnAl+aGS+RVyzEVT9TX+8U+OFUFn7nHOHJTZelSJb3B/XPj/weU6V9+/gV+8T/g5JWvZOZMKDYB+uuPY/6qV4OLQhg9hdOfeZNxFAuhG3AKzfum32H5w+nv6xWrpdVDjyiYHPBFHjX8LcmXL38y/FesjM2X+w9q4bU8U93Dpx7ZCDyS/q0CzwY+9PBjOFt/hVrJaS1nfh6rqQo8aiEeH3ywseJ/B46RrAnfePJfGXz8503gUjsZMf48GnIsFl7s/zvvjJDbit+KfOH9RwTCn8P//5f/G2ET67offoSiexnOgV8Slf9Lg875JVFa4Kd8OvGM/L9tByzw8IGn/GnUoIG6hKU0/iF3rCSpXrWa9O/Xx4xTYPxVgb8HCjwCT2nqwlOacB9N/nXqBBeaebDAQ44tW7oAbxaowCME6ovEf12452zEx7co/z77ZKKedx+e31Rx8623+/JvNU4ISo2V6VIshh97/AlkIHEBSMT46zOLe0mGBGOkfPkyMvj117QUk5nByV83/7j5F4zisVKAOQyL4Or0D6d//V36Z8gCbycP++uTY/IbkyWU0Vfg7fwAqiYRa9CfUN5QpJkmOCWoqs8s4bOd8oZJ59Th1YdspjZcMTnxdAI/zcE3k3AA/7r5Egre9fD9tqfQWAxyLM4W//zoi3U54LnZ3XhOdRT8qwsNfLdp0abimRGWPEJp/fCjUOBXQoGnCw1dP2CBx/napcpUVFrpaF1ooO2N/vBDefllKA6oo3fv3nJP7ZqhMdbaWPrPj//vvx/Ss+qnz5ipil61qpVgVe13WvorVZZvMowF3rzJOD38ITgLfBR8+dnM114dJBUrVEDLbUAkenD8+HEpcWdZ7T/zrV0LBd7TdonHfrDAc5PXskWfwxpKPBoLvHmTgYXQyOFK/4f9c8qNAt8U/s/kP7rQVK9eG6WSoNjieEVs7jTBwOc9x799+6dl/vyF2v9pn2Ljcd7cms2wE/mT+XBcLD4AtH/fftyF8J8XZ4+fa/6j9XgtThViWAOllIQRHP94fIm2ZKmymk4F/tNPzOJPI9hYr8X67EVyEyvpmYLWHIvqudCEVhtev/mm6DAWmhW0JC3w/WGBD8Jn/4MKvPIHF7gMUeB3gnLPTawM9OmPjcWeDOY7jfx7tM0TcLFarmXee3eU3HrLTQYPAflHV5+ycPVhVVdeeYXMnjld6+U+i0cfb6tlzYU5OKpIRnmV1ZHw8Vwex1EOGQy3K+YzHTFlcI3svyaYjMjp1clI1qsXA49PweezlT8OviIygD08R5G/RLXDv6M/p395/KI/vFyo8keX0yoXvIvtrIcAT3yrlcYT0BYXNmfCiZOQGvbJ/Jop1tZh66fY55m3yK4TpVfG1qtoZo5ABO+5GMAHWUw0fnGigkZpfi/dwVds2MnR4p8b13ZjA1tOWIFnz5zxp/G/bQsUHpxCQzpoBAsjvxRpdJ1w/JvTU+gjDAV+IRT4TCHFkwr8bVDg3x35to7/0XhY4MtW0HFVBR5H35FCFi5aIm3bPaV1lC1TRt544/W/fPyPwJ+9NJRyAi+K/QHjxtiNidHpr2pVnNKxB3i8AnicPf2M9PfiS31lAj/eg8DNo9dgEylhBel/xqyZOL7wWY+uocCvhguN5gieQkMXGuwliM2k+Vo/hDcZOLqRewlGqAsNFEziEacNMYO6IlGBx78dOOWnek0q8CZM/ewTKOf42A+GzPJfQsIxKVkGePBYdcWXS83RgjYC9Vj+0xOGeERogP++Wb3SpJ9D/lOFly4naArdQrJkyxKG/9X4mFGLlq3RyRgsVPJioQIFHv+I6/AQwv/WLTxVCRZ45Av6rFv8+whB+hEo8GXKVlT4/FjXgIFQ4CmStLTBz9YtW6T2PfUQA4s+NsV2g5tMSvB79eqNfRGfor4k+KNPkatywx/da2o0+Mw3IW6SvIg3ReS/Dh3bSXOcuBSET/m7avVa3WvChpbWNy5DtPsnTpyQb7/7Tu+V/ogbwmMncM+/tm2f0gUq4b+G7zRkhPtMRiwarylyjcnn5K/iSefBAP2TzhSP55D+tX6Hf4d/kJqjPyDB8Z8RCSrC9bOMniBHREoheg4Tm2CPkbSWMURjnoGSAEXbi0tUawFrZwKmET6TIJkHA5KEDzUgIcSkOqMxA2GYK59CQQvj0ebBrweLRRx84AC4feiRR+EzvQLrnxiZ/hmsq/iS5J/Bf9gmPT2FhptYjQrhjw5gxNF3W09PwSZWfNExk25iTZKWbMfXtMBj8yXcSTj+8VQ8S9+l49+hfQfhJ+05nCdP/IFPvdeXzZu3AkaSDB38GnyQYakODb437olyAovHxXCruKt8eZy3jo8k6eCLHDr8u+yDtbhQwYIaF0l/P/z0szRsDJcd4KhMWX498w2FpUBIPEp39lekled7ziZMm+LhMUr/Lfx33h8tr2IDK+mf54bXu/8+oy8RAOj/EKyljZs2k21btvn0v3Y1rcsEbRV4LoRw1OCi+WqBZxJ94M2bDG5ifRMx5k2GLoRw36kD9hLAFYld2LFjp9SoyWM64YqGdjRW32yMW4D/4mDp74u3D+S/alUry4ABRkkkXK8x+DVPesY/xtYEtiYRiw4o8DYvYNj+/5X8N+jlV/BW5iPUjTPYn+su99Wjomzg84NbT2KD5uLFSzWuQAEo8PCBPxP8rdiUXZsLUpRv3JguL11NP1gtC9s+4ZcuNLTAM5YW+AGwwFv4Fkdbt25TBZ795ylNXWCBT0n+DR8+Qoa+if0LqLBPrxfgO19D8a8wo8AHMDl46JBUqFCJt/gibXqZOX2a7i+x8Kk/8mNSC+Yv0DytH2olTzz+mNKfHX/V19mLwPhb+VulWm0s9HdrdQtwjGSWzFgwao9JByFs6INe2NDk/H8uxp/gLDUqaL04+A7/jv5CPAp+OEfy1/Hf+St/9BSaMOHoP/g3IZmZwl08lChODvZ1LCcTtfJ5E4C6uSADRS5rZQjeh0HCAyc2Y71irkBeTbA12HhMGawb0Q4+F0VcDIXw/zo+MPPuO6MVRwXy5YOl8kE9geKSNGl1LIoVKyqXpkun46HI9vC/cdMmPabR4n8LXGg64tU/C1GJadmyhb7x56gS/zlz5JAs+GhR3PhxOGsaXxDF0KkLDax4HP9WjzyiCvxtOOGEp9BwZO3mS1QpnXh6Cj8+48Ff/uWX8t9H22iTmLdp08ZwB6mmC5CEhATZAuV+5coV8iFOTzkSf1Q+nz0LZ5xn9/u/ZPFieaJde3XZqVf3Xrn22iKSG5+M37Zjh6xctUo+/HAMPoazXet/pns3qf/AfXpv4UfS32vc6Pne+9o+umm0aN4cZ7PnkjRpLtH+X18UeMT56Rb/K7Bo4uKJITZ9BnmweVO5u2IF3Vy4Dr74L77UR7+syXT2n32kBd7CN189pQIPN4tFRoEnUlvDr966InETK/F/BAshfmiK9E8FvikUePJf6Bz4EI/whJp69e6VdJdcol8Q7TdgoA8/buwYue7aa3XsIvvPNhoLvFXgTZvXQIE/1/y3ZPESafMk3sigT/zo0TPdusqtt96CYyP3Y0w+kHlQOC3/5y+QRz/kFCl/Nm7eJMfhAsR+MGwDPXfoxEWoSFXQc2vQswaP/nJckR1jlU2jzF6NCgpfLfCqwJv+W/rftmUrXHKwsIhJVJ/67lTgdVRxxbgojlAb4S9Gf9qiP7ynMt66dWu5Fl/PTZ/OnL+fL18eyZ4jO1JJFRYOTp/phuM+Z87WOH7V91kcvVq4cBHZf3C/vP/eaHxZeI7CzwB640kzl1+eBXmTww/WyXu2o5r3po4P/DpsZl+BD8E3hMHcJrB1tv8W/5b+I/Ef7D9Lm7KmHtZoeoobPDj5TzSEsOLjys1/QIyjP8M1lodCst3pP8n1H5VQEfKX+PN5yoicf638CR0j6VGFERsh4cHosDgyEAVJIKgPPKJUiCPeR47ehOrSO1yAT83j57N1oV569OCKDLDIewWUMGHtUfuewkcagPnVszzrZN0OvsGLh5PfDh6Umjhtg/7bHjrD8D9gQD+pWqUycwOBIfzffOsdXhymEg4Y8J8KNZsNTMnx361bZ2lUv76MjfPOL0eJJYvpAx/LitVyrL7bcP0YCRca1sgvrpaC4skHc/xh07Dxf+ed9+T1IUPOCv48fAQpBz6GZMd/4aLF0haWWRRW+LhE7f/Nt9wsw98aBuX70rD+R9Lfb78dwId//gNr7FHkS97/gQP7SbXKlX34hNq5K87lnkWFi71NDr90yTtl1569smHDBk1fuwbKsEf/3MTaF5tLSdSL4YqUKWMsasFCiAr8ShwjWaK4nkLD7ukmVhxzCWbG2d9P61c4CX/nbvrA18JdjCqKPEVHeQTNYYv436JHzw3HCTYWfmT/YzD+cWiTfggo0P813HjLwDoBlHC1Xi/OB4BnTWMe5g3mY16GAP0F4Z86lSR1YXXfikVbNPrj25cVaEc8xiYffP2nwNefsIId5ObOqPA1kpkRAvC74cNODbG5lZ06zONOgV/SP3llAE7qYbz2UwEJFoNb8WXXuoCBNx20wMPFLJSBOUP9x4GKuhDjcaAW/5rBg88vHXftijcCXoOt/Pv90GF1LVuz9ttk8AmL40/4vV7oiS/B1kkRfjT8q6sdaJH4XbRgrlH+I+A7+Zuy/DP494bMG+uUxj8a/oPj7+Y/EJ6b/5Pxv+M/x3+R81+EAq8SW2WJmTx4G4iLeOLkgzlH4o//oZOHZ5I15f0rJy/vVZdOMqzRu2EeVu8FCi4zLSLCA2vjWAvdLjSHBxeHiyh8luHk5eB7ePPwaX5ioIAcwldRZ8j4iRNlIz44owo53JYYuHnTKvAW14y/+ZbbVQHw43Q8/CfFexD/3bGplUcyhh0jqT7wfBWfaDaxrjS+2yNHDEfdSUbxpAKPoKenwIUmcvx/+eVn6dW7r3zzDZWW5PBLl7oTX6msJHXr1JG0l6b16WkLfJLffGs4/OkXA84RQCDNKVjtf4aMl8GK/qA0adQIym0GbUOodjxqf1nE0CTp73e4vUyZOl192zdu3ICjIpGOBLZ5EKyyVathIWTQqvVx0TR8xCh57/338BwOv2atatKzx7PS5ol2alFngW/gQmP7r3jEJlbCX7wIx3HiTQbpnwo8j5EsgTcZI942bhh8k0ELPOnf7iVgfTvx0ajqcKEh/ul2cueddwj9r48cSUBer6H46Q5LLj/+ZPvKstoPbXKo/3ETPpYX+/RjT/zx/wZHX/4d/LcbHxlq37GTfPf992Hw6fbTC24o999fH29XtutXd/mF2lBgaxPl5ltLmCFAf4P0r/30Mgf7zz0e3IzKuMNYGJQpW0E7XRXweIwkxz04/vxAV7VaWCyh/mZ4W9Sxw9N+rYQfNv6o9Y9TJ2X+goXyEd4g/fTTT7rAtvD1Q2k8Rz4C/xz/BGzY7fNSP9Dh1DD4lH/5C+aTl7Dp+8Ybrvdg88f0PxI++U+D90MFfg9caDiWSxebj0tFg+/kLzAEnEWOv5t/gBTInyA/GQI7O/pjXkv/Wo50GYX+Hf05+nP8F5A/0Og9Ea5so/xHlmPweMg8JLuaVF6PHz+pVrXkzGsKceVIqxMZVFeRiGY56hBq3CVARng/FI58VksFfulHrK3EyIXmHRZgjZ7cCNSBqLDg4P/78c+vrm7eull9xmktp4vDVbmuwtc5Y828kcL48zx2nmG/a+9eOXhgv34050qcK58LH7JJf2m6v4X+DsF/ecOmzXqaCTfBFipUSFKlTn3O6V9PoalhPuR0b7260hP+4/TL/nXDRlj+d0uuHDmlQKECkjpN6n8F/yUmnZIdGEu2n5ujb8DJSmnhCqR6QwrjT0FwIfL/qcRTsmXLNlmPtzeXZ84sBQsWkGw4+z1auBD7T0XOyX83/7n53+k/F6P8t/LPt8AbcRhN/Oua11OVOUsi+JnNTQIs8L4GgJxqcaIWrto58ujkqhfNZxRylrVLdgoio9yzHpsTGRCYwpfXISsWT6TR6hFn6gqW4L01jXrx+mPzoH5dEDj4Dv8XNv3t3LlbqtegC42oBZ4bQJW/HP3DIOD43/H/hc3/bv518z/lvdO/OO1doPpf2IecONNzXmNfQzd8iBpsVnMOPBRtKAbcsKVlbSKeVD1nPHY28fg6Kt+aR7N6Gb1iimh9R4J4rctrjinBgn4IgECcg+/w7+gvyH/qA68W+CSpd2896dHzWcd/Tv44+evmH50vjWLn5l/VMJz+oSqZ079ACP8m/TPkQpNMHQZ/G6q2tnFfc7Y3XhFrgfd5AOm8Z2AddJ+hrYM29FRADuszG7NYgQ1B+FT5uWnVlApTTC0QFCOejY5vIm1SeE0OvsP/xUl/xoWmDpe28gBOnnn2uWcc/zn54+Svm3/c/AvFgVpGKIRrDU7/cPrXv0H/VBcavk2mVdyo1lSDEQL0bG4D10AaMyYcO2kroMaOEFClPcs7ndhtLHMEgyrzSDRMA8bivfWCQUaWTGXUf71ScTcOxKwFD9oercDBJ5J9TBM3iNAz3Rz+iRqSSmS4UOlv5y58yKk6NrFi/O+7lz7wz1xU/TeywdG/43/QgJt//FnhYpF/jv/d/H+h6z++D3wkUxulOBirWrIX4an6XpR+iZUpeA7aztXNlFqTVgZrOjVvVcxNeab4AfnUoq4RUOJRmJZ3U5aRyeHrJlga6W1w8B3+QSfWdnCx09/B3w7JK6++BtZJkuLFi0vde/HlUcd/MBA4+WOW81Zw4tfJXzf/YP7kLEticPOv0z+c/nX+658BBd4oyOaqXBxSmYORmhSIwG0CPtXNF1J0kWFgt3lRIcAU3DPNKuiabjJAYrAk6yPDpIKuYdwdaDhmbCq9wR2fUZGpk88shzivYj45+EAIguIXF4d/o6g5+nP85+QP5YGRqSofKCU0wslfN/9wpnXzr9M/nP71b9M/VYEn+6pQ92+oBiLQhEnth7f4HzUP4nUTKxVxZKDKpDn9snxGoCKOrxSaWmwePMGCjpPtUDcL641m14tfx+nhm7wOvsO/oz/Hf1a2UJZQYvGZP07+OPnr5h83/1qZQH3D6R9O//p365+qwJsJzk54+uRfOP0FSN6PD97E4xx45jEcQcYwVh1v6tQKVBf3KrP1aX7dqIoET1kPpZk7LcIqccP52FiRTJqF4lXr4KtEIrIsZnRQHP4t/XiEYqjHo1dHf4ZvHP+pgAnRhrlz8sfIXSd/DR7c/MNZ2/CGnWXc/KtTrNM/nP7hCUvLGede/wop8B4s/QlxpImNfPbzmoRj/jnw5sQXsreG0GxoKNzWA0NIEhzYUyXhlQ0HncHPixvOFvRtp9WM6fhT67KfxxZARUjwj85DJeaDUUxHCOa39/x18B3+Hf05/nPyx8lfN//oVBmaKzFBuvnX6R9O//pX6J/hCjx1ZfAvdVwN1uxinyN/kZ+ZeYwkFXH6EuragxUwzSremo8PiKJ1WIGgBJ5p0WDQcoAXhI/G4VkpyWQyGU29uGfzWCcvDr7Dv6M/x39O/oALnPzVOcLNP5gZdc7lFOnmX6d/OP3rQtM/jQLvK8JUhk0Ijwo8BW5tXvMhJ6NLM5nBzCE6naoub5+NZPXSbV2ccfRIGVOWV5ukMfreEnlYiXVjNBVqsr0Eo8y9g2+WNqHxcPg3FKr0YYnM0Z/jPyd/rGhQcWpZQx+c/AVuIDEoNNz8Y/BgJlg79RoywdVI19B84+YfmhZD+LAYcvMPMOEjBthw8teShvKSRY1hLDylIH/CLfCam5ew4iY2SpQmIP4YTqGh7c8+q1tLwJnFFrW/zKftYYQXrDwwv54l0Sbi18whJtXm1WRUFIPNsQ4+sYKgSObCJYQTi3f7q9mQnTi1weLU/Dr8m6WfxY6jP8d/lFmGOyyvKHU4+ePkr5t/3Pzr9B8zWTr9A8rC36d/QYFPxMk5VIID+A/pLWaOwtVOWl42oycinuN17MQfuAlog1qKZbj+tiYL9gurUcLyyplsJk6/NcR4dt6ry8Ayx0OasqYdLKd0or9e2x18oiUsOPw7+nP85+SPlZpO/rr5x82/Tv9w+pfRH42y9O/WPwMWeE8l1h+rHrOLwfjAs+m9Xo/hFBpjAbfl+ItgKUV/zQNT1KsdN9Dl8ZFAXKB8858W0B/vnkW8eJ5AaSxg/EwPEkwxZvDAMLNXTn/9BC+DSWcOB19R7vAPknD0ZxjJ8Z8nO/THu6fIcPJHBamTv27+cfMvBYLTP5z+BTow0yYniH9U/wwo8NoW/+JNYf4z5zEq3CRhBhq8rdU+HptYU/E1IjNoIi40qesB71QNzKrXJOIKSzw3shKG7b7e8olVIC3kAGJS+Ao/EXVqKbYFeQx8U7+D7/Dv6M/xn0oLChYnf5z8dfOPzrVu/nX6hzcz+MqU078uDP3TV+CTqdlBDd0Me9g1mN9uYg1loMjgEZGB19dMpOKtEysVddbAmdaQll+fpTQI3xho6LrqR1sYzdw2ML+xnobHm3QH3+Hf0Z/jPyd/rHxVserkr5t/3PxLI7rTP5z+dUHonzF0gfd0aKsbB9RqKMdM9kztIXXbz6o3VOCZ5h/4yNmCTIIIrgM4iRgFnfc2eHFepca2rplD8FEP2qeKOo37xn8vpMyzWaZ+/KJaB9/gQcfT4d/Rn+M/J3+c/MXM4OYfN/9GqjlO/1CacPoXxQP+DD1QO/VQovHnu/7pW+DZ8EDTzWOoK1HSQlHWAm+QQKuX+UATreySiFgqEqyRbi+446JAX3HjB7gzVnbmUG2ceSwyWUqxG5aGB68+k4yrBlPOwXf4d/Snwtnxn5M/Tv66+cfNv56+4PQPp39dWPqnKvBBKzuVY6sO66/q0EaRjkjRnCQIfsjJrGGoPCNGtXJPOacCroo5StNkzj/c+nZ0JlsrOxPVdE/ITADDoSy/2ooLypgW6AsBRiFLKqZrOTKng0+8nQn/a9Z8I81btAYCk+S5Z7vJfffVM285FI/AIYeBF4f/ZPQ36OVXZPqMmZI2TRr5eEKcZM4Y6+hPCcbxX0ry5/jhQ3L8yG9gKfAUeUvFGJzc4M6QPntORKd2/AfcGDnu5I+Tv27+cfOv0z/ORv8yFnhOKNSqITn8W4+H+HOmcAwKPDedMnB+8jVI69PiT1pM9OYv/JpkDhTKqpJuhDiVdq1J22RvTSVeihH2uhKg4kC138EHGs4K/6tWr5EWrVoD/zHSrl07adm8mcP/WdJfjxd6yaeffKb0N3fuDMmRLcdZ0d/qVWtk85YtHCKpVaumpMECwNE/ZcH/xv+k3S1bNkNkpJLadWpImtRpzwr/nnhQ/BtJ8ffJn5VxQ2X5qH4KmxcDnz2n5IqRy3MXlDzFS8ttDdpK7BV5dNF4vsu/33Zslh3ffYHOxEi+4uUkfY5c2j/2yMl/YgGj7OY/Q+weOpRADGb01sk/ogfIcfqP0z/OUv/g3GHYCVfovzHmFHjLWvy1Wew9f0lkYT+M1MDoY8dP4BrKwwQFoheFgxNk4MsOYc/8drFARd07lAlxLI9UTylnNgOUv6G6uanVWN0Zb5uVvHEOPnCTAv5Xr14tLVo/rIrCk1DgW7V40OH/LOmvR6/e8tnkT5WO586ZKdmzZwd1npn+OnTtInNnz9Ocy5YskAyxsYp/R/9GjT1b/u/YpRvwOMfD40JJnyHDWeH/n5Q/K8cOlWXv9cV4kyER1DCBfkeRf5U6DpSiVRuZfNpLLWAFHXj6/JB/30wZLQuHdFeRfU+f0ZK/xN1+G70Wpyh/Ttd/TbN4Oo/7r/MYOmo4/8z8/0/SH8nNwXf6h9O/Ljz9E3OInrVlBJEnh7zZw/9JIdpPpw+8pyv6cfaG8caxxcSofs7cvNFCpna9MgpxvGci0c0JSxeojGWaSfRy4Fnr8KrS2PALkx18gx9ihmhfuXqttGwNFxqEp9q1lZYtmvvj7/B/evr78suv5aefflbc3X9/Pbks/WVawCNDjQ9eLP117txVZs+Zq/hfsmSRxMam94iWBO0tAUjiKGBI3NF/NP7v2MngkTi2CyFPNHh4C2LfoPif5v+vxw2VL94xFvgi5etIoTI10LAkOX70sPy2db18P2OcnEg4orRBGdfwrTmSvVCx81r+fesp8GxvnRc/kAIlKp63+P+nx9/BN3xIznTzP+U7mMbpP4YoVKFz859qAX9i/ocC76nEWkP45Oc/MYunWVBhxl9YMJtYPaK09fAXwTyyBJxcUAfpNjIwVVthXzkGMpg0FEoGX1PCcxrp4BGGSXLwiY5w/K9WF5qHFEFPtXtSLfAO/0DHOaS/Tp06y6x585T+ly1ZKBlgObbB0f/Z83/HLl1lDhZCpGpV4H08AovnKf+vGvcGXGj66BGGZVp1l+INHrdDr7/HDu2X8W3ryO+7tqjALFS+ptR8brimGdo4/+Tft1M+gAW+m7axzksfGAv8eYr/SPkXhnw8OP47e/4Lzf+KtQAqz1/+c+PPsXL614Wof0ZxofF4UpV23nPwkwejGJt4ewqNn4uJCMo4EOrG25O/nrBUQY96EWEEAmHgAT9MYtB1hYLWixGymsJaQydceyU1xb94dVzs8I8ejZcffvpB1q37US5Ld6ncfMvNUqRwYVmzdi184B9WlLd7igp8c2I8Kv5PnUpU3+1f1/8qGzdtliuuyCHXFLlaCl99tVx6ySWBcfGxLyfgUrV16zakxUiOnNlgbc4kWzZvltWAe/DAAbnuumulWLHrJXOmTGc1/rt27ZZffyX8TVjHxUiRqwtLIfQje7ZsUeGzKwx2/A8eOiTfrv1GduzaJQcPHlS42eD6UvS66yRPXvgc21qi0B9x+Pvvv9scXr3Q9dOklityXBEWr4m8AP7u3Xvk6JGjStCk/94vviir16zVLB+OflfSp4cCj3yW/jNlipUcwO25ov9tW7fI8RMnJXXqVFKgYH4FvGmjGZM9e/ZI5syZ5Grg9bZbb8XmSmwYj+B/8tkh4GE96GD9+vXYuH5c8ufLJ1cXLiS5c+fWcdHO8RKBf8v/x1Dm1w0b5JdffpH9+w/KVblyYRwLSaGCBbEnIHVU+tu9e68cOQLrtFdtrxdfkrXAI62aY0a/JxnSp7fgCFkyZcwoOXLk0Hs7/hY+mxUfHy+79+42iPfwX6hAQaTgIcr4ayRSLXze/a/yZ4VngSf80q2hwDd8LAw+a9y4fJZMe76VNiNj9lzSfMxXHmhCDod/6kSC7Nv8kxzY+JMkHNwnGXPmlqz5r5Usea8GXabROkwZ06Fg/1lbYtIf8tu2TSj/o/yGRcNlGbNI1gLXSraC18gl6WJZNNn4nzhySI7sB968/n83Y6ysnTRC81Z4sq9cdeOdeq8XdDRVmrSSJXchZHfyPxL/SWRyMr73czr54xEBsG6H9X+nPwff4Iz8p3h0+Hf0d6Hwn3WhsYJXKVwfzMUSfdiTjfR+IxV4/UgTEMRkGjVDrxA9MUTkMUGVBOTiM4OtVx/AdGA04+CjEZpBP1BklYuw/DYPmJSTxkUOf8nS5fJYmyeT4b9o0Wvl0Uf+K+2eflrx/9RTcKFp3twgLwyfMVD8vxf6HG/ftt0bGk4FRrnLnTe3DOzfT64vVjSEeO9u1uxZ0rnLM1qmd88eMnf+Alm0aBFSw8e/T+8XpFbtGimO//HjCdJvwMsyadLkZPBZ1aP/fUQeebg1lFIof4Fgx/9UYqKMGD5Shr093CPrcPikv0KFC0IRfB8KNVxaIvrPesaMjZP+/QdGhT9/3mzJmjVrALK5Zbnuz/aUKVOnJ8O/AolC/40a1peunTvb+RoV/bX0X++++rJhw0ZY/i+TZYsXS7+BA2Qs+mas1iH+KwiF+pOJ45PBjxs/Qfr07YdWBZR7D18VK9wlvV7oKZmwIGOw+Gey5f9Vq1ZJx07d5MCB/Wa8A/yfP19+eWXQQCwGCifrf7dne8g04NGACtGfDmjYeCloIR67de2UIv+Pi4uTvn0HhsmftatWmsJh9f11+A+50MRIqdbd5Lb6bcLgU/79vmurjG5WyheFj01ZL2nTpUsm/3Z++7VM7/WIxB/ap6TEF5M2XJ6nkNToMUKyQxFPSf79vmebzH7xcdn10yqUR4dBqxZoWijvVbq8Bhef6qgyvP/rZo2TeS93wHia8VeRzeIB+LYdHP/MuQtLk3cW+eNvsvHqwQuMv4Ufjf+c/A+wBBAUjf8s3u1vNP5z+Cd2HP05/ruw5E/IAo9+WfrWXysNovyarLaAwBp30uSy/IEKKEQ06E8obyjSiBRrHVDhbWd7k+Q1B3WhkLHfB0ujTswe5pPAHiwHX/lzxqw50rWbeb2teMWFLhu0JgcxyHueQtOqBU6hIQoD+B8//mNV2LjJUudaZKCyegAWdDOaBv9vvP66lC1XxlTr4X/6zNnSrXt3E6dDY0qYCF5Dz506dZSmjRsmg58Qn4CjLlvJj7+s9+FnyJBe+2BK44rxL1OytAwd+ppajT1CQe2G/gYPeUNGjXrXh8fy3HS6b99e1JOgzaGis2TRPFhuoXwG+s9EduejceM9BZ5QTbDw586dJVfgFBqfNgP091KfPjLh44mmX4H+BmvgvX6cDLzSqAEU+G5Q4EOrXa87fw3933tfAyjwG0AH6XXfw0t9+mtTLHxtotf/tWtWaJrpDt4e9H5JPp40SeN4Yf9jsRA4ijGKwTnjtCjmzHmFjPngfbV+W/xrAWSeOnWaPPNcT300F9JSNkNLwL/KCuQbPmKY3Hn7HQbxyEj4vV7qJxOBRx/HiCN8NQ+Q/z34iNJABb5Lly4pyp9xGM++/dl31m7w/82ar02lUcbfyCcmE6oJYfDRfj8tMP5B+bdy3BBZ/o7Bd2m60NACb+HjlzXs+/UHGfd4FX/828zcDJpOjZTQ+P84d6LMGdBOG2H7nz5zDjn6216vNtO+//SPk7zFPZ7UZpsW79vwg0x86l45eeywDz8dyh87tDes/6Vad5XbGj6hdVr4Py/4RGb2wcLDCxY+5S9PADPYNImEliVvIWkKBR5JCAa+SQ1/NvUjnVnOEf4dfId/y2+GBkP4cPRn5I/jv3+r/LE+8IaycbXEzV8GOyvh17u10trmTMCrebXmBDIYsrB1mJpYASc7HH+Ms99ZtVeDrVehMUcggvfMh4naROMXJ9polOb30mlN8ssRuoGFyEC48OGfOHFcqtWoo8oRO96i+YNqpaaFef36DWp537EdFnUP/0/xGMmWD5phR35iaAvcX2rfU9fDW4y0afNfadKoiSp/xxKOyzicf/7aq4NV18wGpX76tE/hopNOS7OiGVDgu3Z7xisvWm7YG0PlphtvhBvHcZk4caIMHPiqGVdAXLzoc6NAe/A5/h+OGSMDB72iMVmzZpFXBg6EC9BNkngqSZYsXwol9GlP141BWwYKrcDB8U9IOCYlS5f12/DG0MFSulQpfNQFCxKQzB64ZsyYNVPisFAZP36sZLgMFnitIZz+ToC2jx2Dsg9FBc2C9XaATEc50t9snEJzRXa4a/Ahgv64N/xU4ikffpeu3WXuvM+BHZElCz43Fn+WY6X4S4WvndF1xVAoIjQnizMd+f6f9H+vWuA3aK2W/9q1ayMlS5aUXLmulN279shCvCV58823ZM1qWqTZNpHv1/0gjZtwgWfa+UKPHlKjVjW5NO0l8hNcaTphU+lmHOvI/jdt2kQ6dWiPUiH+S0hIkEpVqvmLx4YNH5AnHntMMmLBtHf/XiwSB8jn8+cruGuKFJHx4z7EGPGNioGfCDwmJgGPXv+7dAEe53+uKFkAPMZiYRrEP89Wp+KbEv+PjRtnFmQB+aMLFgPunOB/JVxolnubWEvBheb2ho/7/GfGV+Sr0a/IVx+Q3pMkR5GbpMEb03HPYMb/JBZL7zQsLifj4ZYF+XfzPS2lRPOOki72cjl6cLcsHNxdfl0KukR5boBt+OZsFEXZQJjWo6Vs+GKO0n/Oa4tL1W5DJFOu/FDoj8jaye/KF+9ykUFExEjLsSskQ7acem/pL/EUvvdBOgD8ddM+lPlDn0XOGKn94rs4SvIuk9crT1e3mIg3Y6zXyX83/1n5o3QFmuCfko1SULj81cS/QP6har92Bx/oDsg/h3+QxjmU/0p6ejkH8g+KhtGGdRRDoCLvjFiPHptgj5Gk0CYm+AempBKjghwRiUxTJDEBTMpnMi7zYELguc5aUJlZL3i2v5oS0UItHMiDZwdfPvv0M+nR8wXFf4Xy5eX1117RMbH437Fjp9SoWcfH/1Nt20qrVs3C8N/2yQ5weVmouH3umW7C01Yix3/kqHdlyNChmqc93HBa0A3Hw/+MGbOkS3e40HjjP/q9UXIT/O+D4z/g5VdlzEcf6fi3b8/yLVAXoGAYE7BIqFS5imclT5K4sWPkWvjNc8RtmL9gkTzV3iiL9MmPG/eRpILCYOlv7XffQqFsofR3f7268mwPKBvsBGv5f9BfT5wD/wnOgWc9c+dMlxxU4C12TkN/HeCKNGe22Xy5dLF3jCQ79DfR/3/ubyAbf93g938scFqs2HXJ4B85egRKcUa/T0+2a6+KPVHXrXMnadSoAe4YtPGyd+8+qVzVuFwwbt5s4AQ+6Jb/x3w0VgYNeln5v1LFivLqy4PC8H/q5B/SFIvMdet4sk8SFmODsBirqPcGhg6axbB08k7zYdqyJfOxOKTPNvOgPafBv6X/cXETsAjr79M/8f/N2q/D6F8bb+vUXx8C4Nhg+h9qY8rwV8ECvxTKMemvdOtnpHj9x3z4xw4dlB9mjZGlI/qhYmRANTWeGyGFy9bAM2GY/q+eNFKWvvU8nkVPsanZcyTudBbGL+TrqVMy4cl7ZN8v3zCL1HhhlBQsWVXpnzyxa/03MuHxWkiJkcsyZ5NmHyyXS7hoDdDfEtS/ZvII4CJGbq33kJR99HnkN/B5ZWtsMJtYu+IxRuq85B0jeRb411r+H/xn4ZvWhPqvzw4+RgMjxT8MlpW/jLP07/BPxDj9w+lfF4b++X8AAAD//yPclE8AAEAASURBVOxdBaBWxfKfewmlVFKUUFCs955gK/oMFFBEKUlpsADprouIdEmoGKRISzcIkhZloNiCWIAo0nHv//eb3T3f+b4bXN5ffPjYhfudPRszu7Mzs3P2zO6JS2IQkTj8aQhugojLSfV68OgxiUPxpKQ4iUOEAOMBMEmh4hfpSUgnDkJlCMejMOEmTutGUoOymuEgOBgWNpI9/jhp16G9LFmyXGk4csQwueP2ksno37JVG1m58m0di5Ytmkv9+nWD8d+1a7eULnM/8pKkaNHL5M3pUzCWoLEOGgfG0P/wkSNy6623Iz1O7rjzdhn5/NCA/gsWLpZOnbvoOBctWlRmTZ+WbPy//OJLqVKthpYpXqK4jB/zmsaJaMuHH0rd+g1wHyclbF4s/hMnTki5Bx+Sn37epbCXLlwg+fJdGPDf1k+3Sq1H65o2FLlMZr45JYrnAp5CCcLmvQbcpMV/CT2ekVmz5mjR5UsXSZ48eU3fUC8t/mvboYMsXbIMZUXWrXlbsmfLZmgKSKeC39GfDTB9SB//V3ykqnzz1deKv07tWtKuTeuT4j9xIlGuv/GWgG5rVq+QHNlzaN/D+LsmJMjcOfO0//36PSf3lykTyP9TTZvJ+rXvKI1efelFuemWm7R+mP6z5syVhIRnNL1qlSrSrWsntC1ClaAsBqZduw6yZOkyLbsedMyaLXu66O/0z5x586RP3/5Bnwho7ZpV6R7//4T+GyaNlPVj+qiOzJg1u2Q851zFd+zIYTl2aH+opyJ3Ne0l1z5cT8fJcSX7P7vzo7J9w9vKLBX7T5GCJW63fYiM/9bF02T5oJYoEyfXPlRH7mreFzWN/t0wFW14tbfCvblOa7kFf6Qwg6P0bzu/kdfr/1v5P8dFhaTuuPWaH6a/6/+Hc8bL6hGdCV3K9x4vl954j46/1/9+/vPzv7d/vP2nmle16+m0f+Os/a6Kmj9GmTuVbpKj0iidtHBC4dCRYzrXqBGP9IjCx40afKa8wsEPjRimBOUcLBqKKI9fZMbbxlAh4sFAEvFn8jXPPRAQKANhEraJ6pVpZxv+6rVqy2effqb9X79ulWTNksVSJCCnTJo6Rfr2HaDkaQEDvgEMeA2g/6ZNm6V+g4a4Bf0RypUrq/RPSjyO8ob+SnLQdsmSpUrebNmyyrq1MIIs/RcuWiwdO8GAR5n6detIq5YtFJaODctwrJBy+x13yv79ByVX7lyyYvkSJBr4SxYvkfYdzQNAs2ZPSeNGjVA++fj3eOZZmTlztsKeMGGMFP/nv4Lx/2P/frn9zruD8S/3wP1SqVJF+dc//iHnZs2i+NkG7YtCwE86+K87DfjZ81A2SZbBgM+bO4+pzT7Z/gdwNaK9lnbtO8piGJ4ss3btShjw2bUNp4pfH7cpGwAUgGcLToK/UpVq8tXXXyv+adMmyxXFLj8p/p9//kXK3P+Ajv8tN98gr456CXG0OAb//PkLpHO37oCdJC1atJCG4CftF9r0YPmH5fvvf1AabfjgXckYnyEYf20/cn744Qd54MGHATdObrvtVnlp5DCDg0DQz7D8t6UBv+wtTeeDULas2RT2yfrPQhZcMvwGAH7TMf4p9V/rp0H/DZNhPI/uG8LPseM/AVcDLf6yXJBHqgydJedffCnuLY1D/Z9Q71b548cdSv8mi7ZLfMYMWk/VKxsAIH/8tEPG1bmNd1L4xrvk4T4TA/5fObyzfDR3vI5/pSHTpcA/bzX1tbT9Qf/H1LxRDuzmeMVL00XfSVyG+Cj6u/5/OHecrIIBz6Y+9NwEueTmexS2Nhm1eY00kD3879HfNMTjt+z0l/O/p7/nfy//p0f/xBjwTv06bRuQnRENoRJQ7BBN8ObBIzDueEObjwWiApnXTlOIGiPHRlguVJ4TlzFLbDqL2TRCSeIEyxIWbyLAEr9Ohx6/0r/k7XfKgQMHSVnZsukD/JJy0fSnAdS2fXsWkZbNIwY8qTsLK6nduRrKcUFVR39zH9wp3cP03/jeesmYOaPWCwx4gGjTupXUrVPLAYsa/4crVpbvvt2OPJH3310n52TOpGM5dtx4GTKERpzIMwndpGLFCtqL2PEfMXKUvPzKK1pnYL8+UqbsfabdClFk5MiX5OVXubIf3f+rrrpabrn1Jrn33nvkWhj9LkR6h5SY/pOKxE8DfjZW4Ml3SxYvknx58yj+k/F/u/adYHhaA371KsmWI6tB+xfxf6Uq1eXrb4wBv3bNasmWnQ92CGng//Djj6Ru3frav/IPlpPnnnsW8eTyt/7d9+TJJ5oo/1WvWlU6d+qgoBPBINfdcAviiZIrV25Z8daSqPHXQsB/+PBhueW2O5TXChQsKPPn4qEsFfrTgF/KByHQf80qvMnIzjcZMIbPYPnfMHkYDPh+ys8XXlFc8hW7Drx0Qn7a+oHs/upTJQN/Lv7HjfJw30lYocfYhPpPOo4se4nS99zz80jjqZuTyR/7f/zYIXmxfDGVlfMuKowV9HWASs5NlLld6sp3H6xQ+j86epVcUKgoUSYb/+mtKsuPn7yv6Q0mb5DsufMZ+rIoiO7G/2M8DKwY1lnbUf6517ECf7fX/37+i+InspfjP72CFf38TxJZQpA8lHMb0jP/OPmj/oNaUPk70/Vf7Pzr+/8njj9WVEIsZPgJ4DXYOcTexV5MLn+PYAWeq6phZgyX5lpTorKtspoWY714/Gi9UF2Fau91pRYJcZw4NAP1eUUgI1Mp8Ff1ZggG88PhbMGfCJeH666/mWQRXRWHawBDbP/XrX9HnmjSTOnfoiUM+AZ1g7F7bcxYGTZ8hN7fdPNNcuP113EATL7RvgpTFYmlP0n/2GONJANWVxnCBnxC9y5SpVLlFMe/Vs3asvWzz7S9y5ZgNTsPjWEB/uEyevQ4jQ8a0E/KlL4vxfGfMOENGTB4CLsrnTt3EBqP4UDDZ/qMGfLaa2PkR6wmk1tIC+JQvsFPjZrVpEOHdprOukxndxlJif8SevRUA579X7Z0MVxo8qSL/9q0p+G5VPGsVdePbH8p/1eoAhear79S1x26jLj+pyV/q9askaefhksGWl2zRlXp2LF9ivK39RO4K9XBqjuAlr3vPhkwgK4bWBH+4w+4V92jfS50SSGZO2uGxok7Fn/xEjdqYtbsWeFyA75FgZTo365dRzXgSf916EdWuCKd6fK/cfIIWYsVeHLe7Y26yHXVmwT937drp8zvXl92fw1DHn3+V8UGclezZ6P6f2T/H/JK5WswDEmSs0BRqQ0DPDX9N6J0QZWnTFmyyxOzIVsI5PlJTe+X3V98qPH6kzdK1lz5UuS/ud3qyXfvLVf81UctlbxFrk5R/27hCvzwLtqPCliBL4wVeL1RjNE/sfonpfF3dZmXlvx5/W9om9r4R1Pe3Hn6e/vD21+c+5PP/2nNfynNP2ea/sHCjTHgVXGmJP3odKTbtGwQgsImcggr8BHtzTLu0dBaQnqxcUJTg5x1derFlaQ1WAjHlUQGAnPikRZZRZVEqCQUSkKagRWuwfjZi/+ee8vKr7/u1llwy8YNSj9DUEejJFkM15f2HTohL15atngaLjT1lMpU9AsXLZJOcH/h6DRu1FCehgvLqdJ/4aKF0rFzVwxQnLRo3kwaNqyncY4Y/9z4P1zxEfnuu++QFicfvL9eMmXMpPkTJ74h/QcORlzUH7pKlUdSHP/naejjgYMuFoMH9Zd7S92DGsnHPzEpUT7f9qV8svUTee+997T/hu0N//Xr20fKli2NmoZG5lfR4yea/xJ69pRZb85V/lu6FH73eeEDr1qAfWNIjp9J7dphBR4GPOGtV8OTK/B/Hf9XqowVeBjw2bJlgYG8Gm1me9PGv/XTT6UmXLI4/g/g7QbpZLoXLX9r1q6XJk2fBjyRWjVrSof2rVEOMg0xLHE9DHOEbDC06fISHn+H/8DBQ3Lb7fC9xr9L1NB/EzhdiKZ/uw4d8ebD7PFYu2YFVuDhA58O+puVgmj+c/jZKWJJz/ijENRLdP9Phn8DDHhdgQeO2xp1khtrNI2i/x8/75SxdbjXgMCTpParK+SCwsUsAdAy9G9k2QLIipNMcL16YuY25b9Y/Ud/+lEVrmYDscJ+mdR+bbXCI9j53RrKN+8s0X7WfnWl5Cx8OfKSj//Up8vJrm1bUE6k4ZRNkjUnH6qT69+P542XlcM7qiyX7/W6XHLT3ajBoATS8Q9ort0yfUtp/E83/Q1ZPX7S3tM/Mv+kxP9KH6USeZkhWv8Y9j41+ff8RzJ6+SMvKX/9mfZvUlIioJK4NhCH3gYRl5Ps6kqoDzwZHQ2jw7421GUqODMJcWcbJ3Ua31pGi9qCtpoONB9z+KewIq1jyXCwNW2Sx0/616/fWDZv3qzkXb3qLTnvvPMwnNH0f/31iTJw8CAdiJbNjQFvlIzIxx99Io/Wraf0r1ihAlxY4NscUDhMfUUR5PHOjT8fAjrShx0Va9aoLp06tDVGVmj8wXdS4gZsaIQh6dwrDH/HyfIVb0nrtm2RFwfXjMelyZOPK+LY8aff9fx5CzTvjYnj5Br4t6eH//7Yt0/69OsrC+CrT/xlSpc2q8ZEQJ5Lg/+6P2NW4Il0KXzg82EF3oRI/wFE/zvikP5tacAvX678z82X2bDSrPlqSBMnoKQDv0WmFxZnNRPSxl+RBvy332BPhF3hJjLFaaGkgH/P7r1S6r4yCp6bice5jcYBRgNi1uw5ws29NIG5OZabZLUvgEk3qe14SKMR+u67a+EmhQ2c2ugI/u3bd8hDFSoDapLc9e+7ZNgwPLylIv9tsZeALjQMfJPBzcAmpN1/NbLBf4cOHpY9e/agSgR/QbjtnE76b5w8XNa9Bhca4L+tQWe5oQbcjUL4ifzd8f3l/defR3KcXH5Xebm/24saZ99Irtcb3il7v/9ayfrU3C/UzcaOHIsgJMneH76VifXv1HiRW0rLg8+O0Rzy36qRCbJlzhjlv0r9JkvB62+3fbZQiATR16qWkEO/cwEgSZot+h5X81hBQCzpAv3p6VfPauoDDwPeyb+WtGBZnvgd/b3+V5KCKiCQ0twSytL/ZPqH9HQhRGIkpY//Pf09/WP1rzKi5z8Vyb+d/LkVeNN6jqIJUAfQL2ZUXczlBVerQdwKfMADKOAgEQZf33CtB7Y75jADmQqdij0SwuqIOVhdt7WiJgaHBBUjc7xJdFnRkM4u/DRq58KoJS369e2NldOyyehft0FjbFbl6/QkrMA7H3hDtd9/3yd33l0KOUm60XLp4vmSFaucgWHsiJwG/WkYcxWf4cIL88nCBfOweTE+avyJ32yWFbkebjpjXnuZELXOJ59g5bd2bR3/Sy4piFNf3gQn2NVCi/8ITsEpVaq07D94UOvxRJi8eXKj1dGcnBr/7T9wSG7Hqi/D1VdfJZPfmICYwc9ravynK/Az52i95XD7yQMfeFOPUmJ1QBQkw389seF2xqzZ6EWSLFgwVy66qIBiUUD6E821qeEPkBAHqvB5Iz34q2AT65dffy05sAK/VlfgTy5/nOyvu+HGwDBbtmSB5M2X13QyhL9Z81ayevVqbdrAgXgTcm8pjbNlzFuFPI7eAOSVue8eUAD0Dcn/hAl8oOQbF7rqVJeOOEkptf736BnZuLxo3hy5qMDFWo+NSov+Tv9MnTJFemMDt9FppLnbK3L66P8+DPh34UJD/XcHVuCv0xX4aPof2f8b3GT+qe3hT/WXlkjeov9ADNoTM+78rvXl23fx4IJOPtDtZbnsjnLJxn/LjJdl9aie6JtI8QoN5M6mz6K44b8PkbcKeeS/f1VoKP/GaTfk8khIkp+3fSjTnn5Qk84vWETqjF6DuMEfK//blr8py/o2V/4r3WG4XHlvJTZNIUZT8uzSv+y777/RSGQkx39O/vz87+2fWP1PPomVmtT0f6BkUONU5r//Vf5TFxouAvKpLGK0R9PTKKTQb1hDodahw8ccAEosSWsBoCAtDKw8caXTpbJEOOhkziKYLCjw2hbMdqZNTKcpr+a//nLgjAMnoRAHLq4wkQSYzj78a9atk6bNeOoLVrixavrayy9jcylcUyz9P/zoY6mNjYku6DGS9epZ8hn6q5H05iykxal//NNPN5cMhuhR9OfLmw0bNkihgoXkwvwX2nGgD/wSnEJDFx0EjP9AuLeUtkYdh4ruGx06dlZXFhbp2rmzVK1aJRj/xMQT8tDDlWXnzp1IS5Lhw4ZhZbYkShouYFOmTJ8qvXtjVRP5N95wg7z2Kh4AlA8IMU727ftN9vz6qxS5pEiK/PfZZ9ukes1HWRgnn9wmL70wAtVPzn/dnsEm1plzlf+M335ui1cZ2LBeCvz38suvyMgXXlJ8z/XqKdwU6sJfwf+VKleFC83XUXsj0oM/AW8c3sSmXRp+9eFqxVNmwvK37fNtUq1aLZW/bFmzyqKF8/DW53yA1pHGG5KF0rl7Am6TlB9fGfWiZM6c2aFWP/nq2Auxc+cPSv8xr72C8bw+eFNnoETk/6VXXpUXsDmZ8t/72Z7y4IMPpIv+jv8nTZmqx0gGDUBkM1zNjPo4+fhTC4X7r8iV71If/w1T6EJj9gWUbNRZrocPfDi48V/7Wi/ZNAUr7wB1+R0PwlAfZakYJ18sny5L+rXQ+4uvuVkqDpwsGTKSjkCO/0cO/CFTmtwv+37azhZK5UHT5OJ/3YI8AIP+/R1HRE6of4eiZXMbvvGBZMuT39yzDHh/Ue+n5Ku35yn+W+q2lZsfbRngj9W/Oz9eLzPbPIJ6SXJN2ZpSqs1AbYeyfgr87+hP3LHB9T898vef0N/PP+RNP/+Syz3/xUofWcPaXOmY/7z8nbr+P536J/CBTzas5HRyfBDCCdbUt0mHcA68BtyH1y6hMywMRvAMxJkPHKBnBUcD13LMZkne8FQFrjy5FHN1DTL4dRMsH61cQOWzHT8tn4qP1JBvYayR/vfcc5c88VhjXSnejPPVE7o/IwcPHgCdDS2DFXjcOvr/+uteKf/Qw3IA7gak++04S55HAxa+5BLJmCGDfL/ze/kYq+STJ02R73Zsl0FYWb0PBjoHj/SfDwO+M/3oOZg6hEnSo0d3ue3WW2X/H/tl0uRJMh0PCAzcbPvWsiVybha4VqA8q7DS/HnzcTRhAuIca5Ee2AzL+seOHZNly9+SocNGmGc4jP9orN7fcP31AX6aYWtWrdbV3xtvukEq4xSbK6+8Si6+OL/sxJGGGzdtkPGvv4HjDXcSGR4gOknValWi8JP/9h86JDu2b1f87BdpNnjIUPWjZ/zlkSPk/Nw5ETMhHm8ZrsTxjMRPtgz6j5qrV6+TZjB+yf/ZcQJMo0aN5YorLg+O+SxUqKDxp1dQfz7/u1NosqkLzdvaF9tscwmNP+nv5G8HxvfBh7m6avpfr05tqVjhIckB16wtm7ZIAoxod+pR06eeAq81jOr/CTyMPVyhEnjmR4BNkpK33iZNnnpMChQoKF9/84306zdQPv/iC+WTm/Ag9uoro9CeCH7HEeYaBzquwbjSkI2THHhgaITN01dcUczQEYxSuFAByZ0XGzQBJUx/p38mT5oqffv1i+q/ntaUSv9j8RtinZr+2TBpOM6Bx8MmcJRUFxruK3FcYyDy9sDun3GM4w3af8pxzZffktxFrtQCiSeOwY3mLtn343bcJ0khnPpya+02kqNAYdm7/UtZ/UI3PdGG43RR8ZJSZcC0ZP1/a3Bb2bpwkurfbHkulnta9Ze8l10jB37dJZuxQs9VdYZMWXJI/dfXyzk5ciouTQRc7YDeJMnB3/bIaLjbJIHQ7Mm1WPEvWOIOyYKHN/J/tvNywQ8ffvzaTdZlQVy9/vfzH/ggJf4P63+nf/4M+TMwPP95+fvf0z+QE53moGCNgja/qqUjKjucqFmhBEQPHT0KPc1XpSaozsaPCiFzEGeeE1DNp2bXBNYkPAg1zpdmcyBqunDE1HiuDrGJvACQgcl71kOaBcw7jx8EQdiyZYtuKjx4wBjqpJOSCVfSNDuM5gNwISH9W8IYali/juaE6b8aK/ncMHho/yGQH7U5iPwPAMoyjv64HzSoH1bY7w3ov8ieA89x5SkhB3GsZRg/2+OADR44UO4rdTfuo8f/OAy/1m3by9srVqWJv0b1avC3N6fIhMefbhvNm3MF0fBJavhLFC8hL780Us49J3My/hs7foIMHTwsTfzGSDRYiIPGoPZPaWUmKpLuBAo2avS4bNi4yeQHxGTpJKmFU146dOyotD0d/F8BLjT8kFNWjD030Tr6U9BOJn9jx46Twc8Pi1RRebTyR4YCU1xXogR814dKjhw5kvX/vffelRZt2slBnPmvxVElAsz0P3eunPISVueLXX55mvLPs9MaNH5MNm7EUYqAEkv/mjWqYc9Fews+Qn8dfyDnCnzfvv2j8H+4CccmxvCfqh2k/hn6hz7wa2HAU3Zuwwr8DboCj9arMEXTf8WwTrIV/uXEf9ldD0m5znjboPQW2bF5rSxIaCRHD/2BuqgHeK7/7DBpy/PkK+IoyjyX4fQYZCpnAhb7f+CXH2RmhxryO3zpLYEAQKmotROhfwmwbMfhcgVcYggvrf5/8PoQeWcs99KwpMGPiI7LBQWLwgXn7Sj82l6bH8Z/Mv5z/ff6n2POMQW9nf61jE0uYpSBI8qf2PH39Ad7O/oYAin/e/4jVcBV3v6Cqvl72Z+QcTXHjNBHuJsqQJW5Gm6M4k8VQxBhARN0EysNARRQ5cKSIISpywoInCjiVNvwBn9aWL8JY7bRujosbEMAI6gRirhCrqzHH6Y/3SVatm5rT3kBjSz9Kzz8sFSuVEHqwQ+ew9CqVXOpV68uRiM5/ffCBYWnwSxYuMiNWBT9ryhWTMqUKS2VsMKdBx80cvjVhQYuMkzo3esZ+Wzb5zJ+/MSo8efG1SEDB+DYy+KS2vgnwVh7/Y1JcMEZkgw/V+67de0iD9xf1jBADP9x4+SLo16Rt3FWuK4Qx/AfT0WpX7euPFq7pmTFx4BS6v+YMeOw0j9c4VuOjeq/5bwo/JvVGHS0xFVbzkucHD9xVFasXCVvTJok20CTAzBoaTOx/7VgeHbk2fys4sKfyP81ataRTz/bGjoNhm0EOos/pf5HZFiEZ70nJPSQn3/6JbqNaGvDBvWk6VNNJFOmjABpKRW0nfci3+/4Qbp074oN1h/izpUx+P/97zuxWbqr5MqZKxp2ACOooZHjJ46Djm+DjpNBx23B+JL/atR4BD70HVGOnYumP/XP1Gkz5LneOE1H+d3g37SRD12kB+uwtTYEMKLxR5UJygICQQR9i+DXU2i4iRX4S+IYyeurP4VaWjgZ/X//8dvA1YXtqTvhHTkvfyEHVfb9sF2WDGghP/Gs9nAAfxW5rbSUat0PRny+VPt/7NBBbGjtKp8umWY6ZWx2tCZOcuHkm9Idh0ney60vfjr6z7Pst8waI9++85YcO7wfLTJje0GBIlJ7jD0Fh+2Mkb/U+h9F23TgD0gA+KnRX8t4/Mp/SnfHTWTRdMq/GVWOI/7CMuIGwNPf818q+s/LH+UGxDkN9q8a8IbAlObkkunk1V2dvIavB3EOvKlpYVCYIemso4EDyywLhGVNHn+hQXhnlXUkz8S0iquPq1lFMHkOi5ZRRIipFnc5moi0sxf/rt279Quc52Q+R6664grJYr9CSpqZUTg5/emTTh9lHvl44thxyZPvQsmPzanm3PbAZDHwQP+FC5dgEys/sy7SGx//oZ/ykSNH5dOtn8mRo4flkkKFJP9FF6UbP98A7IQLxvc7dqgLD1158mEzZTxmH2JPa/x5Fjxdfn7+Zbfs3fOrnv5ycf78ctHFF8u5556DNpy8/8pSlrXOdv7bs2sPNsN+peJ60YX5pSBcVuLhVkWJVH46ifzth/sWHy737ftDuOpepEhRMw5e/lV3Gc1GWpqY8rbTX7g6/jt68A/Z+93ncnj/75IlZ27JBXeVjOecqzA4WZxM/544fkz27vhS3WcyoV5OGO/nnmfcwYjzZPg51g5LWvLnQHn9b8aOw2pGlpQh5bz+UTp4+VfZjfCGiaUm/17+vP6h/o0Y8Kpp7U9EI5uE2PugrMk4HJwDb04cIOtpiHBjRGsxDQvxSXBgj4cDZWDmB2URoTCrXrOJuLV2gcp6BDgAISM4IQEd4ok3rKUhgIk7F+fV4z+t9HcuNKR5714w4Mtho6Gnv+Fdz39e/rz+Oa36hyKmwekc3ri4lz8vf17+vPz9j9if0QY8DGVd6TfqzxjStJxTC8Z+Fx4jSUOcqz66KuOUpTO8tRxvCNIa3FhKUlzMQ9B6MNzD+NE43NsVClMsUMSKQuGa2h7/mUP/+YtxjCTPgcf49O4NA/4BGvB+/NPL/63hL/4r3JdOlf9JcMrRXXfdiX0N9ZT++uCrcuLpn176O413qvT3+s/rfz//QQr8/K+6l/Of178ghZ9/Tpv9Ywx4JbCzkM01Oil0F4q6GuZDToFtrclGhlWdkY85d6p5YTjb3gcZyNUjZRxEU4p1NOh7Y9wxAU/PemWc9UMhnGTiHr97le7o4Yim96eJ/gvtJlYOVO/ncNQfVuD/SvxkCYfvv9H//y/+e+4to0dgsg8MSeB/vmXSh1vH/yYr6tf0WaR8+XJ6xKI1p7z8gUqOH/4K/uegOHx/R/5j+51qYFwfvt3KiuM/x2xawPyEk3z/SUM//3j+59JiRB94/WOMNtUPAWFw5+0/xxqqTB1p9CYN+9cY8Eb/hn6jqpv0FJI0A+mHcQoNlZW7V7eWkDOLq+quLKfzARNsMArfMbpTfS7XzSGmlCuruQAUh80BHv+ZQ/8Fi3mMZCcdE/rAlwsMeDO+HDc//oanHYc7nua1ZZu28vtvv6viD/IhK+5YVVPWSlMM/3O14/aSJeXxxvUDmbAlFZ7lEk9/EIJ60QVDU8Of5m0eTY9IMDrUlHJlNTeG/obINNwiOsnT39HVXEk3L/+e/7z8hfQLZQJ/Rrd4+8c8+oboA+JEz3827yzXvzDgE3EMDY1gQxDHRBHShRkrpIBRwE1kh48eRyHWjA5mENySDcpDYhUXikVKmzT91hPT0RC+umYwTTLHY5m6Li3cJtt2j19pFv75b9F/85YPZcabM7GNIU4qVa4gJYoX12b58ff87+WfUun1n9f/TlP7+Y86wc//Rid4+8fbf6di/4ZW4KlSMbXoxcZVx4TTmRDO0wJyGKfQmBVwl8crgpup9GpumKNe7YhwFSbeOolBjZkKerFxVrHpPIHHPIHxMyHIwH9ns7OYx2+oECG6IacjqxIbN6Ssp7/hHc9/Xv68/jGK1OtfP/8km/85pdgJxM+/oISucnr7w9tfEAyjNikgjEJKzK+7C2XYJJP/Z9tfIQNeUQY/Vp0F95RjGjxsBgONZ7dqfxCbWOPpxsICmokfPlLrAd+cGsyqk8nEL1bi1adXE1iH2ExQmIATeQFt01EkETD1xTbbgjIGv4Hv8Xv6e/7z8qfagurE6x+vf/38o3Otn3+9/WFnhsCY8vaXc5H8e9ufgQGfzMwOW+hm2KN+w+XdJtZIAaoMHhEZcp9hJg1vnVhp/BMCZ1rDWgE8x2lQvnGw0PWpF22JJjNB4RhKWvCEGUFsYx6/p7/nPy9/Xv84/apq1etfP//4+VcPwvD2h7e//hfszzi6wFsbOjCDI2Y1jGNmm6VuNZSdfR0URoQGPOsEBz6yEOZOngDJ5wBOIsZAZ9wFm2aRmbV1LRzBQ/schjwNdS7u66o7cgleq2magcd7j9/QRQnk6e/5z8uf1z+qUr3+9fNP7DTv51/lCTUkaKEYetCasEn67OvtD29/ncn2Z7ACHzGDaR67ELAyEsJxm2+T3Aq8EQKuepkPNPEpVxKRSkOCVej2ghgfCvQVNy5qjOsDAm7U2mcZJ0yshRJayMSZR2i80x/e2mDqefye/p7/dHLy8uf1j9e/fv7x86+1F6xl4e0Pb3/xTRSMSLUm/8b2pxrw4VV2YxXTIraWsdrNxnhWozmSY+3nJP2QE8vb82J0tTwgDuGoYU5qIc7/iAbr6Mx2q+zM1KV7i58GP+ryq634QR3TgoDeKB7PfK3n8Xv68+END39kI7KbXvDr+c8SBLTgfy9/VmcYJvH6x66yqcTw1R3YhT9e//r5x8+/3v7w9tcZa3+aFXjaxZzVobSDqNXhvJwsHMYmVm46ZVDd7ywo59PCRJOtZVzUZHOiQIoyCfEbo10haZsMUG66IBDWNTH8qiVCw51mv4HKeGDBefyG7oZgpIwGT39DB89/ZA8wh5c/r3+8/tV5w88/fv7loqG3PzAvePvLGApKCmNEnWn2Z5w5Bd600/y6JvLOmXqc5HEbuZiitsThI0eTZWp3TZ+VDxIxQcTDCFeI9mGBgmIPZQJsAkeuNcoNghTwo5xZdY+UsI8dQRuZ4/GDHJ7+yhNkKc9/Xv68/vH6188/nBxJBWOo+/nXLAB6+8PbX39H+xM2tJ61ZexzI9e0f6NCKslBGfrAW1sxSHMRphvHBpOi9jlLM6KVDHT9ZRLSGFcFgxhPodEFQqYyz2TaEiEjFSmhLM3nD1F4/IYOSg8QSVddPf0NUZSh7CMgWczzn5UjTmxe/rz+8frXzz94QUWt4Odfb3+EjCzaVsEiIeM0MGKCt79Or/1pXGhIdFKf1E4pUINZy4YDFlvMbGJlBso5OLwimFvWgJMLYLBIbGCu2lHO5SVUwOShUjL8mhNd0uN3BDdX0hV/Zo3B09/zn5c/r39CKtNGvf7184+ffyEM3v4I7AanJbz9Rd1w5tqfKbjQ2KHTRjPOIUwejGFo0t0pNEEpZiKo4YgZU/0K8evqJKmhDbhIMA8EyiaKyk2whmgGivs1YAk1csK1rckikeDxKy08/cEdnv8gLUZmvPwZbeb1j1W89qJ6gsrYiIvqDq9/DT0Mx1i+CbSqn3/cW20//yazeYMEP//6+fe02x/OhcZobfxSIkMBaiyUZO9cor3GGvD6kQRY5szmQ60T9kAN0mrXp12UcMY8cTq4jNPoQJ5x8NEE/NAUwcs893ARVd6VQU0abR6/pz9YwvOflz+vf4zmNb9Qml7/+vnHz7+QA29/ePvL6kOaj1H25N/D/oyswLvGu2vEHk4WM0UiBQMD3j6O64ofDXMGvUTKRhLNk4JbHUzB2tQHB5NPMBaeBamPB+qSw5jN8/iV3iej/+YtW6Re/UY6FF07d5GqVSuZcYq2dj39ldfc+qThsQGDBsv8BYskc6YMMmP6VDkv+3me/7z8GbX2N9Q/AwYOkQULF0qmjBllxowpkiNbDmft/y3k/xj2X33x1Veybds2OXjooOTNk1eKFCkqxYoVNWOiYssfM99EEpPPPz/v+kWOHz2uRbNnyy4XXEDZjpZ/1jfQ8OvnH9h/fv719ocKmRExRE9mfzgJMrJE+dJKsattfwv989/nf13ONmrN/HIw7EykCW5WwtUl84rgSh46egw37s5czbAwHg5G2PUMfV0Ws3UcXBQ1JUIJRMqHAXyQxODHFSfaaJKWt/kev1LDjUpa9N+yabPUa9BY6dqyRQtp0KCuqebpf1L+S+jxrMyaM1v5b8nSRZIPBoPenIT/NoHm323fDplJkofLPygZ4jOaesrfILwVFc//pBBk2hFE6fPnyf/2Hdtl08ZNqq5uvfVmyZ8/v9UrQIlwttE/4Rnw8+w5Su5lS8DPeXOfVvpzdKn/D+w/KEuWLVWKFyt2ufzjmmtOif6HDx6SHs8+JwsXLk5R/goWLCAzpk2Rc889V+Gan9Tnnw8//Ejq1G0QjH+dOrWkbetW2j4///x58ufGP8nP/17/6yIv7TeImZ//VEWd8vyDQ2iMNaxUNGoupV/Sl3SODib1kDtGkisSHAn+R2EecBNn0xJ1tYK1mQEx5j0BsgwM8iR8qEkrMo2VdUTdNXKHDBu0MuKuDK4Wl8dvSJga/TfCgKnf6DGlf8unn5aGDet4+qeT/xKe6SmzZsHgAd8tW7pAV/wC7kyD/9p06CRLlyzTemtXr5Rs2bN7/lcR/mvlf+q0GfLcc31U/7ww8nm547aSZ7X+SUh4RmbjgZT6d9nShZI3bx6jPE6z/v38y6+kavUaqv8bNaonzZ9uDtnAxKHqPKTTtR2BhKGMyM8//yItWrWRTz/dirtwWTv/IJVTyJq3V0iOHDlQAq6YlE1OVywfM/8cP3EUbakjX3/9VYDfGPCtCYmV9JeYIoF3zjmLZXCfhvynhd/Pf37+9/aPt/9Uy1CtnIL9q6fQWPVjdFNwE0RMehq/B7ECT+VIv3Pjf45FcjQEUzNbgzyoUBQwdwZQOB6FCTfQg6gVSQ3KagbTwzAsbCR7/OmjP1eDGzRsrBRu2aK51K9fV8dGqerpnyb/vffue3hd/7mSquojleXcLFkNb5+E/9p26KAGPGVz3Zq3JXu2bEp/AiJHk8c1ePqnSX8aXy4YvXBq8j9l2jR5rnc/pfeIEcPkjttLntX0f++99+Uz8DNp+UiVypIlS5bTSn83el9+8aVUqQYDHqFBg/rSsnkzjXMw0tL/iSdOSMXKj8h3323XNufMlVsee7yh/BMr+Lly5pGff/lR1q9/V2a8OVPmz50tWbOiPyeZf155bbSMGPFCFP7augJPA97Iprbbzz+cZA2dArqcmvy52kZ2DSimef1nyQpipMX/nv6Og5xcnt38FzlGMsI/EKYokbJ3No0CTA4LBfWBR5Ia8UgPhFMjEVgaww+NGGYF5RwswKVHj+KPwxOZraCGOVY7dH1F8SPPPRCwDANhEraJ6tUgcCkBuLMe/8bNm2DAYwUetGoBA74BDHgNnv6njf/ate8oi5cuUx5du3YlDHiswIPojn09/UGBv4D/pk2dLr369FXavwAD/nYY8EH4C/CrjqKuYnfxd7aOPw34qjDgqc4bNqwvLWjAp4P+q1atlmYtYFiDkJdcUlheHDFCChS4WIkZ1v8nEhMlPgPnkLT1/zffficVKlVRFihxXQnh4gbnnzp1asOFxuDx8w9nXj//evvD2Gd4Zanyp/rLKTDchOVPk4MCjHj7SzURfv5M+zfGgFcUSmydWZTuoTQ3CKaE6kboXDl45DgGD+UwrtEzEgsSiH3ViKgZZBthNsHbQMVp1umRYNG6NELRj6qwBPKIFzpar6zj8Sen/4H9B+RTrK5t3foxfEGzSInrikuxopfJ5s0fSf3GZhNry+YRA97RWofD0j/xxHH5dvsO+QqvvL/BqhdfsV8Bn1X+ZcyYOUX6Hz16VHbs+F7B5MuXT7Jnz4oVsx2y+cMtsnfPr3LVVVfLNf+4Ws4//7x0jf+PP/0iX2Gj2jfffasDXuyyy6TYZZdLzly5UsSviIOfOPnt973y4ZaP5Meff5Lfft0r5513geTOm0uuvvoqKVSgYKhkcv47cGC/7Nv3h3IxSWLJopv+csP/nXyYEv/9jDbvR100GH+J0rNXb+HmYfLuhHHjJGv2LAYvASKcd14O+B/nUViaYBG5Mfmz+P+P3/fJV19/J99+9w1WK39WF6BCBQvKdTBeMmXMkCb+3/ftky/AB19++aUcPXpEChYsLJdfXhQGVEEV/ZTk/9Chw7Jr18/oUpzkvyi/nJMps8FBQjDgsn//fvn1119RIklygabZsmYNCM20X3btlj84BmjfpZdeAnImyfff75APNmxGvT1y2eXFpMS1/5ILcp5v6hnI+sux24XNiToOIOKsmbNk/IRJuo+ma+dOcv111wWliStjpkxSuHDhKPw6vijl9M8P3/8gx44fDfTPBTlzSs7zgPs06r9D8PnetWc3WpgkF10IOp6TOcDv+G//wT/k1z17tT+5c+eRbNlAR8t/rv8HoRN+B02UEVnSDkPGjBlPyn9/YJx++uUXrVq4cEGV/z179kCuP5KvwROFLy2svuzkp0gw/H8Ub2l3fP+91mV7P//yc+nYqYvir1SxgtSp/aiOP/M0oF2XFrlEMsIID9O/YePHZcMHG1Tuxo0dI8Ux7q7/p0r/REwgjz3+lHwAeCVKFJeqVSpJl249FD3b07ZNq6BNf5b8+fmPQw5qhuTfDDg5NLn+dWme/hH9Q9J5+8fbf2r/YsXbqnAjRryxKhTiFIk7IYtcTS5/j+AkAD5VaIVIgSBmnt8ptkYVsw7/4Ppu6oXqMp3MyQL6pIIr/ejNQgrqs4Bma0kDh/chGFog9HM24l+7bp00aUq/Uo4h108M/a+5+mp54onHpXnL1kr/Fi1hwIc2sSpVLS0//mSrdOjYCcbSD4aaZvZR/ihQ8GIZ0L8fjOCrzbwZov+ixUtQr7PWeSahm6xYsUpWrHo72fj3fbanlCtfzjBZMK6R8T905DBwDMLr8FnJ8FPVP/XkE9IYDyKZMsDwDOE3hSngiTLq5Vdl1KhXgv6TFkTFP/JfkcuKysQJY/GqncaOSQ/z3+RJU6Rvv4GaZ60P7T/xr3xrGYzGnMn6z8JdunWXefMWaL0w/WPxa7vR9prVq0nHDu21XWH8Rln///mftBw16mUZM2ZcVP8d/lw5c0nzZk2lYqUKKcrf5ClTpXfffkogQ2pS0NCy1N13Sc+eCXJeDjyQxYQ1a9dKs2Ytlf4J3TrLI5UrJ8M/d9586dotQWH3H9BXypa5T+NsG/tfq3Y9+QS8mA0PPfNmz5LGjz2JhxD4K1v8bE82PCSOGDYMBnmJqBbMmjVbejzTK9Xxd/13jaIROnf2m1H4Y/VP8etuRPFI/1vTDS0kQ1EN0FZG5C+18VdwKKtQDYGj9N/qNWulKf3EUaB71y5SpUpFhczy+tyAOnPmzpduXRNIFshNXylTGnTUUhH8kydPlT79BiieWP27cvlSuSBXzhTHn/p32PAR8troMcr/k6dMlHFjJ8j8hYv0nj8sw/Hq0qWjVKv6iOJ2+L/+9lvwVmUUi5a/WPrrmNv+L12yEA8VfEg2/P/9zu/lwfLgTwDlxtdpUyebfuBe4QB3SiE1+ZuDvSzdsaeFAKdNmSRfbPtCOkFuKX804NvQgGefLH7e8J4hPP6O/toYkx31mxr+WPobuMSnCKLG389/oImnv+c/L3+qW5z+CVbgSRfqjeSBRZ3atSWCwiZyCCvwOrNoZZZxS+NWE+nFxglNFSLruiUrKnWDhXBcSQWnOfFIi6zi80QaKjl+TsPACtdg/OzGv2jxIumgq1sRumSDz/WBAwdAm2j6t2zxNFxo6imVOcqO/lOmTYevcF+9x7kRSv9cOXPLr7/9CvJG6D9yODYC3vFvLYcfhDhZuGihdOzcFaAi+A13ccyj8bdv11oerVUrGf6Dhw5J3XoN5fMvPkeewZ8tK/qAo+LC+OkCQcMtnpsuNPBqxn/YsBdgcIwO0rNlyyJ58uQWrhrux0qk47/V3OyGFfBw/9lShkmTJ8PgGaT91/6QZW3/l2ITKw0MvmJnv0ww+HuBdtOmwRCMSk/ef5MfJzVqVJVO8JNX+oRq8d71X2mo4CP0Tw////TTz/L4k03wFuQ7A9/KX65ceXQFm3CJ5faSJeXFkcNwF2k1Y88820fefHMGosix/edbFb5hcPgvvDAvHoTG4Q1NPtSOyN+atWukabMWSIuTrp074shSGHEx8j97zjzpltADJeJgePaRsjA8HTWJv3qtuvIZNywC/9X/uEo+/WRbivLPFeflS5fAj/scoENbUX7R4sX2YdL1Kpr/CN/1n/gvuaSQzJ31ZhT+WPoXL35TFP4WzXGSU/06gMNAPJH+K3xFnT78LO9KKjjcE/9a0rEp6Aj6d8VDdbVqjyA9Wv/NnjNXuif0VPwDBvSTMveVRhz9C+EnP/frPxA8y35zMCP9X45TlfLmyZMifurf558fIaPx9oj8f801V8lWjIkbfwMH4Gz/J+Ch+Np/XmvgA/+PP/4s9z/woN7Hjn+Y/uH+L4MBzzd+jv7vv7dBGj/5pOJv17aV1K5dUx/St27dJt/hAaFAoYJStEgRvM3KDpBA6uQy1H+Fj7xdeKvzcMUqqhNrP4rVdsBbMH+hdO7aTXtQuw7SWvMUmv+//BmCaiNOqf8orOVd/5W2BBPSv6nR/2T9T2n8U9J/vv9+/D3/ncH2Z9SHnIy+MDrYKnYmpRaM6hcx58CD0aEYuWGIQh+uruYB02Fk8fgo6lYtoEUtFFtNla4uexCGFlT9Z2vwEgSH3yR4/KQ/z0Uui4nyV7iqkHD16tWVJx9rCKMmm3z59dfSomUb2blzJ0hmBqJlc2PAm0kGyaD5ju+3S/kKWOGz9G/W5Emp9WgtdW04dPiwTMFq7JChw3SIc8ONZcG82YB/Loqb8V+4aJF07IjX42b44O+dRUaOGCnXFv+XHDl8VKbPmCEDBw0yjABDggb0ec6dhjgx/q+/MVEGDBiiQ5sLOAYP7C/Fi1+rE/aatevQj9YBiw0dPFDuueeuAD95iy4Ht97OBws2I0lGDB8uJW+/DXEII1DQrWMh3hSwL1OnTDbuBmQoi1+XOhCnO9Bh9NmF3n374+i6RXq7VI+RxKkdGqL5L/FEIjw9QGME4m/foYssW7FC+X/1yrd0NVnpY5bW1F83Xvd9mP47/Ka+gtH+mljk3pIYCdH4tbDNbN++gyxeslzlL+cFueS5Xj3khuuvwwbcc+UgHuo+/nir9Ok/QPJfmA8+xSOV/g7/J1u3YuzrBmh7JHSXcg+UlcyZM8MN4ktp166Dbigk/tq1a0m7Nm21LQ4/x6pZs6f1IadrV6zAV6mSTP5pwHfHaSiEMaBffylT5l7TBst/NWrVxokjn2kbOER1gadxo4bgmfPliy++kNZt2uEt0feoHaer04/AFcLhZ6UTx/GGkLCgf/hQ1Rc4yP/Dhw2Vkrfdijjy8J91yB8ZMsKwpQ6y+JnFQNwMXIFn4D3zuBGcBrzjf81xmVoGY2Px/6f6j3Rs0qy54uwG15+qVasE+IECIQnHm86VhIRnNT6gH1bg+SYDIax/KX9HyM9x5M046YO3Kgt4FCOCnkKTGw9gqejfocOGy2t4g+PocdPNN0kCxrQgXGb4UPzMs72FPupsy/1lyki/fr0VrsN/Ap1PPMEHKFE3rOq1HkXRJGnYoD4eTp5SsoXlL2OGTLa+XmTe/AXSqStWyHE7EA8oX0GfjR8/AUY4HuqBk+PPf+XLPyAd27XTh3LWdPjD80+nzp1lwaLF0GlZZNGC+ap/5uONWecu3VkBR0riGMlWkU2shOPGn3GG0BDr3ekcf4ePVxc8fh0qS47U9V9K46+jR0ay+pdjrgNKOU2F//34O84zV89/ZwD/RVxokg0HeNpwtVGM0YOnd7aKW4EPZACZjDMQBt03uNbDKSMewkF4ZmNQWCTC+ClyWF2ytaIUo0NC2Khi5liT6LKiIZ1d+DmJd4MxRFrcA9eG54cMjqL/Tz/ulPvLVdAxIJWN8UEDLUK15tgktlJdXuKlG16HV4GxEDyYWSK/+hpObhj+gtK/VcsWUr9eHcVJKJwYO/ENgIY4GTv2Nbmexjfu3fj3h3E+ceJELeEMIMc1hw8fkXvuuw/GJQwN1Jo8+Q25+sqrEAd0i3/FyrelFR5GOP5XFLtCpkx+HWer01/W9OSjj8y5zqxQuXJF6dGtSxT+/5T/EnriGMmZc7Tdy3Fudh6sELpG2aaFKMkcw38dYEQvWrocHJ0ka9eskqy6iZWtdYFxQmD48/j/3ffek8eeaKKSdAEehGZNnww3iVzJ5O/YsaPy6Wfb5Np//SsKf/MWLWXl6tU6/h3bt5WataobArMUmvzL7l1yXxm4QaFfbD3dHvLQ7QFxhrUwPJ+C4Un57wzDs3o1utBEy79ZOe6BElyBp+tHaZSJyH/1WnWwAr8N+TAM74dh2McahsDP8V+zdj1W+Z9WnA8//JA880xCgN/R3+mf6TiFphdOoWEbXhiBt0fBJtb00794CWPAO/2j31KAAc8+E0o0pD9H/6xdY/pIJF07GQPe4Td8kyRzrOwT/0DrQhPbfyd/jv8jx6ImwYBfrCvwqfHf83jTNXrsOO0gH6qXLJgnmeCL7/D/tnev3FWKYyfCB/sVy5eguSn3//PPcYxkNfASAg34Fs2bIkYKMqTM/6PHjJXnhw9X/NRtK1e8nar+58PoVLjF5Dz/AnBS9PyzGvzSBG8ziKUneKUCeIZA5+sKPAx4BJ5C0651G8RQ2y5MKGI3yMiJpb/LOh3jH6t/2UaPHyOiLGMo7+mvHKryp2Qhj+BfLP/H6l/ykqkZqRXWv57/QUVlNEi2YzJQ7EyQP3Wh4UMoV0XcGkbseBqFFPo1US3GWocOH3MATAeDXqIgO073BiAJ9d3WNRedTBQ/J238YxzWnmkTMdCUV/NPf0k440DP+sSBiytMJAGmsw9/uw4dZQkMRU48I3lMXsnbk9GfZyivhAHMoMdI1qtnyZcou3fvkdJl7tcz/C/DZtEZ06eAnPHJ6H/k2GG5+RbABvH/fccdMOaft+MgcKFZgg1qnRR+0SKXycyZ05AXPf5f4BSKR+wxcsWLF5fxY0cDkhn/zVs+xJuDBmhTnBQvca2MHTMmGf4TScflgXIP4UxobJDEMC9ZvFAuxIZZHXr8fLL1E6wcw60B/Ff0crQB/SBrkFViw6nwX7dncG72zLnKf/zwTV645CjQk/AfV6qXLF2mqNeuMcdIunacCn5Kwanwf/fuPWX2vHloY5J07theqsPXPjakhj8x8YRcd+PN6B7lD29KVuH0HPi5x+Lvho1/c+DHTjpw1fX+smWBgpROkjU0POFiQvzcNMqV49gwazZWjnv0ROlEGJ791Ac+LP/VsQK/7dNPkR+PFdfRUpyuGepATEhJcvTIUbnpVvAiUN58y03yyqiXNF0TYvRPxDVMjHzAgE+t/25IY/VPefhh7/0db7iUmZLk6SZN8WBTw9yfJv2zDi40TbCXgDq6W6fOOLe8coBf24HGzgYdu/d4Bn03rkhlSuNNRkz/tckkmw004GfigZSypi5hbmN2Cvp36DD4wHMFHjBbtX5a6tetCyiASKCWWPUaNsIm+Q+RkCgbP3jXfLAsBf0flv8G9XGMZAu8pbHyr6BSwM+9KBMnQ461TwZvU7wdLHf//XijlU3x9uz1HNzC9ir+OnSDaYVV9BD+AwcP6jGUPEueD6vjsLgQF5dBmz9v/jzpgj0ExF8bbxzbtTFv+WLHP5b/w/1XJRNoGrYRwEL4SarYcKr85/GDgiH59/QHPaz8ef6jdFEJU9L+9+Uv8IFnt6MC+086BCGcYE19m6RfYmU53IfXTjBnWxiMYA2MmkcVs6nPKkEALmazJCvxVBk++bkUc3UNMvVVhrm05gIqn+34a+K19CdYrSRZ1ulKLzdnkqoR+k+ZOgUbEgco1YIVeEv/TZu3mK+0qgUVr+4SrJ0EY44TmY4I8hhfunip8PtH9D0mLqIh/efDgO+MFXiOP8+Yb9Xy6Sj8+q0AlCx5x536+pureSvewmodyhPX4sXL4HICf3A8ODTDq/XHGjdkC/AXPf7P9HhWZs6ZjXSc7DJ+DHxu/6X4+RhwECdmlLzjblMFDSlX7gGpXKmi/PMf/8CGVbj7BLC0upZz+HmTGv+ZFUt8+AZluAKfNx9X4G1AE1Pjv3btO+HLkzDgwf/r167UFXhXTa+W/uxlWvg1G9iJPz38X6tOXfnk408AMl7eXoFNiliRdPQ3sOxvCvh/3rVLSpd9ALhEbrn5RmsYs3w0/vlwbegM1wYWbAVDrB72VIAtdPzXYDN106YYf+BXH/hH6EJj6hMSg67Aw/Ak/fvbFfgw/WnAf6YGfJysW42HCBhrsf1XXsLXPS+FD/usWTMD/CATAnuAFgHB1CnTpXcffMgJGSN1BZ4PoQgp9P9M0j/cDNwEewnYHdLxEWwSjR1/GvAJCT3UDB4EOpbGW6zY/sfq32AFHoDNA6l5oxSmv9LeUxFsAABAAElEQVQHFKMBz03QpOeIEcPlTuyZ0O+fmQJK5g5YQFiID5Zx/LkfIXeeXFre0d/h//yLr4IH+IYNsALfolkg/2x0Svj7wICfDAOeiDh+HWBgP4qV8iBgmL+ES1XlajWD8adeyYWNuQ7/oIFDZcLrE7T+lEkTcSLWlaY6+q8uNORjwK4D//q2bbgCT95h4JXUZ4jmf5OmySgRWbv08x9ooiSLyJ8bf45fVMBtevSvqePpH6v/lC4gs+e/s0v+oCdVzWD8jYKKVlMh+YuSt1ApRA/BT5imHWwTDVpUBdIIGu1w5jkBNaC0ANCyJuGhLCZ5Nkcnf2QzNZ4rGGwiLwCkip05jLOWBezxG/rTkDmoPqEiH256H5QCZUCoMP2XLVsubdt11AFpidXRhroBz9Cfn1XvARccJbulP/ZJKL1JcB1DHQ9Lfw4SEje+/67E4yg6hkVwoeERcRzX1tgIVq9u7Sj8HDdUkocrVcLmsx2IJ8kH767F63gY1oA9ftx4Gfz8MI6yPNs9QSpWwCtuVIod/xdfGCUv4YQZ4ufK7X3BqRsKXl4Y+aKMegUrbLjV/ismkWtwfOQtN98i9953t260OxX+6wFDc+ZMPDSAqNz0lwfH9RH/yfivDc6B55dY2af1WIHPBhcaQ0zWZOrp4f/b7rhL+YH9/3DTB4rJ0f9k+LfADalenYYYk0Qp/9CD8J1/FlUo02hvSP7eee9defLJpkrj6tWqSpdOfPhi97BqD3eFZnChIX76bj9CdyzEbQEOKgz4OcbwhPwP6NdH7ucmVhQiVSj/1WvWUvceVvxwI/sQjZ/9KHVvWdmNoyh5Njg3oTr8sfzPFfjeujkbBvxIuNDgDdXppH8sfvYptv/pwc8HoSZPN9ch69IJm4GrP6JwwvpvJlxouJeA8AfwNJ/77gWlwF9IUP4H8lj8CXgI5kk9bMOSZXChAT+npn+HwH1l7OhxKqNTpsCtDcZvGD9xED9deRiWL1kAd6p8KeL/ggZ8dbpjxcGFph4+5NQU0bT1/6hXR0Om4bYHvsqWI5vw1JzMmbhhOVr+mjRtJuvWvaN9eu21V+XGG67T/m/FSUY1sZ+D9KlZozr26bRT/I7+cxcsgg98N+0/N7HyFBo//4BaoDeJFqt/ScfY8ee4M50/RlekzX8cf0f/k42/xw9apaB/Y/nf0//s4T/wA9WhFbogQglEUMFVdogo/tgyKKabWCmIKKqTq0o7hZ51WYEXxO3GKZOmhbkwx2OdUYP3GjHltY6DEdQIRSLFNObxg3yJUuKGm0COON2ctW7tasST03/9+vXyZBOsiiKrVavmutHV0X/0WPiZYqWN4eabbpQbbrhe44TC0WQdHUpNjfw81qgxzoXmOeJJxoWmI46RxPgndO+iK98pjX+NmlhZ3faZjr+egKHGsAD/cBnNlT7ww0BsXi2thkgEv2kIVt0nTJSBg81G184dO0qN6lUVv5ZE3UT8ccMs/fV//mkXktWMMZ1QfsMRhbWqYSNmO7zlBiOmg//o6sGHHIZl9tQOvTkJ/7VrxxX4JSiKVeQ1K40BD1qeTv4/fOSI3HKbWWEuiLPa58+bqfh1EG3/08K/GhsSm7Vopd2rUaMaTslpH1TVRPvDIx5rPVpPxb106VLwY8cmUaVlHPzTcfwhDHiOf9cuHeBC8whqWW6y/Z+pK8c9tQ4NT3f8oYPBTaxbsYk1O9/0rF6lwxvGz/g9pcrK3r2/SmGswM/BCryra3ARJbgX4z912gycrtQHCTDghw+Tf/+75N9C/6zWzcCkI49pxCk0eBCKCujf7Lk04Hto3/ggVKZMacRJa15M/w3xIvRPwFGu6kIDerhTX0wF1uEAqdQrlGGUSxjwZJ0Z06bgGwCXBUUJn0V5mhA3JbOuyofuEUmOXw34qjWU/+vX55dYqY+ILwIyFv+b+Lpqz57PaZmSJW/DiUnDI4Utfuof1R/azjjp9WwPeaj8g9r/p3BMKg173MhLL4zUt1G01g1a9B8LG6/aU6vKPXA/Nks/qv3ntwfO5Rdqic2SLoLYxkL4tYEB7VgBIRX6pyV/sf33+ElH/IV5hLRl8PRX+fP2l2WQs0T+1IA3AoCOW2Wt9/bHyYu7hvNc/CBOPjEyZWFQmCBprKMBmUpPC4RlTR5/oUF5ZwkeyTMxreLq44rFFpQ2eQ6LllFEiLEPZzH+e+4tAx/Q35T+m7HiqsHRzxIqck47N7G2NEfgWfovtKvnLPpYo4ZYPW1iSGpJmx76L1y4BJtYO+sYt8DE3LBhvRTH/+GKWIHHB54YNry3Xj+iw5GdMPEN6T9wsI4yTy6p+gg2PqaAf/jwkZhwxwBPkgwZNFDuLXV3iuPP02C2bftCuAL33vvvw0VnibZN+Q5Y+vWF3zaNHfAO8bPvuNEY48pSFn8PGPAzZ3GFMcmswOPYPS2DFK2ZCv/xjQdX4Al2na7AZzPlTzP/q2sJ/H5Jv80fvKen3UT6yJanLn88JrAGNpCyS2VLl4F7S+8U5W/NOhjpPOIQlKhVs4Z0aN8e3TTyz9NTeH458Xfj5stqZgWemA2l42X69BnyLHyXiYibL0vrm5QI/Ws+CgP+ExjwObLKehjwKcl/KeX7PXIJznGfg481OfyKBqCUf4B0yvTp0gcr8MRvXGjuMO2wDBahTQR/ePzTw/+nQ/+sXoPTfOwKPDcD04CP1X9Kx+e4wTcedOxj6YjbUP8Zj/QxSRKe4Qo8HkjR/2VYgc9n+dmVIp1c/2nAm+8IxMGAnyzFLr9cR1nLoBzHkyvws+fMB44k3dCcFxuaU8L/ue6B4SZWrsDDhebppooo0jYTC+NfuXIlFhzaArI5aab3s88mw8/Gjhv3ugwZMhR5gs2xEf1Tt04D+fDjj9gczTO/vGMCSqOuji+SXJ94nTRxPI7NvEbp8N8af9u8FOXPtVVbrYPlOEN7liL9Wcf0MnX5Z77CJj0QIWjff1KFPMNfo2U8/ZXFDD95/gNrOM6gjCE4+bGMYriHGUz4/8lfxIAnPBciHGlSYu9dOSPecjg4B97seGYDNURaakbYwcFCaBIcOOPhQGlUBEoHZRGhttB+2UTcWr4wfQ6AAxAygh3CAGK8sw36CMwQfIL8H8Zfp0FD2QI/dobVq96KfFzH0RfXCeNwROPQwUr/FvBZbgA/dUcrHin4aG3cg/4VKzwsz+DYQA7zqdDfudAQZk28Ju/YAa+qQ/hJ/0Sshl5/3S06/s4HXtkJBZcvf0taY1Wc90/io1NP4S8l/F26dcXRcgt1/CdOHCf/vOYf6Rr/fb/tk95wuVm0gIZ8kq74cuXX4U+L/3QFngYP2rkULgL58uHEFQisqZw6/7WDC43bxLpu9duSFcboX8H/DRo+Jhs3biI7yJJFC+TC/NjoC/qnR/727P5VSt1XRrt2Hb7iy9OEDI0IjX0GIAwMDUDShWqrdZuWZuXSFnnnnffkiSeb8E7atEYe3Kli8Y984SV5+dVXFTY/DlYGb1zC8q9vaj77DF+vtSvwCi2Cn/S/+97SshebFwthBV5daFjGDUsoPpXfN3gOBjz0z4vDR8jtOFpUQ1AWkZPoH37Z9YjqPNP/83LkkPPPO08Rni79w9OEHn8KdATKNqRxHWzQtvR3/DeSLmWvvKLd1tN8eIwkZEiD6x+vofHvjk3ZasAj3fjAw+BOpf9D4UIz+rVxStcZ06ZiBb6Ijr/Dz4yuWIF3LjR6LCU2xaaE//OvvsBDSC00zxwjSR9401Y0JBX8W2B816ndQPHfduut8tKLWIFPQf/rmwK+wQOo3njD8OCD5TRehwY83MKIJz38b9oj8saE8fLPf17Dedm2kT3ijRn/cP9P1/inpP88fk//lPifnKkhzK8ubtk2ffxvK53i/M9aHj8o4GhOYrg4ryH9+/+1f6MNeCo2ICAODVSk1BypBWSzMI+RZEP4PKrPHqzCPFudYPTRHem6416RoAbu+UTPoPVQMIwfjcO9fUIxxRSfwsW9gWtqe/yG/l3wRUuel0wa8bi9B3DsXiz969dvLJu3bFZat2rOM6zpF4rRQ8Hf9u2Tu+4updTOjjOSlyzBWclwXQiCHVu96Lgmp/98fDynU8cu2ob8MBgX4nSH+Awc7Mj4E39dnFjBMb7++utlLHxViZ/jz5XyWniIYF7hSy/FqS/TwYbIMKgU7lG4h9xdqrTwVAkCNu4suUw/WJRtw59OfNpO3kTwHzh0QG7DfgHiuBo+8VPeeCPAbzFpXiz/uWMkWWYpN7HaYyRPxn89cPzkzNnY/IoOLpo3Ry4ucLHhdbYNwdH/z+Z/uovQbQSdkccfbyxNnnoKUbQe9/aSKv6kEyekxI23It80chlO+smLDzYpXZmqdBVp1ryVrNKjJpNk8KAB2FsA/mEe/r7EWfFV4CpBfHWw4bANjuaLxf/YE08KP9LD8dcvsbq9DLgn/WtgYzbPgdfN0mtXJcNP6qkBj7PIL4G7wxz7JVVtp4452kJFg/i8eQvhgpKg988911PKl4Nxx2z8c/zHsWVITf/wGEmWcf3nMZL19RjJ06f/glNbgLiOOyGFNNbGmpXAx5WO2COAND0HHptYU+N/0oPluKeDBjzPGTJHgJoPOaXU/+efhwE/bpzS/0240PCUqjB+toIfkqIrD2lPfuEDrqGTob/T/zt/2CkPPPSw0rhSxYq6UHAy+h8/flxK319Ov3FBdypukuW3DNiIsPw1fvIpee/d97UN48aNlhLXXsvBlG/xIbPd+D4GWYHtNvzPG97G48SkdfIqTrxClj7U16RLHvjvqiuvAO/xjRkCM01XgvFnYhg/4bKMliMexWcquf47+mtbFCxgoKC2CfcMqfGfx2+HQemqlPL0BwXIharHPP+dNfIHHUGtQW1BQYiE6KTQXSjqSpsPOVmhsomGh5SdAvBkL0PZGAGk1tIjFRxEUypoErWc02x4elEwEVBBpXCSiZ99+Okrqz7HoEqJEiVk9Csv4cM0GS3l4+Sjjz6U2nUbmHuQtWVLGPA4RjJM/x54rf6mbmzjGc31pDk2mHGC00oh+idh88KGDRulUKFCciHOXXb0d244rEClYr4KaTbUcWTJch3hI78Ip9iwUrfOXXAiRSXHGnIChuNDFSvLzu936tiOGD4ER1X+Owr/lKnTcJpIP82/8cYb5LVXRgX4mbgPDyJ7sCJbFAadY9kw/237bJtUq0EfV8HHfPAF0heHBfhZ39VhXGd8y38JMFBS9IFnMfyxHoOJR/jvlVdelRFYIWWJ3r1gOGJV0EzsTELp08T/X3zxOWhbM2jPtKlv4Nz8YubedRL4f//jd3n33fcC/3OXpbwwGy4pKFO/AU4UghuHVrad3fb551KtujkJhEbVwgXz8CXM8wJ8v/2Gs8HvgSGJbubMlRsnF83HXgnLj0BCl4Y62Cjr+m/OgTdfYmUdhur4UuZn+NomV+DXr4IBzwyLXwvgh65je7GJtTA2sc7BJlaTHaG/u/9gwwfSqPETml+xQgUYsN1Omf7Fr7/RodWrO8kp3CSHz5h2rrmREhpzRE7H+P+293e5sxToCPnLlTuXvv3JmMFsGmcjuLJcF3JNkAzGFak0+hlR72H+d/jNAykMbvBf5BQaw8cso8HqX67Aj3Er8DiW9XIa8KHA8vwGxew5gIdAn3r9UjHiis/+Mu/4sWNyw014+4EM7s+YM2cGjpzMwCwNjjR6E9L/zw/FQ8TYcZqs7jHQTy4Qxyc4ragm3L5MiJNVK5fL+edH+NH0zLbHIbH0j5xCw3PgH8U58Gb/R1j+uXqm3TAdsngcNgc90t+T0d+QBMBOk/x7/Gnzv6c/eDcd+sfbX5BRyvwZJv/GgI9SQ7xxmi2UkUKS5iL9ME6hMZODq8qJM/Iy0VV1V9Yjz7jVB96TNi6fImemXuaYYHS4KeXKag4AxWFW8/hJFdAQRnWlqtXl26+/UprwgyePP/YYVopzyyacr84VN3650NE/1vgglD2/7pGHHq4k++1pNvzYDY18rm5myBCvX3L9+JNPZNLkqXqKzOBBfeXee+H2wIBBXAAf887wd3ZjwnF9JqGb3IrX3gf275c3Jk2W6TNn6vhzVXU5NndmPZdHOzo+iP6oCsEmwF3mNnw1kx8cWr58BY60g8FNrkFHxox+Cav4N7CYZaI4uA+9jQ2YrYXGPVf4uIp20cUXyQ87f5ANGzfK+IkTZecO84DQBT7F1eFTHMZP/tuP1f0d23dEwR00ZAhWi3m6j9kIxy+bOv6LB22uuLwYmpWc/9esXoPz0Fsqn7PPjRo3kithSGfF5jjiLYzPwNNf2PD2n8v/ffsNwFhNCfrXFqdr3HzrzXJRvgvlhx9+VKNn5IgX5EqcKvISNgaG5W/Hjh1SHrzg5K8uDJtKcK3Kgc/Vb8J53z1wisnBg/tRJ06aNnlKHke/YvvPL27yQ0zsZynwI92iaIxv2rhZ+uELsOQzPB5qvjE87wU0mh4mcBPrZ1vpQpNN9w8YGtlMK/934xSaX2nAF8YpNLPBW6noHxr5NPYd//M0klvwRdHz8VVXhpw5L5AiRS6Nws9013+2sgS+xBqYBQDUqmUzrMDXY7GA/1LDz7YzOPzmDvCZhr+0xr/6o3XwJuJTLXP33XeCjk9gs3o2jMNG6dt/oPkiqQVifOBLK3gHl/z8veVnh38QfMXfBT+T/i++MEJy5cwZ9E35GTzKwP4PhcvR6DFjFf90t4kVgBz/s1y37jiFBivwHL0leEMVbcCb/rEc8dfEJna+WWH7/g0d89BD5fVDUnxrkDFTJvtRMZY2+HkKyVdffSVVHqkWtLERXAbLP1hWzjk3i3z08cfY5NpL38oR/xNPPqHud67/7kp4rv+MM5DufHPZBcdIcmzr1KktbZ0Bz3xUJn6OkvlFlCGm/8hG4eTy7+rwypASfte+sPyZ0h6/p7/nPy9/yfUPDHic1aFKyKgKp0Sc4uDVpblrbNrho8dRiLnRwUzC7pGFeg2qibhQLFLapOm3LphO5WdhGWXHqdDVxdWicG1RU0cBRiDaIihLNX724eeHkJ7CUWqHDhyK6r+dhdQV4cCBA6SqfkClPozzWPpz8yHPdD4AGGnTX9Rt4r5S9ziy4xSaxdIBx0jGA37WbOcqDM00WtiWMyM4eFB/KXVPqWT4uQrftm17WbFyVZr49XSUjji2MIb/+El3flE2PP6u/6YBBn8JfChq1IsvSpZzz1GeDPMfP9M+eMiwNPEbKMqACnaL2ziMuzD/8a1DQzxIbdywOar/lATKxKM1q4He7U8L///xx379QM3b8L1Xy0FbYFru8HP8b8PJHi/AiIuVv9HjxsvQ559XErOnDJHapp+k44hhQyUH/MFdcP3Xc/07dkJB1KLloiECoVy5B7Fyv0Bh9h+ADznRBx7BlIyTanwAoA98VqzA83sDCJHawIKC98CdigY8j5HkCjyDwx9Asvpn1MuvyAsvvqQlwv0nzMJ4SJ07Ey5HNpd1Y/m/uBrwBirr8EvEDeq5VV+tqj+p4We/WM+E9Ou/RYuWSgfSESHSf9NPptDXm2fyM/BNRln7RVvX//Hw5R40mA++DBEI5L9Y+WcJtnPLpg1B/4c+bzaxMo8GfLHLLwMUQ38nf2YT61yF/hYM+DxYOHD4Y/W/+vU/8ZTyf0r49WQq+NDH0p997ARD29GRdA5TlO0rUrSoTH59PFxscMyk5uP3JPMPDfhOcEEk//MjUGYFPvn4E36EetH9Z54Lf/b4U8Wxpwwev6FFLP8Z6phfT/+z0/5xPHA2jD90lbN8rErQi1MPJEU4PXTvqITrYZxCQ0EKymod3EYlmRtC09U2RDiXx3P2RRP4TyvoxcZZxabz1bF5AksEWGSYaixg0bCwrafXIMMWMPkscTbg//qbb6Ql/I2/+3a76X8iaZYk/NR8FXzQqF79Rkr/1tb4SIn+e+H+0H/AQFmwcLG+utcxxkA4+hfDajOPqqtUsYLkwekVjv4LFy3Sc+A5MNxE9hncLMaPm6j4Hf1z5swlgwcPwEbWEqiW8vgz9XWslA8cNDQZ/mxYwe3apQt8/MumOP7bt2+XF0e9LG+/vcr4ydv+O/w0BuvB97/OozV1FTOl/o+xhisJqPxHTKH+O8lRzrKsR4PH0CE5/x0/fkzewhdwJ+ENBF14uCJKw4XsWqNGVWz25YMI61lgzDMJBj9lBeaMo38UfksFtjU1/PPwtdSBWHH9DYYu6xr5M8VvuPF6adywoXBzYEr4313/nnTD25uff/4pGX66WTVt0kSPEU0N/5TJOH+9rzn9xclfgUIFpEO7tnL40CFpr4ZpnAwdPEjuuedONAr9sP3nSTif4RQaswK/Mhl+FiuHr6N+v3OnFC2Kr+7O4Md+EBwp9GpuSFni59uDNyZPlrX4wumB/XgjZel8CVbw58ymAY/yrJIC/W/H2frce+Ho374tPigENx9XNjX6M93hj9AfSHDj8Bt0qY8/P8LWp09/bZvDX6hgATzsgo6HD8HAx94T8MjQIYNBx7tCTcKbKrieDHl+WIz+M81ODf8WfEuCyMj//JDT6LFjeKdfaFYfeM0lGkPfXtggPG36NE19e+Uyc1SjZpn82P7/gDHj6Tmz4HajX1DVrpv+6yZYu8dE5S/E/+vfeQf81B+nWG03mE0VxduwQR156sknJfM5maP6z5tY/OH5Zz42xHfu0h3d5cbaBvpxKQcgFj+ROvqbnplfwzTEok1x1XFNuf9h/GZQWc92hlUMQ/wp8k9YafXf4wfBlfSe/soLnv/OePkLGfBUFpFgWTgqgTpIxxSpVF6qTxE/iE2s8dBwXMnRwMq0TODOQWVE5e7qaT7S6FPLYgaiiekdCyIv5BTDZNVpiYCptVBcV/IVqIHv8adM/117dsmXX30jWc45R66EG0kWuGyQmKdCf66G/wjXk69hFJ+AEZoPH2fJly+/uuVQ43F8w/RfCIO/Y5euOv69e/fEV1DLyTG4WfEs7yNHDsPNoaBcnB+bOM3I4jft8U9MTAT+H+W7nd9LRripXFL4EuDOJ/HW+o3Fr+As/yUmnZAd8KXftWu3rtDSfeWiiy6UAhcVwGt3swHuZPj/1/jvt32/yXffbJeff/lFXRYKwgDU4/4oZyeRvz27d6sbQyIeiC7KfyH2PxTABuWMUeMfpj95jeNDsPvhPvXlV1/DRWu3/OPqayR//vzEiL+0xx8FvPyDRE7/7ccblS++/Ab8vAfHG14JOl6cLvqTjhpOUf5ZB1UC/ByuM0X//oG9G599/qXsB08XLnwp+LEgPu4Ew93PP37+9faHCq7Tv0b4jTCfyvx/Jss/54605v/w/PO/2P/AgI9Ms7abYQs96HkkEi7vNrGGc7npMey+YG1tHN+FGFZzzOfUMRPoBO6GAXlaEMkQPp48oqvuaAuTWdoF4jerF9HpJl+H1OMnoS1BlayceP8C+nMFvlOnbkr/3s/1kgfLPWBa8RfhJ0d4/vPy5/XPf0f+vfx5/eP1r9e/Xv+efv0bRxd4a+M52xjmjzP7oIqZbZfaw+lBYURowDNPX40zg9YijXQk8DmACcbgZ9wFm2aBmrV1LRzBDzjclElDnYv7uuqDXILXappm4PHe4zd0+W/TfyGOkezYoYuO/3O9noUBjxNX7Li50Q94wo+/ykuY/1u2aacnqnAcU+J/R0OKpZEvKw8246677pSG2Nfg5c/Rx+sfL3+x05yff5QnvP5Npn8tSTQ9Jf3r7Q8738TMP97+MnT5K+2vYAXezP0B61pTIHwfjkdnuxV4Y4TwqcN8oImr7PhijzEkWAVWuKpNWh1cCcZFhUEfEHCj1gjLGOVqyIESWgj5mqM3asDrD29tMPU8/v82/Rdysx2+xMpR7N2rl5Qv/4AdLz/+6eH/UjhRhScBnRL/U5YgR4n4x0/H98LeAy9/IIrXP17/ciGJc4Sff8zM6udfb394+0uVglqTf2P7Uw348Cq7VXXQdtYyVrtZf4wSjOToPQ0SfsjJGNfmlQFXy5lpLvhVw5wJiPM/osE6OrPdKrvW4NI96vOHChd1+dUw/KAOrsxhPpNwjWe+VqBx6PGTbv9t+i/gCjw203GYnqMLzQP3mwHz469sfTL+b9W2nfz22+//Ef9TFkriNJnHGjVU+qtsePnz/EeF6eUvXfKngsMfP//4+dfbH97+OoPtT7MCT7uYVgWUVhDFnVFkjKQdDsOA56ZTBhptgQXp3qkw0WQzN4iabCpKZCqRiN8Y7QpJ24QKKMJNF6yp7dOYJiKJhjs9djx+kOGMoP/mzR/Jm2++yWcunHhTCR+UwpcQ/fhzeDQ4Unj+J1tAer38e/3n9b/OZX7+8/M/Fy29/WPtO86YGqWV5+0/yxlm3oR9HGdOgSeVXHBFeO9MDU6yuI1cXGFNPnzkaLJMJbehuT4bJEJBx8PYVoj2YYGMag/FA2wCRy7z1FgnCi0dBZubWs2qO/Nds1guunEevyWjJamnv+c/L39e/6hG9fpX5ws///j519sfZgHU219/T/sTOkzPWjL2ubWDaRiHQyrJQRH6wKvBHKREIkw3ji0mTe1z80ilNrdxr4ms/Ksdr0XJWHjiQoIu0LGFlsYOuuK0iO3FZQVXpnv8htQkiqc/H/rAFSSEMo3hbv1lEtIYZ6bnPy9/Xv94/evnH7wg8vOvzhfkBRd0+tAfO5W4jNCV2d7+MPQhWbz98efaHzDgLUuqBRPivHCURaxlw8VxMmU4mE2szEA5B4dXBHNr2JiTIYvEBuZqK5zLTaiAyUOlZPg1J7qkx+8Ibq6kK/7MMzacjDz9Pf95+QvpDBP1+sfrXz//QBb8/BvMm05JePuDusHbX2eq/ZmCC41lXR00xsnCyYMxDE26O4UmKGWNBDUcYVSrXx9+XZ0kNbQBFwnmgUDFRFE5A98wDSEa/LaE3nNl1D3VRtID7IEQevygjqc/uIWc4PnPy5/RJl7/WMXr9a+ffzhF6BwLZjDThU6kfv419DAaw+oNpYyZS7z9YWji7a/A3IwYoGAdhr/E/nQuNIqRiDkioRCdZO9cor3GGvD6kSbr786HesfsgRjQatenfQBwxjxxOriKH91HnnHw0QQtoB+IcA8XUeVdGYCk0erxKzk9/T3/eflzas1ON17/eP3r5x/Mt37+9fYHeID6kCHKnvL219/B/oyswLvBc1czpCn+miKRgoEB7+ZHPnvQMGfQS6RsJNEwjVsdTcHa1GcJk08wFp4FyRVVvtYwnwS2eR6/0ltp5ukfYTXlHaukNDXCj57/IEOkD0kS/bTn5U91Denj9Y/Xv3aOUV7gAyHu/fzj519dKLS84e0Pb3+AFf5a+8v5wEMxmUBmtJyoCY4rcXXJvCK4koeOHsONuzNXYxYwHg7GkUG/IaDLgraOg4uipkQogUhpjOKDLAY/rjjRRpO0vM33+JUablQ8/Q0nhbnPcZfnP3CJlz+jV1S/gEusqvL6h6Y6dKojiNe/fv7x86+3P7z9dWbanziExljDqrSjzZ3wnTW1w0lWycfhQ072GEmuSFDx8z/mAB5ww69DMi1RVytYnRmYJHjPeYJlYJAn8dBwVtS5Q39MWaaZHM3SG/3RyoiFylpcHr+nv+c/L39e/3j96+cfP/96+8PbX/+r9qeeQkMTmWawhuAmiLicVK8HsQLPh3T6nRv/cyySAyCmD9TBL18zoYAztQkoHI/ChBsa9uaVLUuFymoGS5tgYFjYHr+nv+c/L3/QM3wZ5/WP179uxvHzj59/vf3hpCFsO5k4LSpjaSGCG29//X3sz8gxkmYsOX4YzKghjU7j7MgRDgX1gUeSGvFaX/mAgBCJwNIYfrg6yizNDsEhXHr0KP44rMjbCvpggK2wupag+JHnHghYhoEwCdtE9WoQuJQAnMfv6a+s4fnPyITKj8qQlz+vf7z+9fMP5kw//wYGg7c/aHl5++tMtD9jDPiIsRtYwpGIzvOhEmqb05Y/eOQ4jGfkWC+YwCDQCM0kew4GDUcU02dBRhjshVEqTvOcaNNZ3qYRin5UhSVQh3gTAZZX1vH4QRRP/yh+Ik+Rgzz/eflTPgAreP1j9KUSguLh9S+poMHNNXpDupBf/Pxj5leQw8+/lhu8/eHtL+iGM8L+xIpTSIUbfU6Th8HqMHOT7Nfk8vcIvsTKVfXwZBAubp7faGarqa3FWA+u76ZeqK5Ctfe6Uo8E+jFqKzH7Rux+Lamw1G4NwQjjZtzj5/Ozp7/nPy9/uooCnUDt4fWP1786b4XmDj//cL41AuLnX9DC2x/e/jqD7c9gBd6YwxDcZMGsitP4oSmsIYiayCGswEesd5ZxS+NWE+jFxmlIKkFY1y0ZE7oxLgjHlVRcmhOPtMgqIk+koZLh55wMrHANxj1+QyBLF704Gv096H8CT2xHjxzBWJIzosc/c6ZzJQOcnE82/ocPmfqGoUz/CS1z5syoT97z/Gfk1suf1z9/jf49evSIukmadaOI/MVliJdzMmVWeXeaCjd6Hyv/Xv//b8x/R48exyrmCYxxtP7JkCGDZMqUSUc/Jf3vx/9/Y/z9/BvRf//x/BP1ISejL62dHljpVpCSX1wJcw48mgCrmhuG1ChwmbhT8WQ6jS5rW2sZLWoLOq0dPPYjXWEFjw0wvaJDCIXi9PjPTPpz0t73+/5g/C+44Dwo6IxmYM2rFRvnMIIRsOzx3Y4dMurVCdEDrqMsUvbeu+XuO0sqP5BtTEjOf5179NasWP4rcmkhebxh7TTx69LL35z/Dh0+JM/2HaLyd81VV8mjtR7x8vdf0j/9h7woe3//Xc7JfI4kdG4DvoT2Up1ntZjGmYyILvsh/ST8dxzvcI8cOqw8Hg/dem7WLKdV/06dOVc2bv5Im926+ZOSO3cujWsD0J/06N8XRo2V73f+YPqvFU3/4zPESa/unU6p/5ZyBn068f8Z88+Cxctlzbp3Vf80rFtTil1WRPuTnv7/GfhthxU/2caEJPn8629l+fJVsmv3btHFC5t5x203SbmypQP9y8WvlPhv6vTZ8vEn2yQeD1PtWzeRrFmyKmiHg/QOh/8v/V98dazs2LETIB0GRAGU+Hv16HBS/j8Zfr517tqjD6AnSdEiRaRRg0e9/vsv6b//a+8qAPSskXa2LVrHi1Qo7i4HHBQ73KV4kcLh3H+Ha1solOJwwAF3yMFhh7u7c0hxLxSo0VKh7Vb3f56ZTN583367W9mFApN2vzdvbJLJzGSSd5JwH4Hrf02g/xYmNLXYAYRPxirmBjnzij9msRV4TS08KDmZhmWQkTjXAO2gD7U83RjCAszl8Mly3DShuUoEowFBNo5zOsZpoEWVluTwb7nz7jBsyLCw1NJdw/ZbbwbcVoUB738cnnr6OUH+oQfvF1pi8C8EaePi/96HHg2vv/4/7X9A33qrzcMG66+HWtTd/wO/+SZc88+bUSc1/jFaRKawebc/hk033rDB/j/lTFXgCSXRH2Au0XHxcNjBPeqFP7vR36TqSeHNt96RLlq0wyKhS6eODbZ/wgRV4Nn+rp07YgDb1/mvEeTPG2++EyZNmhRazTtvWHXVlYDdhuVP/wsvCz+O+Sm0gKLa58yTsQpNiq6b/uujv0k4tvelV98Izz//Spg4WY/wbdumVTjpr0dLiSyVNaJrTPl7x133hXfee18E/LFH9gyLLLjgDMvff1x3ffhm0GDUs3b7+/Y6VSstmJl95f+DDz8RXgb+Of5033PnsPKKK6DebJGOfU2FfyndgLBvAcjGv1deeyM8+PDjtfqfCF1/vbXDDltv0eD4e+Mtd4ZPPv2cWaDAHxnatW0HH+RvvjBXB/yZaf/V114fBn3LyRxdjrUQzul1MvA5a+M/T8imAs+SF1tkoXDk4Ye4/GsE+ScIBU5z+puZ/p9Z+efwyS+KfzGh4SKomqTYZ1TEZvyk3uw3i2PCCdW4yEkLwFOKjgUgYZx50Yg9430mSk4GM0TqoAXBTn+cKRIUczaL6h8nASQcNWBlEYTBQCnA4RPJCdM0Q5kczjr3AsHRHzdcP2y1RTcmCDff+t/w4cefijnJmaccH9HHQbPx8X/2+ReH8eMnCFz+LLZYh3DkoQem90r9z3r/OGoUulYnfF98/kV46LGnpau36LZx2LTbBtrvDKmj/4cOG4Y4IAT/qXBdde2NAnOJJRYLhx9yQL3wZzf6G/z9d+EKrF6yqWuvvlrYZedtGmz/hAnjQ59zL5HZCxX+Q6HAM3+5q4T/2a39sxP/n37WeZBGU0O7Nm1E0amL/qSDovzrd8FlYfSYsaEZTLfOPvOkki6YXvyPGz8xPPfSq+Gll14T+NqZ6FH8b9u2TTjx/45uUvl3+10PhLcHvA/5WxWOPfqQsDAUeG0jHtMpf38cNTpMBC+a+9dNt4YxmNjQFPKcXic1ifzhyl9jjj8PUYF//XVp+l577BRWXmH56W5/U/DfZBzj3KffJWHK5CnS/6ustGLo1HFRNUNBX3XGF8cF4teS+uDfcMtt4dNPv5AyTjwOCny7tkJiTTX+joq0oPpHVfjnTbeEn8aOE/h9zzwlkdTMwp8GIXbameeJ/Ouw8ELhGCjw9bXf9Y+mGf8bm/9c/4P0lA1cYJViBd5EanyS0iH3CpcHxFX5GCQ3sTIh3vO1WzKmlkEPZtPEvCjmmp9ZkgMsRjMlM/FUGc78LUSfViHNL23gJN0cMjv8Yu2O+P8Eiu+N/74NiKkKh+AT4pKdOsFbE84850JRaldcfpmwT/fdiLgmwf8wfM695PJ/CHzpJvYR4J9xyt/CXHPNZT3XIPwPPvo43Hzb3UJOm2+6Uei28UZKw9PZ/xNhb9nrnP5CRhzcDjukRwGbviZqv1RYqHrW6P+7778XBZ4csNYaq4Sdd9yuwfZz0tSn38Voc03o0qVz6HnQPs5/jSB/Tut1bpiKC+jaU4H/21HokejqkT/9LrxCFXgcz3cOzAOolJS4Buhv9Jgx4fyLr8TCBpcwMvkb6b9tm9aiwDel/KMC/y4UeMI/5shDQweuwE8n/9Ul//tfcmX48cdRwn/nnnWKcApfZmf5/+Ajj+MLyJsiL7t33zmssiIUeLp6+r+u9mtG/DbQ/1J4opnS8W/wkKHh8qv+KUmWX6Zr2HefPWXtekbH348//iyuiFeFP264XpTPaJQ4Po1mS+HHBLPc/v6gb6EFwDn3LHylmsXxnzxKXqX864CvlkcfcbDLv0aQf+xomVSBJGaV/xPtzAL9pzJ+If77JeFnCrwyaCmbRpbNA6W2WQC8E7CiApEra+SMFjaXDokDDfwcdkxBl3imkgDmZHlIi8GNm5s4JnDhiqHNxAMf38HQItgZQz/TxYIdfmX834fVotdee1Pwf/YZJ8K+sHkY8cOIcNHl1wj+d95+27DOmqs2Gf6feval8NQzzwv8hRaYPwwDbPbbHrvuGFZbdUXp6Onp//c//iTccvtdQjKbQYHfdJONZqj/SaO9z75AaKoTVuD/TAX+V0R/3w0eHK645nqp8pqrr4IV+O0abH/1+PGh93mXSLpOXbAC30NX4Il/YahfUfvZiNmF/0+FUjCNCjxWvY//CxR44LEh+XPuBZdjpXksjteGAi8r8GjQDOB/+Ajw7BX/0CyQkWuusWpYZeUVwvU3cnJeI18DjocJTezZ2L2NK39vu/v+MODd90VGH3vUoWGRhaHAz6L87c+9AT/+CPzVhHN6n/arkP8PwFTlZchU8lH33WFCs9JyDfZ/U45/H3z8cfgPFjcIY8vNNgndsD+IldOxEpQJf1PCJ/01RP/TA7/fpVeHH0f+KOP/Ob11Mjcr4z8nu6fiaxn7aWGY0NgKPN8jgqZ7/GEhs4v8IVe7/kOKQ59EwmoM+vs16p+iwFNRFqJOHhI4HKfwMguGF68V0yBcNrFC0WZSIS6hdsvLnHBUxKsE23zBnySW+yIwFuKN7+JhanXTCV8SO3zB/3jYPRNt1ndXwc5wBITi/O3nC4cfuj8iqsIb/3s7PPbks9INRx9xUGjTpq3gf+6558InfvSDuUbA/8WXX41NVSMAqworwHuHa6+/BaXXhOWWWTrsv/ce093/73/0CQapu6TOm2+mNvBWTXk20P886rRX3/ORtCp0XGJRVeBJbpgt/hz0N3LEqPDdkO/D0KE/AGhNWKxDB/lr2651RfhTpkwJw4YNR1rtj29gK3r/g49K+5dbdqmw+aZ/LGk+8bsIBintP+WlCdXV2MR6kaTrgi8vxD9XpQYN+jZ8jg1vHNUXX6IDNnh1DnPyBJAG+G8aBsRhQ4eHbwcPkbq1gwK72KJox6KLhDlazFkv/0+bWhOGDBuCulSFeUBn7du3l7Z8/tVXgW0b99N4UYi7YKLBMsU1Av0JEBYG/FD+sP3DYFr13fdD0RfDUY82WJ3rEBYHzDlaxI3VCj3ioyoMGToM+fh5meUEfAn5l6Ro1bJl6LHfnpo60d+00L5de7Rx7th3ZMYQ+l2AFfixo9E/zWFCgw16KI3wv0D7fxw9NiyOFcKuXTqHVq1bMrm6rP3koUv/fm1Yd601wsYbbxDatGopfHUxv27BtW3dJpz0N9rAE572v9KOwrf2S1xKg7cZoP8777o/vAMFnsXTBn5BTMhpw/wFaIn9S1ONJcBb3Khr8kcQxgpG/JfD73/ZlWHkyFGC275YgRcP09Nl7Y+t0uKkIwLy/Ri+Ay0Sj8xIOlxs0YVFnhV5628/v1cOHT4iDMUeocH4I7txc27nTjA7mQ80Gvkvh//Ao0+EV159Q6q41x60gccKfOp/TTlyxMhQjUUDVnhufGmcD/K3scY/moaQJs3RFPLpZ16Sqq6/3lphjdVWjngiompCq1atQC+ta8GfML4ad7joeCEojY3kCV00nylwGIsjwIQIgx6EN4ZBrklfgLdELlC+wVRSDiuQfIDQwPjf/+K/i9kkk/ftBVpooP+tBlOmTg3ffTs4fP3NtzDnnRCWXLJL4CJNC5xkc1o8yKDDwgtjBf4gZFGcyBNtMfof99M4oeORMNv8Cf55sSesDfDWCXSw0IILFM2u0H6pR1n/F3VnBrg66N/gu/6DfpH+VnQpzthBQpmOfyBEMFFGf8UKfMYsGQoT4sry5UkgBCZHuRsRTmJGTuYRZ30TC2FFNI6/GEH4FuEXceqTLJYfT1m0ikxoUCSNAIKPHf47hn/G2efDFnJqxJAgRXpe0FsgKkZkAUggq2oLYVVNYmcd/2MhCPv2v1TgL4TP7ccd0TOc2feCMBkDG22Be59+PJ5Qmqaj/3k6wn/usBV42MBDiZmR/q+eqCvwRExHWYE/QOE2Mf3R9v52bP778OPPhHalYyL22e71110nbLvVZjATJHGLGBf8c4C+7MrrxC8kDWWbwl7pXwvQHmIpugImG89k4FXMcDLHU2gIszNs4DfDxt9/wZxKzTBYhvY/B9yesI9v376dVK9S/3858Bvsm7gTp57gGMBYf4M/19xzhh74bN8Jm4Pr4r/RsHPu1/8yqcvSS3YO3ffYBYrwP7H6OlpLM/5H4dwYyi802rJYJMIFRXiytfqrUob1YYi0R5BllCGBEsniB6IN/0Ybqqsnxogi59xzzRkO2HfP0LnjErF9CoMpzgRPTYYJVkP4F/hIvwvMm9bGCjnzikNR53EFHoo6j0s88f+OClfA5OGncT8hWmtO+UeFY/+9dw9LyakmBXw2acqUqajDZJwMMndq/w/yJe0feNcV+BP/yq8BSNxE8o8KPE1o2K4D9tkjcFPrBODS6I/t5wkiPfbdOyy9ZCdJZ+2X7o3o1pYxpib0vwSrrliBZ/v79j61TvqT/MhI+p8IPNz+33vDx598JjBy+CyVPLUdeIpfO8QRJcjHvARg8L8a+DW+6t2t+3MiAOEvJoBbYvFFhU7b49SsHP79jzwJBf51Kac7FPiVoMBrFgLBAQEDPkL97knt77477ORXWqEWfLZ/Zsa/AR9+Em7l10jkZgnl7WcLLQ7R4Q84hWbbrbaoBf/pZ18ITz7zApNEBCEfCqSuedLfjgltWreS8oWktGkaH0snlC+//jrc9J87wkRsstfasDCFPxcm6qQTKsGV8K/pi/G//6VXhVGYzBG+bmhmywSlJfjP+X/o8OHhH/+6KXAyksPnJKQnThq7+rqbWB18LcIK/J8PEX+BG0zfAOzBhx8Lr+KLCvvO2s9W0BF+a0yWeeoSF7gkPms/ayh1tNRNyH8s2uGzT7QHSWW/d/wXCrwQYPwpKFIDyt9TWo2onojNM5GM9cyQmKDgFGGcROlQRmpgwN4MBlRK/kif0sJDbhe+joF4jXyhYKR4xlGrIdNZZj1xhm/iLJgv5ufzNwz/tD79wlSs3oqzNutb8Qt8VsL/sVCwF15ooUbD/+tY6b/3/kcEbjco3FtsunH4DwbM9z/4WOAfsv++oSsGenGprvBU6P8PYUJzMwYt9p2uwG+EbNPf/zytoxdMaOg6Lr5YOAxfI5qa/gjzInwWHjuWipo6TlymTQWXZPTfASvnRx1+MEiUSND2jxz1Y7jgkqs0U07/aLIkkx9tv/AVgqkYtoEyzlLo5BjJc6HAw3HwmQTFh6voTJ/DZ/yiWL086rCD4KuN/2efezk88fSzMrAS5UzSosUcUCoxaAtjsoQQ9oI5wUormTKDAFYEsOjGAAfnYSMnXdcunbEFdGr4+qtvK/J/B5hmHH0kBlvj67z9sTwtXNs/Pfz/7Asvh8effJbgpU5s/5zN5wyTp2ADPl2sK00ixKY5kz+9+16Iy+qgqDJNbH8O39po0bvuuC32KayaymTx/S68XGzg6W/bunUY9dOYivTHFfrTT/pL4KSoofYPg/Jyyd+vkfbQBv6kvx6D6unwRjjWphJ/rGR5/xdpkaAC/7Gbb4cJzTvv6Ap83v5mmNmQrqz9fO7Tfdew4grLSt3qg3/+JVh1jTbwsgLPUuqAT/xPxET8osuuAk+NR7Ha/5Xgl/IUkrJSpB0+ke3Rp54OL7zAoyAjQSFcy8F7gh/CwT32Dl07dy4Zfx58hKfQQOFDQXvtuUtYZYUVUuFvvP1uuPveB/EOhzL3xf6iFZZbphb8mcG/scN7H3wUbr3jXgDQ9mdNYIg0keCtzX/AKTTbbYNjJLP2E/6zz4Cvn3lOklpayYT2n4i9HW3xZVYyIV+l8ffZ518Mj/MkswKFoRm+YpWPP5zA0NyrHH65/FUbeEzoAb9vn1PwBAKZqQ74g2FW+PdrbxB5ykYwNVaE0gIFJ5OUtXSkh6OxiVUSIcjwf/f9D+GL9DsaDjjkP07mq3H0seUl/NNOPC7M22peqYsUaAW5/uH6l9EpaKIp5W8CIwRIaofMLdnESl5BuDACE1GQkXPrcohmYh4jSUHI+ZDMipiFcTE7i5GpI8LlxAUBghx454ySTvIhYQ4flcO7jKSaSBNqufBruRro8BX/X3z5dZjMyzGA1xdeeCUM/PobwdP+++6OFamqMHz4yPAwVpDYb+tjZWaZrksKbjl4LYWVUe4YZ/fRzSr+r/3XzQn+EYcdEBbHitbb73wQuJJHIGvC9n7XHbZVWAjg/oe6+v8DmNDcQhMa5OMxklxNnpH+nzh5IkxoYAMPAJ0WXzz8uef+TU5/T+JM5mcwyLGeLeZoHvbbZ3c5jzjA3OC9Dz8UhYg4ZqP22HkH7AlYqaT90/BpWNWxGph8DE6rSWuuvmrYebutarW/BQasnP8mYBPr2djEqiAAB7jbdqst5RSb5qjPO+99EO6CUsYI/jvysANDByjyef8PgXnBpVQSo6MysHm3jcREhMrUM8+/FJ578RVh9xYtmmOgg/KJAVACCBKFEf6Yn8aG83CUovK/gAzNcRfAtltuKiv3LedtFYYN/wFlvRwm4Gzzo/580CzTH+tA+ENgYnHplWiD1KUqbIAV2s033TDMhdXsyWzDcy+F5198FXWrkTpxsJ4Ll30Z/dNkIX21QBln9ukv722giP/tL0dIY3L5w1V24aKs/f0uwik0Y8em9rOvt8IqcRuY4Qz69rtww79vl3aT/nlS1MY4McrgKzJjByBe2oXHMPTNxbCLp2sjCvxRApdllOMfhaX2y4QH78JrCKYTukH7JUyDasG/479Q4N+HAq9FYYW2dTgICu6CCywQxuJrAmnp08+/Ejit5m0ZTjn+2NT/dcG/IG5cJPxzZOOiZNc6SX1K5f+T2E/z9LMvInUIzZu3EJ7qCpMJXgj03vsfhjvvfkALQB1332n7sMbqKwv95fC/xdnjV113Y2x/TVhx+WXDNltuLl+gOABzQvECTvt54423wkH4MtW1S6eIETwAmMdI0oSGdL1XPEaS/c+9RvfDPl4qh7ge+3YPyy69ZC34M4t/RQrQDzMw0iPhE9Zbb78X7n7gYemvbf60mcj1vP/56Qh6raTNx99JmLzyqw4d8X/rHfeEz78aKNXnYkA70FRd4y/N+y654lopk/l5VOXm3TYM8849jxxt+jT2Pj2P8Yf8x3469aRjRS7k8Mvp73yY0NCEhX1LE5qG6P8ajC9fYXyjWwDmXD3wBW1+fEUcBT7jWPHtoO8T/XXogEWBI3AKDYAa/quxwNL77P7IzdZXYT/DTmHFFZfTr6EIHY1Tcl6Dcv/q62+GE/5yJBZBaBaHCOBdHhH/fGP/u/7j+h/piHSd85/yqRJNTn/l9F+f/oMS1ZXRH3iEUhJxjMhcaVD2lnktuV7klGhbghWONCcVb8oIE0i8lcWWYEVAEsZCLUoLYxzSMJMtMUgBMXF85EHq/33Dv+Tv1wUepUjb6GPlCK2q8Nobb4b7HnxMUPnXYw4P880PO88mwP+UyZPDGSIcuVrbIvQ5/QR0b1UYN35cOAdHnrF/5plnnnAaVhunB/4HH34qK/A0o5QV+E02LKEXkkB9/U9TlrNw8g4z0YSGx0jaADg98GeU/mgm1Ovci3TFG1APP2R/2AcvIfDxI3V9G6uZd9wDBRr4b922ZTgJxwDyOD26cvr/7rshuokV7V8LE59ddsLEh4kyV97+8VCEzQaecVtusSkUw/Ukh6RF/ruwAvW//w0Q/tsOn9mpoNMZ/CuxcXYQTsDhoPcnKpYbrK+Vz4DZxTYM4lGlTKfRBf/xKwQ3clqlee/AMYf3DK3btEIQUmf8z/Pr5wZtsAxxVD6ZhgEzwf/c/Pv9d3r2+J823zhsvNEftH7WSJT98BNPhhdxPCMdlectYxskoAz+ab1xjCQUKJoenQBFxxyrxyLp1F+0/3yswI+CGRFTLAmFsGcPXCqTwX/vow9hFnGP5F0G9zXQnIdliCuDLxGIHE4F3mzgRYHXc+CZpxy+vVsN5T2Dn+Of+S2KfnQ+AqpkwvluXIHn6ubJMLNoibPwzXEouQBmEHqSCJRbmEmtAoXIyqok//tfipNHRmLVFf2vK/BamuWRtwh/EhWuc8BTsnMtYB/L/uDlxQ28tPlt2OjfIZNSmD7ABORkbuwFT+Xtv+iyq8MI2KgT/xtusK4o75Xa/x0unJoPezXmbQnFLaO/Bx/Vc+AJ2GzgebHTI7jgifXmV7ZDDtg7dO7cCXCL4bVS+7ViqF1G/yy3UvslbQX6fxuXa92JS7bYxm224h0b62ix+J0R+DfefEd2DjwUeNC3uAr0dyX2Vn0Lu3O6P20OubARJpzws9509PPY3xdfflXeNxGe2hR+TSFprZHELdpfnELDc+ChwEtO/FSAbyaGTMLxxSbdBn8qFj/OxRc/O754UfnK2ROpC/hc7LruRuzJAvzll18q7LfX7ixOnFVNXirAL2lszCNtKvHPGP4T8lCGw1cacvwDA/XQnyrwkeiKRwn5aHCFIIlAODfrqHBCiKQj4XItQ1nQstqT+UQeMiA6I359MidFT+G0DRpraSUWBVVBqzNYDh9YwYA1GSvOZ0aTkY02WC9sjZVO4vOWeP77XPPgSgVDLwAAPMpJREFURsiTeCOkOsNpY+H/I5yM8O9bsWIOtyyONjsANtLW/xdikP+BJ08g4BisitA+sSH4H8Duk/aqJLAtsIGzG1bgxU1n/6sCf4HAoQJ/WM8DBL4WosLC6qerKbNGf19++SUGh1uleCoBfzvu8NR+BpL+a/B5tzeUfJ6LzfYff9wRUBjaIV1t+qcCesU1NzCn2FfvDDMNcfW0fxwU+LNhA8920Sb0dNwAOhfsrOkIn/inHfGN/7lT4G/4h3XDtljBM/ijRo8J/S66QtK3xorqyViZJnzrK4lAQZOnFLTGS6aO+jPNgQqeJHxV4C+TvMy3+647hNVXWUmK4I+Vqc/a7Z9Z/h+NNpyHNrDclljtPvWEYwWmtV9e8DMZE84zMeFkukWxEfKoww4WvFl8Dv/0Xudh4x7OgW/bFitznHQVbZVMojAWYWy/KvCwgYf/ECjvXWA6xjLN2YSX8QsttEA4Dsc0ZtGS1o7VYxrGcWPrxZddI/Db4EjLE6msMqICfMvDJ115+/N46/9y+LdjdfudAe9JG1Zccdmw9x67SkF5+1+CIvsQFFlyz8orrxi677aTVokw8VcOn8dIjsSKN8Nl1VXSVe7/z7/6OvwTChfTzocNpn899vBa8Gn20Ou8i8KUSbTNrxKeapft7RiOrzyXXHGNtH8OrAxT8ZuTX1sErtFhZfiG/4dgQvMSbOCZeq/ddwk/jBgOEzO1JecE/PCeB4QlsIGTpdBZu+0pYYjK+39G4FtaLbwKG4vfxUKAmu2Qfzf4Ay/JK6U/y8MnXaX+v+GWO3AO/OeoL0xosJjAuwXM5fQ/RniKk/EqXGbWKpx6IieOsWRppI7/E3Eu/VngKQYtji97RxyGr2qxwErwzwctjAItEP65uNSL+czl8FnG0/jy98RTz0lD1l5zZTlWV9Jm8J+AfT+/1jBIFfhDSuB/PXBQuOZf/5Z4fgk7GbKBZddF/9b/mkagCfyc/qWwJuI/h6+Yd/yTRtVBgcd9ZeAm0Jw4of8YaQ8LsyfDzc9nNTZ46XKS5dCnKuG2ZAB2BxcKrJhfU2kYLDekTBIpP53RaZUoiiyvheXwY91jHskYf37P8D/9/Euc/347cDotHHzAPrA17yz479X3ItnEl85/Rwr2SWPj/zZs4nrvPdi6A/7OMJNZe83VUv8/8jjsT196RXqYR55tvukmDcL/EBOCmzEhIE3wBBYq8PTLUCsepRkEJZf3P5XkXn3xuRRtLTaxMmnTtJ/2//fd/6i0f4P1oRhjZawS/d90y+3ho0++kPbTHIEnKFSi/+8H4xz4q6+XNtO+mgp8Q+2vhgLf+zx+daiCPStspGHXWs5/38OO9PKrrhf4K8NOdU/YgBv8z7/4Klx/022qCgDYkl1AQ8QYeM34H1/z0a4QvoJyRZdfVJTjX2zgL7xU8J+naSr8sy6E/+kXX0gb+I6GwRwC+IWXtzSqA4VCwJD+uVGX8qc5/njZEtOxlHL5c5oo8DhtBgrO8fLVBMlSeZJJfvL2iw382DHSftq48+uTuoL+TmW5KKclTHtoilQXfOZj7W0TK+G0bdMSCvwxWmT8zeEzqBL9zQj+b4cJjZ4Dj426O20X1sJxpuX8RzMoUZABr+Nii+LkqwMImeArwu8PG/iRWIEn/rnqWp/8fx034N57/8NS1h+wyrwdeKocPiNvgiL6ERRRGjId1KO79DnD2f738SVPTPGQc7VVVsZm6e1nWP7RBp434bJVVHJHY3Oy9kiQjZO8NI2usfFPElNMKjT62f53ZAWepnA0kdMVePpnFD4V+I8/+0L4X0xoRIGvTf+fQS7wAi6FH3TTNc3MjKUAmzKC8L8cOFBqQp6X+w+oazAef+oK+qcCPxJmK5Q/NpljK8r5j/n+e99D4a233pVyuM+A41m5+w6LHn+/5l8IrhIb+GNwDnwu//Sm6otS/y+JMfIPWMRYEptuxYROCqwMn/U3/FP+lTRe8s04/llmffRfV/87/N8v/sErxnaRJOVh5ElKzMOzd3qjq8YpNGTXlNbYsyRIX1iaWDXCA16G4MYPqpBUAgEXYTJLhI9FLiFuMdwnLM3GBImRLK0+U0RMwMIUyu8B/kOPPqmrREBl7zNOwBXuc8hpDxSSxMRO220d1l579SbD/xl9cBrOVE7sQjj5+GOwk791wv83Xw8K//gnVj5QkQVxZNtfscO/of7/AKfQ3IKzjnkUGTfDbgoTGqNc7Vn9NWoAsMKLKDlGEhc5kbLkHPiDD2hS+nvsiWdwayYmKQC4DWydN1yfpiu16Y/Xn/MEBMbIRGeN1VBv1hKVZpNYADzf43M1b2Jl+9dGGprQNNT+tIkV5XSk3f8h+0tpOf3/IBdtYUUS/3hSxl677QwYCpOrjA/BXEAqwlFU6qS39dFbAj9WmWn6gN6a474BponVxwks42ADf6m8UvE9Aeen/xz8/9LLaMNjT0JsoDJoV6omPApf65hiJEEN2nBSaA6bfmtALn9O79VPzDjayk2stDtnqqyxAgWBWVC//jxGcozEnEdFNcFHIrzw3xmwredtmjTZOO3E/9P8kgNKTwX5JzbwMKEhGNqjn4hjJAugmVfqoZVh8/L+nxH5y4uc3nlvAOBVhQMP2At7ZrqgNIOo5U/AKUV9ZNIYcHyh2sErHirD59c4nv3N9svJIxH/UiqzZO1/9MlnsUcCxyXiH3mKE2M6LVl/+Xb/Q4/Cbvl/ErHz9tuEtdcCT7GzUdbT2O/wZNx4uRmOo90c90kY/iVDPfCpXHH8eQh7iF5+TW3gE3zJF/R43H2iKUZRpQR/VvBv8EUFRtnGf2JCE23/edrMBtjbJG4G4d94y53hk08+BxriCjxO3yHOiJec/l5+5Q3hKYMvYGL7BYeSR7JZduG/PmeeIPeQ1EV//bFp/0ecQkP4QgssuAJ8tv/aG24OX371DROUmSdao2HDjsvPeIEaCaTDQjxGUr+q5fAfeOix8BpopZz/ydtdu3aWIzll4aIC/5W0n0BiXfWJ15IgfWmK/teSS4ARLQ6/BCW/TfxnCrz2uf0mfswCKAOJBjoSr8gz+MdPnAJFkDPwGCtUCr8sz5E1RORIPvkBg9KmlskKKpMXLRNxxQfAGI7E07BMI7ngl5m0gNPyf+/wH3nscWzi+liRBfyMha35tCmQOsA1P68TVVyFliP0EDbPXHPLp2Nm4KVIXCGn09n8rOH/G5zHezWO9tKlk5qw/HLLJrohjGk1UzFQfBH7vziyrD74H8KE5t938CbWGtnE2u2PuMhpBvqfJjS9zrmAIELHjlgZPLhHk9LfXQ/AtvzNdwX/vDWVxwoml9H/E3GjK+O22EyPx6SyUU7/NKG5/NobpP1rcRPrDts12P4J48bjJlasMCHXkp07ylGRUocMvq2YMnxlnCCzN47FM/iPypcStWFdBMeAdsaANj38t+2fNsdpFFB+M/6nCY2dQtO58+LhsAN1MgEEAbJKAtahMehPiuOSLuA/8sRT4XnYthPKwjgilfbn5Im65A/rwDpRQaTZkTlkSfLnNFwOMxUbkdvjDH/awBO/DckfmtCMxkVO8vUBN7FWgi+TXpwgRbvyU2DaIeQdK5DDZ/so/34Y8YPYwBN77du2Ql3iCjwDYvvZVtYvL6u+9teH/9tgZ/0uTGgI//CeB8oxi3zJ28/1oFPPPFdmCS1wRGzvM46vF74obTxGEk5WXVnRCvTP9t+JjZpvvfWOwCf9r20X0JXh/4knnwvPQNGn/Nli8z+GTf6oX+sI41FMrJ9/6WXB/47bbx3Wwbn6UiAj4eprv40/3MT60itvIi0Rjb082M8xaWK10ATfZdKAxZGc/hsD/waf+M/Hv7ewAn/XvfdLmKzAr7fOTPX/jViB/wRfLkj/3LTZThR4tkhYJtH/I7Btf/5F8BTaT57q0qVzg/TP9rNupP+66C/dygv45/Q6uYRmieq8/ZfG/V0oVk7wWqzDQtJ+vhM/pP+JOOKUX11JnzShkVNoGI/CjP+oxzyHE6p4ShXHCHWUcsylTuQiFjZy+Dn+c/qXHBH+z9X/Dr9h+Wt9Kf2T9T9pfUb5n/Q1u/R/UuBriflcQ1c6LvnN09sm1iKBkBTaCQka2UAQyIbLwIJQIJH/LD6VZ5jG4Et7Qll1QF1K0UyU4xhKSluWWQCOvt8ffH4W5kkt6ogRKh+V8J8HK/65or3JxtzYB3w2Av65assBbnrhb7/1lmG99dasF346hQalqgnNBjPU/6LA8yZWoKXjYotDAaECqe1HkeJvrPaztKeefjE89dzzKFk3f3ITF8GV0/89OGaTx5ixLrvhJJo1cWqGuDL6/x6n0Fzxj+slSk1otmmw/eMnjMNq6CWSRxR43sRaxn9cxVWTh5qwClfgqcDTAf7rb+IYUKxmst7rrLV62AkKj7kZ5T9R4HEOPPG/VOfOgcfzNSX+IdJR/jRs2oYpEy7AIlmvs+bqYccdtxGynBX5oyY0U8N8OHNfviQYUtKztvwRBR6mFlUtmoWzT4dyUkH+cQWeR/DJCvzxMKFpQP5xI+ZFl+kpNDSREht4qUNt+MLWFejPGJ590RD98z6DdwZ8IBD2xyrz8ssurTSd2h2wSX08NqlfjBBcBiSTCn4ViFAqwFcFvrB7lo5ihjL6Z/2feBon0Dz3ImOxyXiT0A2bkUmb+F/i7pGjAQcgbJrwFC82svY/9/Ir4dHHnpEK0Xxvi802kbzT036DoyY0rwv/tWvXLhzRs0f47IsvcS6+mrHwMrVjjzwMp/O0R9kCOcEv5z+LnxH4rDDT2/hHBZ6bWOnUhGZtwFP6t/Kt/fXBv4kr8FTgkfiE447EBLVtxfH3NZzOc++Djwj8tcFTuVyQSqBuMwOftEAbeMLveyZ5pO7x//qbbwufw0yUasqhB+2Hey54QIA5hT/yx5G4Z0CP4hUFHufA19V+boz+FpeSDfxmEE5S+jJ8+cXACB9lAgbbSBloLse/0YXFMcPMtL8h/svhOPyC/nO8aB/8fvBfRRN4MkzuiBALEls2KspwebgExB8q8IyjyijIZHLojjwBkgzG0lRA0W8uhsVCSbxMQxeDpBI8MouCCosyOutBLIuXNBImWeT99wyfAyuPoyMiBg8bGgZ+NUjwz0tGWrVsheAamGq8AWRVhfmxAWyZpZeSMOgRODpr2dC1c2d5JzZnFf/n4rjAsaN/EvgtsfmRF6po/6eSZdMgL4Eh/E6dYN5BkxaBXBn+h598igtDaANfEzb94wY4iWZjCFikZZGxzvX1/0RsausFExq2nzc2HimbFEFLsUqNTX9vvYVVsfsekPqtt85aYftttxS6lcrKj9L7Ddjo+tmXX0lczzgQJSyxfZH+v4Wt+hVX3yDt5wo8TWgaan81blnsLefAVwXeknkojsQrnMIfPgw2yzgmEqDkDHee5W7weUTbNTB1Iv8tg9tf99+bJ6PMHP/xCMV+F1wKKFVyXOlB2JchNNFE+Df5w8/svP2XsJaLm6kVB9r+mel/KvA8hYYX/BwPUyA6NqM++uMRmmPwSV9vYj0JqWvDPx13OEzB0X7zYAX+9BP/wiSp/yvJvx9GjEgKPI+R5IkrrAfzWfsbU/7efidW4N/TFfiddtg6rItV5nL++37w0HA5Lugi/CWX7IgNu6S52FbWLTkNuwgK1ghuaEc4beDpjP7K2/+/t96XlWYmWG/dNcOO2/2pFnzmvf7f4KnPwFPokJ4HUrnriCxKtx9DQaWNPN0KOD5y3z13FXzNCP9zBZ4mNOS/7liZ5Qot4d6GL4Tv4Y4L1rtd6zY4YvRw6e/62j8z9EdcCY7gIf5pQnNHPIVGFPg/YAV+JsbfG7Af55NPPxNMnYQvS21B3yZ/cvrjhWjXXH+ztJ/jCC9rYn3qo3/DP5JFV5v+L8CJRCNGjhT455IW2L46xv/7aPryBkxfAHjP3XbEOfMr1oI/cBDl182Ax1uqF8SpVzgHPrna8FlHOv6Ox9fL2+66F5OEr0T+dYL87ImvhsxVjn/LM6vtz+ETRn3tZx1Jf+X8Jy1g5pnof4df9P+vBf9pBZ70oqQrVddXIWV7F5KJ4aXRtgKvQhCUA1YShqV0gu2pKPLMAikgbEOq40ogHixdbfvwItTINMpckoApJBHiJUZepGYl1Yuxuur/+4b/wMNqo0ks9jn9JDmDfPgPulrHMPl0jMGX+Gts/A8fCaUClxext+aAGUXv02AuAMnG97z/x+GM8nPO19VhRp112t/CnHJCSuX+lxVo2cRZFVZdZUVsPtshkQfz0ynd1E1/p53VDwPCVDVROOm4Jmm/0R9vKLwOJxywzS1bzYOTGqCQldE/L1biJUFyuRI6ghvHaHtZif5/wObAiy6nol0liuh+GDQFqezA6MrbXz0BJjTn4shO4L8zTWh67Ifc4MyM/5IJDcpZGUf+8VQNg8+bQvuef5kQCZX4U0/4C24C5ebLKOqVJQ18zFcZ/7yJlbeREj7P1T7owH2k/o1Nf4Z/kz8/jR2P4+Rge4+6Unk+DSdN8FKrWZE/Z2EiSHO0OeeYU+jWEFCOf66ym/xj24mD5pB7fc44sSL8M3pTgVf6PDWe+CPIFyQpsgnD8C/HSF4RV+BhA8/bM8vbb/CZu5z+kFhLoybAlwbk7x2wgX9XVuBrQhf04SGYhEkBLBuOdXvi6WfFzpzw1lpjFdzzAFOvCvxv+P/nDbeEL7gBGlXgsZStW7WScpTCWAoipHo1OPN7EHjqFoTBBHBe7BM44f80DiF0hM/7Hnpjo/5UTLBIayfCrKgdTJ1YEts/CpMFnjcu2g+CTsZZ9TxucnrarxCqwgOPPI6LnLAYgkLlGEko8HQ8U73fxZfj6MJqgbc22r9LA+2Xpk0n/g0+AWt7ABQFmA0827/N1pvCBn49SZHTn7W/nP9z+DfeTAUem1jxj7c6t23bWgFE/Bt8nvnf93xMxlEojxM99YTjsCl7bsk3K/R3HSYFnHAT/kmyb2reivAJ+MVXcNrRI09J+3mOPy8OY74cPm9YfeXV/wn98aSzo3FsbX3tL6f/6uq4AIL2twWNcJM4YZTjHwHiyuHPKP7L4QuCCa8M/w6/lP5/z/gXBT5fZVeiIUpINXDk/LhMIEKArwyHkyj88iInhsb92pSTEqkP/MrAgNQUVPwPb5rHMtpm2VIyp44snREoE3l5axq/vcduU9nLICRpxnjJ4PAN/xfinOMf8Hldj+46GIiqCa9gxegBnJ5AVPGzP4/AQ4SiuRHx/9wLr+KWw2ek6OWXwdm6OD6yrv6/EBtqufpG+ttnz11wJfkKqFPl/p9YPTmchYuY6OaYg4rYX8IcuDBoRvqfV3X/yItC0OzDDz0wLI6j3oTMGrH9LJB0ORXH2fWFKcGE6knS/u5cJcLEg/CM/nnJE49CY/sXXhBHBx795zrbP2VKTTgd54/TzTPPnBg0/08Gz/raX43z1HvThAbld+EKElb4c/jsJN7meTEmBlTQeYvqXrjMhGnkBw35Nwb1jz7/DEmrwhqw4+cto0nfQLoc/qeffhoWhK18+/nasWgpRngT8MdgBf482IEzcOkunbEJEspfE9AfARD/Ofyb0IaPsbLIivPysN1wKlJd8ucTtIHHOLbH0Z8sqJL8uQRKM5VnwvnrUYfiEpkFBF/Gf+Xwif9+WIEfjX0AVHjOwQbZSvBP58ZvrMDP2xL3I3ATax3wDf/DcIzkpZdzshxPGforvwbUbj/hK0JQYf7HayX4GlaZ/yh/1YTm/dT/x6Ltiyw4fyyrCjbE1XKW9zjQHQKLzYX1wL/3gUewkvqW0B+/qtGshXWUn7L2T8Hkm+Y5vBWX5e+JIypXW5mr38yg8v+Z53HjbtykutAC8ytPlcG/DhcAfYkjBImX5ZbrGvbec7cwBzZdl7d/wICP5DjI9vNDVmbjD00EuZGT/bwP+EXllsIfBDOMK3FJFOvHWu2Ds8VXoKmRBCCE/2cS/3WNf2/hbH49B74GJjS4y4Er8BG+tKms/XXB5yk0XIFnHeUYSdzEWon+SX834cz4jz7DST8oew1sqt8V+3zqov9PcFTtQqCT9vjyW1/773ngUZjt6eZjmjZ12wh7F1B+pfF/LCbDfcFTJn+4F6V9nHCwX376aVzof9HfccTtVOCiBqfQ8CKnniXwx40bB7k0BscYLyz0V97/33zzffjHtTcI/A4L4XhcbIKlM/4jHIPPgutqf2PxX139n9M/68F6zUz/l7e/Ifnj7f/l+x/8QQ4hVcpP4RVK5U/DrhoK/DTJSfKBMwqyb0qRoKwkQqLTaESiCuAEyUciItNKSVIn82ohMQbQ8C6SiIxDtY8xDl9tvS8EJmpCt24bhC26bSxIsUs65sWGK1kNRoqmwP8VV10XBg8eLvB32gl2g2usrp2i3YNw1kydbpJ8Tfp/pZX0XOn6+v86nDzA1Tr2N6/5Xmed1bGaDhMdvLfB596lu3YRf130xxtDeToM4fPW0A2x2YuKGvM3awHlbrVVEdd49PfKG5g0PfREaj/P4udn+8mwc+aqGW97lEjQe4/99wjLLEWzprrhUwkcNQZ21MjVoUOHsM7aqwkeqHxXNa/CynZnibP2j4cJzdk0oUEGHm3XM5rQGP7Z/0NpA8/LgMB/K2MC1Z0r8Bn/8fjH8y++AmfWU0zUBJ7zviWO8VwIpzoQZ1Rkv/n62/Dia6/LpSm74XhB4lF6WQlM4I/BgGubWHmk6UEH7N0k9EfcWPsjANwCizbgNAr50oHoDmgD7xLgqhxX5YdjEvP1oEFYVX0TNtzVYTdMUnjbrcpEZECh3PTGNhF3d9/3YHgTJlKMn3eeecUWm5OW5rhQhqk648KuOeecwxhM8veTFXjdxNoHR1TSlfPfGb37i8Khx0hydTn2VIQ/eMiQ8MrrWFFEXm6iGl89PvCCM75z0/DquN2Vfra/dauWYXNs4JQKSwZGqMv7X+TodMrfpMCjGObj7cK7Y99GJ1ymNBzmPFTGaZdP+KIwHQmTBQKrB/53MLm54iqY3ET5vwbwvsSiHdAvwA7yrYDjAVu2nDfh/2Wc2MSTm6TewM/WW2wmN6nyVtHEU7Gveuy/J3iqay34I3DqDc01wDVSuQWgWG61VTdsdOwAGqkJQ4YMxYLHm5A1AwP3asgRvLFMNkfPgX9T+odfrFaBmWI+/jz5FM4ff+4F6vyYGLSQOyB4SpC5mcU/kVmgE3WP4x+PkbydF8LB8WjNDdZbFz6kzPhPMkoK7ZLq6urAr3p5/99z36NhCEzqyP/74GjG1q25Ag4HUM2rmsuCh8EfPWZcOP+Sy8M0yAVicZEOCxc8hbTDfyBPfStfKsZjQkcFf83VV5Hi6mr/99/D/IpfWUX+4KZufMFYHEeR0gSTR4Iuv/zS8vWU8Aj1jruxJ+PdDwT+nHPPGfbYZYewGHh7yNAfYGr1QBiDLwXCQsjQQVbg1YTG4A/ATdQ8GpUnoa2//pqYrC0W5p9//jACE+NPPvsSq/yv6qEPgMfLqjbBZVXWfml1xD/rk/d/ufyRChpQqTt+4Mr5n/lYbi5/JSEA5PLH2i+NQx6H//vFf5WeAi9kEn+MRPlqVAcSicF5rKWoxnXkwuVZpBCZUprQ2TQI6GZCoEyqCUmo8VA6hBEGwiNTsOyK8JFOZ71FCpK9w9c+4krjTbiYh+6wQ/bD4LqEoPS0c/qFqZOnir3mXntglTUKisbE/wSYxfSRDWwCXj7pt8GnR3Zppf7/BjbWV8FGkWTSAuYzvU79m3zuVAHIMtivdNq2YTjy8FIO9rhlz2KEZACgU8clwmEH7S9JY44kRw1+DU7l4U2Ro0aPRjoVlHn7++Iq98akvynYGHXNdTeFQbjSuwaVUFHL2qH2GfxVuPK9xy4N0v9H3AeAzcol9C9FERtV4UR8WaHdKh1xypVQXuREcJ2XBH5gQsOU0kbWBsgbMgyruLCBZ33EhIa0IcoKE0pqseu9/c77sK8Qw1Q5/yGJfComRPh33VkHasKXYhiPv1E/0QYeK/BwS3WFCQ1W4H9O/n/3ww/DHRisVYmXStcJf9cdt4/KBtKJ07ZJE9H+cZjU8GsCyzL6QysVXXjsggkATx3K23/uRbSBxwo8lJGzcQoN05e3X0xopmIFHpMCngNv+LeyB3yA21r/e1+d/S/dRcTDKRxMFCL+K/FfOfyG5C9vOH0bSg/pj5OVKZiIVmo/b8b888H7hUX5hWs64P8X9tu8QbUS/CMO7QElbjFFBdo2BQCvwwr3N1jppqsEn+Hkqe577FwnfK5a33Pvg2EKFHZBGfq1EnxR4Lt0SfBJ/w9jAsFz4Om6Y8/IKistBx/zxwcqdcXV/wyDhw6TsEUXwSVGh/cIzaGyCUWRISr0fyX4SChpU9nl/IfYd94ZgBV4XOSEYrfdOruJlQ1DmMm/fPx9HCf1PIfLkHL51xD8vr1x/GkG/70PPgq3gR5plpi3Hy/qInzWYZedwROYnLHlUqE62n8nJiK8oVqdpGYGaccRh/UIiy2+WKJ/nup0xVX/wqT7p5SGSc1xsUpuYkUxi3RYELeR9yyBP2DA++Cn+zVLHf3Psuafbz45wYaT8rz9jGMNXf9QLERkEC2C01z+NYb8YaGO/1L9FzIcEsxIMPaD9ED2U0dwSkEbeOPVFBg9DMdHWYlnEIVJmr1KJi1dfvEjfMSEyEHGYIdRSIvoYwcyYXSSXX60/CzKkgjc3xN8rmo//+Kr8qm+9+k4jxsKwwhcjnEB7T7hdoX5wJp21ngj43/A+x+FW++8R6QajyDjZ02CqAv/XLU4QzYE6srSUdGsRfuxcv+PGj023IeVvm+wYdeuyWa7OndcPBx6MBT4MlcOf+rkKeGhx5/BDaSfQJEfg9SEpiL43LNOaRL6ewyf9J/F+dN0Of3TnGL7rbfAZsA1tRaoSkP0z1NjnseXhHff+1AUKCmU5eKPGyrzo994UQkVeOLfjpHM4TMTV0wvjHsWVl95JZgl7CB1YYk5//2ET838TP/5FwNRWm3HiRrPkedtrjwRxZzhn5vCuOeB8Lvi/PCDeuyllRaGVvwzrqH2zwr/8yScO3FSyOe4Ql2VCNay6P82sL9eBZdZaRu4F6Fu+UPae/X1N/H3VvgJn+LZztgU2D1vG9aSIw61icS/HSPZHAbhfXDChsDPMrEWfbAfohrmIa1wK+QpsCsuh//+Rx/rXQhIW+6yoqRJpC27jKou/ssrLVhoAP+iwFPRhjvqzwfJivu3ON6UzuCT/mgbP9/87VP49MDnl4XXgUuu5NuXEhZwxGEHYtP5orXk/xPgqWciTzGdwVee2jKsu84aDJbwuuCPgly8FRfOyQSbaZUUJB8nQFwx/tMWm8qlW/n48zBumn3xZXw5hBMbeKzAC3wJ0R/eAMxjEWswySN83pBKuirnPyOa6cE/gVSi/wGQBbffea/EmQJvVWG9KrX/0Sc5TryCWG20wZeGWGY+ZfzF4hu8osAzYXQsm1/oSBdffjnQmmJFSirKhZUgFzaKcmF62k9a4OlRw7FgwzM2aCRA+KLAgxbMET5X92+AiRxPkDH+Y5NIhxwP+uMWZrbfjpHM4Q8dNjw8iP0MX8GcSvZMKCqseJkEr7fuWmHTjTfC5WrYN1MH/gmPdclQk8pgeCX8V+J/1q0p5R8rlbdfK62Nll+H/6vDPxT4KBK0HxPhlXiYJFIWZ1UkytzpJlZGIJ2VwyecvioZUxlnknLHWKmFffLLEmgcMtWCLzGlKR2+IVyfxCv+qIpRjDj+fzn6q8HZ98Px6Z6nvnBSxfOT2+OKd7pfE/1PxSo8lf4hQ4bjQ8iU0K59WzFDaofNt78W/qeCyD0iQwYPw8A9FfVHG9q1x9cLTDzK5JPLH6CkovxX+cuvbgNhKtEcpkgdYEZB0x0laCHtJpU/WHzCbbQjw1Aoei0Af+GFuHcBPKVVkwpMj/wjPQwDX1Kho1tggflgs70A9trMEXnTx5+Gxl+aHvFUpCFDhuGrBniqXdswH8wTeTrSzzH+8AKxQd99K/vpFsEpY20xGaebnv6n8jEU/T8KixQ8PW0uKOvzg44WgGkNb2Stj/4FiPyA6Fz/MIQnOTo9+FcZCyS6/pfwZnSluKlb/lQwoYlZRWjTzyJqO+0YDbdTaFIqRsIJ44Ko1XhAV1mlQkLo8CGdTggkVEAxik6Zhj6FH1PIO1embFZbhDNtdA5fEOH4B3U4/Tn/iSRy+UOxKPLS5a8OPD7++PjLIUK5QpjD9Q/VoVz/gnCgsNQfoxB5n630TzOhkW4zCS8v+lMaFN8sMD7LFXjaxHKTFaM5qTJlW5GBUGrtMtuC3wYTgovl0cu0LEcNfDSECeSCBJtclKS3NMjp8B3/Tn/OfxAJLn9c/vr4oyOv/vr46/qH61+/Ff2zWIE3ZdiehT5cy6dJioRJgeeMBcGy4k7FnE4eRdoiUKY3mlYzlY+2cdZj8+NYXixSpgdikkNfjHP4jn+QgtOfTn6F14Q1+KP85vxHDBT4sK+DElSq7bv8EUy5/NVhRRhJ2EepB78+/mD9zcdf1z8ib7j+9QvoX/KtRORS/FHxpIMcg6xX8Ixe0wUs5YRJk5Hc3vRJsZ8IOxWvYXKHkyyLxDxWrkBjriyAfk4GcCGUBuOJE20kSNLHeIdf9BUQ5fh3+nP+o3zJncsf0oTLXwxXPv7ouCrjK3gksopyCMZUC5B4H39d/3D9i6ygX29mI/0Th9BobaR2+WBX6id/s/6lTkMn2DGSXJEg4/M/EvOAm6oYNk1WK5ibERhG+M4CmQYKeQ0PzWVGhjGzCBB7Fm+IiE4yw29p8IywHL6i0PHv9Of8pzLJ5Q/wQHHt8hfC0ccfH39d/3D9C+LwV65/yik0lOtUg8Wll+SxmDqf47ECz8GBdu9qf45FchQI9Ql58MvPbEigb1pM7i+BhBcSFleKrFYprUQwXJ2Gx7IR7PAd/05/nAw7/7n8cflrI46PPz7+uv5h3JDrTuovNC2848X1r1+P/lkcI6l9GdXmki4tDaN2IFO3mAEPsYGHNi1KPN4LhRsvTB+nB+LDDxfYmSalg18cyqVFD34RiRX5mEEUc2yFhXoq8RJnEwKmoWOZLFu98mSYwzeMJHQ6/kkrOZ3AL87pz/nP5Q+lrMtfH3/SgOHjLzUP1z9c/5r99M8yBb5Q9pImXHhEx8lSiG5MXX78xClQnhETrWCiOhQfVJXiOQBUnJBM5oL00MUHvRw4dJ4Yw5k+hrEUfvaTFMhDuDi+N84WQVoO3/Hv9FfCT+QpcpDzn8sfoQPKU5e/Osb4+CPSAchIzsZaCWA46cXHX6EXSlHXP1z/mu30T6x4Zyys4z+JlS7ysL7U+tVY/k7ETazJbL1WOgoBzl91ZV1mcUjDfDB913zCHZpRSo3vslKPANrxSi0hdAu5Kym1HJaXlaElFb8O3/Hv9Of8x+HH5Q+x4PKXOPDxx8df0Rsy3UG0Ctc/REC4/gXdEwQxO+ufaQVeCLfQeTOfroqr2Cdlw6XE6pmAFXgNZCTT2NJ45AR5RD8HUVHImdeWTFm6Dq4sx1KyNL7zImWqoFI2I3EiDVfgeZ2TlpXnkATEOhLEcHlEP8t3+GIq4fh3+iMXka+c/1z+cHJDejBJiRd5d/nr44+Pv65/uP4FyUjhODvpnyUXOam81krGgZ1BdTnT4/UceKgAUIy5YUiUAovEm6gHDMfOMh7fRd1a0kjSmDBmE6Vbpj0Il7JidTQHMyaXgUCYw3f8O/05/0VBkgkHlz+QjS5/ffzx8df1D9e/flv6Z2FCk414qg5D8dbB0NamkuZsnpjFVuCTDo54+ulYBs0XuNbJOWwzKOcsTzfGsABzOXwOudw0orlKFFMDgmzU81XH10CLKi3J4Tv+nf6c/1z+uPz18cfHX9c/XP/67eifYkJD+3KxOBHVOqremRas3uw3i+PK94RqXOSkBVBjp2qNPybCX1z5oRG7hTJF7kSZR6Qq7VD56Y8zRS2FqrwMP/JLxV0NGFkKYeDh8CMeiBPDNHEDv5yp5/g3rBBDuXP6izwnk2bnP5c/EBsuf9OQQsnp44+PvxhIXf/AwOn6F5AgG2ioRfyy+meygWdVSpwoxXlIHqCzWOlIaEVyEyuTIkm+dq4bT2MEV9OZQQYGzZ+XTp2T0YTCUniqDFfeLUSffKfT/IJDLi2ac/iOf9CGfbtx+gNjCMuQq5z/XP6ADlz+QjH38UeXc2zgVDnh469pG65/uP7169A/MwWegzzV7zjm45n8yYNAcVkAvBMmTaLKLbNTRovOgB8hAsbAz/m7CQiJZyoJYE6WR4Q1k82V1Mm5cMzQZuKBj+8oSMvkO/MhLBbMN3rpGM4fh68DlePf6c/5j/JAZYrIBxUQFCrwUdK4/HH56+MPD6Xz8VfEgusfkIquf2G04EogH7Oh/ikKPIcvGdSSBwF0UnEd7lJU8mgS/somVg6EbKSQPT1IyAB55wP+KlEjYpgkljuZcJst4FseRJtLZWgpLM2KtyTp6fAd/0JSkUAT7fAdzunP+c/lDxiBUtR4BG/Q1lz++vjj46/rH6aocrgUl8bQJDEyjyWytK7//RL6ryjw5Z2Vd00U9Sby86jkH49z4EW5ZippBcWBqvKSyHgjFmZDiFKDzPfh1bxFnPoki+XHU1fRNM6gxGIBSsuwVTWGi7P8MaHmZgwDHL7gwfEvtFvQhvqEZIx+8HT6I7Uobpz/VMpFsaLyxOUfCMQogzIWzvjH5a/gQrmHiPHxx8df1z9c/4AcmEn9q1DgKU/MFSOShpS/WzoRQFWhOp0Drye+UECJKySVCK6YXOwZamDA3qwGnywlEKlTWnjYGKHrGIjXOC6qzEuFY0UfEenoPBSiF/Yo+KLMrHwWiWwO3/Hv9Of85/KHwh3O5W8cW3z88fHX9Q/XvyAT+dWe+ulsrH+WKvCsK+rMaouLswJ7rfVEeibmMZIcCLkeJWsvsd2p4ZKOWED5XJ0RIMiBd65o0kk+wMvho3J4jzNUTSZlSLl4Z/VYJn8cvuPf6c/5z+UPuMDlrwy6Pv5gZJQxl0Okj7+uf7j+9VvTP1WBT4owlWF1pUHZW+a1tHqRk+rSjKbTMUSGU8rR9K6SNb6nCKROx/JI9pRH3sRuAWlYqJnRKwBNHH/zIPU7fJ3aOP6NHpz+lEMFH85/kTGADZc/xhoiTY005MXlL3ADGiHT+PijeBABEgfe+MiD1O/jr4+/XFp1/cP4wYSsvCfE4G0mx5/SFfjEj1ZyClC4hFrukLQap9Bw7U+cZCXjFsYsVpo9mS5ffee7NCg940oiI6LTMURTWVqJQkFV2Jzm8B3/Sg/4pVmV01/iCeM7exJPzn8gEyIkOpMp+nT5o6qXYUdxZcf6Gq4k1uWvjz8+/iZZC4+PPz7+/mz6BxT4aTg5ikqwCut8kDfxbWH2ZLj5+ayeNAUB9JU6HQRsyYJ0jdkYYSFZkVrD5K4hhrPzY1laJapilhfPCKKAH+vu8CNmiofjn+sfTn/GNc5/Ln9c/vr44+Ov6x+uf5me9OvWP7MV+KgSy8PUYzYyD8/erf14VuMUGl0Bt3x8wpmkkKe+MEas2uHhKmAzzhygfPOfZJBH9DNLDOcJcLoCxGt6EKHZmCCCYeKYT54pIibQeKZw+IJyxz9IwulPGcn5L8oOeUQ/RYbLHxGkLn99/PHxlwLB9Q/Xv0AHOmxygPhF9c9MgZe6pJ84hKV3jmNUuEnCdFzwtlX78djE2oyf0ZhAIvHDJXU5YJiqga56aCR+sRLPjayEYc0XL99YBOIyoxiJ4ufuaShTcrEuSKPwtXyH7/h3+nP+E2FBweLyx+Wvjz8y1vr46/pHHBlEPLr+9dvRP5MCX0vNzjV07faS3zy9bWItElBk8Ii6zHyBkVS8ZWClos4SONIqaaXyjNIgfKugocusH3VhMFObY3pdPS0N13iH7/h3+nP+c/lj8lXEqstfH398/OUiuusfrn/9JvTPKprARx3adONMrYZyzOi41F6o2ympeKjAMy4d+MjRgkyCAM4DOIiogk6/uRgWC9W1dUlcwEc5qJ8o6lzcV/vNQplntbR8PFGsw1c8SH86/p3+nP9c/rj8xcjg44+Pv+VqjusfQhOuf1E84L/SA7XTiBIJn931z7QCz4pnVdfXoikV4oogW4FXJHDVSy+I4Sp7mIZQKhIskWYv8HFSIJ+48QDudJWdKUQbZxpDJnMJdkvi8BLL02j8itN8Dt/x7/Qnwtn5z+WPy18ff3z8jfqC6x+uf/229E9R4PNVdirHpg7LU3RoVaTLYiQlCYIXOekchsozQkQrj8o5FXBRzJGbS+b8D29aR2e0rbIzUpbuCZkRYDjk5a2p+EEerYF8EGAQkjRjvOQjczp84s3xD/IBfZCahDac/iJCgBH+J+9E7PDh/Be/8glOIENIOIIYlz8uf3388fGXAtP1D9e/QAccGTg+kCTw/KX1T12BZ704qmPQSl686UBGT/2uGgo8N53SydhnGqTZtMQGWymakuvExAMiqWCJkk74OmhKSVInLVRub0Ws1M/yiSZCxZ1qv8MHGhz/RILTH5FgDKZEoexB7EROsWjnP5c/pBX8gW9c/vr4w0mbj7+Qi65/yHhBpcL1L2qZs5/+WaWnwGs/6W9kXnmhn46DfMlDQvnD4OqJk/BbpGG4NFfbLHwwDQNEMxkgGKmFUVDEQ5kQxvwIj0o5y9DS+SzK5qZWnfUw3KpVu3IOH7hx/AuBkKSc/pz/XP7oAo3LXx9/OKb6+Ov6h+tfugD8a9U/wcNy1pbq51EPVtW4+K0jOCWwi5yYrtxRh1TDFo0R/ZwKOT2iYGrp8ssghNEvAgY+KuyyQM9QxmlkTJEpqQjJoiSePwTh8BUPgg8gSb56OP4VKUJQqtgISpz+Ih9RsDn/ufxx+evjD7/W+fjr+ofrX7Ob/gkFPlaJ2i+13UqOSaJmzVXd8mQTJ8OERrRk0Q6jYqQFabHMASMXlEElqdwxVmphJjdZAo2rBF9iSlOycAWoT5aLP51jOXzHv9Of818mMqLX5Y/LXx9/wAw+/ia9waSE6x+UDa5/1dZ/Zw/9s4IJTSRd6TT6WdHazvRkxkyZOi1MnjK1SMRIOFGcoTGIXSV+LU+NKNooFwE6IYjIwMMUDCUaLcV+tViWWpxwHXMySeEcvuDC8a8E5fSnPOP8p9LM5U8UvPEhcoLC2OWvjz8UEnA+/io/qMSIckMw4/qH61+zkf5pJjTKtfilRpw58nMRFN8s0F6h7IsZTcwnlzRFe3dO6gsTFpaETNTaZbYPvynzzGvl0g+oLEcNfCQAP1TF8DHPJhcl6S0NciIfz4xntMN3/Dv9GQ87/7n8gVR0+evjj4+/4APwgusfKg+oPpXoU65//Rr0z2IF3jrPnoU+XMunSUoTTpo8NUytgaqEYFnxJGPQyaM0bU4ptjoq6Uq1bZk4aDxzxPJikaKei0kOfTHO9JOo/Dt8x7+ShtOfqfDCE4IUMkvkVb4TRc5/+WzX5U+iD5e/aYwRnJCbwDA+/kD/9fE30YbrHzKOuP6nkx+ICh1Xs/FWwrL3Wdd/ZTlbiy0tnCM6nVElntErT8QwBYPosJKPVXia0WiofmiyMiQJfpTZeZszdX39XpmVm1IYIOZjPMrBhSQCTFaP0GwGSWyM52xaE8TQTLAgRJ3Dp7Bx/Dv9Of9BIsgig8mVXEIgTOQYw6J8cfnj8lfIAj84Uc3HHx9/Xf+gSIjy0fUvHSt+bv0Xh9CoNBLllwNWZWfqcWmshepzCuxdpkzBpU54pZ7NA26quEqBgGlpAysjoEbyHV7ayFRBINbgogTJyDBmjojQZ/GGiOgkM/xZ2gjL4SsKHf9Of85/Ln9c/vr44+Mv5ADVFOoLrn+4/vUb0T/lFBpTw0UzTi/JI8H1/VhKTsKm4jgamtPIKm9UruUzG7jHVG2Wlfstv8DACxV7/SzFVFlaiWBqdVoGhieWjWDavav9OxZJpIyYAuGSBtkst8ZoOQzjuzi8OHzHv9NfwRWJV5z/KGRMUph0c/nj8tfHH7CFj7+uf7j+xcXon0//LI6RLPRXDEzF4M1gfYthrB0H8nrcVJxKM4mn0sjIX5QlPvxwgZ1REp2Xg3Jp0SPwq7AiHzOIYIDBjKylCXzE2YSAaehYJstWrzwVgIWk4hy+419Iw+lPeUL4R3jI+c/lj8tfH38wZvr4mxQG1z+oebn+NTvqn2UKfKHsJk248Mg4n6WQmYauVqvyLFpR1AY4EE6eMg0r8syh1mKMVyU7epiW0dFRcOo6PQIiIAsTZYsKPlMgjnB59rzCB2qp2EcrHCtPn8zp8IEp/Q80CY6JRLr4oNdwTb+ESxbtE2JRLrVx/Dv9gWac/1z+uPxVPqA89fEHQsHH35LxVMZRjruufwAHrn8ICsAmjap/QdHOVLiktwntMYLkV9lpbP1pUB6Kp6CfPA0r8gSl/0U/hOm7rIYLEBYExweVA0nHPkcA7Xillngp9E5JqeUwecwDby2n80eiTUSt5GFuh+/4F7rJaMfpz/nP5Q+EIxhBvpTi6fLXxx8ff8ETrn+4/kUFAY7LmiAI+ZV5a6ZDSILspyn1z7QCr9XJoCavrcBmKZI3eVJq9dQVzliLs2dDORx+Me0glcAl1CWPhqffusLzzKVpSt9SQfA4/h3/FEEZhSRv8uQEIzRD4VbZWR57aqrStzyn05/Tn9Of818mIZI3eXKBAX9d4UxmcfbUrKVvGmYxzn/Of7Mr/0GBp41LNtgmSk6enJpL/KUpbKCNSUoi8RIN3zmTlxWuVFJJwoK/EqOlhLU8pTkdvgoax79goIQ48OL0J2zu/Ofyx+VvPpSUCAoffxI6kidHVom/NIWPvz7+UtGProQ48OLjb9OMv4UJTQnGoT4bORY+65v0LM1SZ7Al02f+m7LAY6k0rIBa+PLU4i/NkqLLg+1dn/lvygKPpdKwAmrhy1OLvzRLii4Ptnd95r8pCzyWSsMKqIUvTy3+0iwpujzY3vWZ/6Ys8FgqDSugFr48tfhLs6To8mB712f+m7LAY6k0rIBa+PLU4i/NkqLLg+1dn/lvygKPpdKwAmrhy1OLvzRLii4Ptnd95r8pCzyWSsMKqIUvTy3+0iwpujzY3vWZ/6Ys8FgqDSugFr48tfhLs6To8mB712f+m7LAY6k0rIBa+PLU4i/NkqLLg+1dn/lvygKPpdKwAmrhy1OLvzRLii4Ptnd95r8pCzyWSsMKqIUvTy3+0iwpujzY3vWZ/6Ys8FgqDSugFr48tfhLs6To8mB712f+m7LAY6k0rIBa+PLU4i/NkqLLg+1dn/lvygKPpdKwAmrhy1OLvzRLii4Ptnd95r8pCzyWSsMKqIUvTy3+0iwpujzY3vWZ/6Ys8FgqDSugFr48tfhLs6To8mB712f+m7LAY6k0rIBa+PLU4i/NkqLLg+1dn/lvygKPpdKwAmrhy1OLvzRLii4Ptnd95r8pCzyWSsMKqIUvTy3+0iwpujzY3vWZ/6Ys8FgqDSugFr48tfhLs6To8mB712f+m7LAY6k0rIBa+PLU4i/NkqLLg+1dn/lvygKPpdKwAmrhy1OLvzRLii4Ptnd95r8pCzyWSsMKqIUvTy1+ZBETGluVK0malZeDFH8WJ4DlHXOvknCCQECcedUCngU4fF0VdPzbpFFJx6bzSlbZbwmdkcaQnsuKJeEkMMYhPC0LMKy2c/oz9Dn+0xpSRkvqzX6zOKUx0JTTn/NfCV1QziDA5Y/LXx9/ag+6WYiPvzZ8zPj4m2zgM3yqt5IwSppQVDVrpWHWTA1N8ckThXz2XgtwDKiVJA9w+NLVOUoSHh3/iQ0SfpLH6U9QkeEj0U2Zp1aSPMD5z/kPU52cJBL5uPxx+ROnwYk+ksflr6Aiw0fimzJPrSR5gMtfl78qfzMFXgmklEzi5DkPFDrLAsSr7/ylKyacRTrz2VNT5r8ak8cnf/JY+ixAvPrOXzqHr3iI0lJeDGP2tBTFs8Ch4S+lTR5LnQWIV9/5S2f5HX6BJ/PZUzGV/2pMHp/8yWPpswDx6jt/6Rz/igenv4JOzGdPw1Dx1Jg8PvmTx1JnAeLVd/7SOf0pHpz+Cjoxnz0NQ8VTY/L45E8eS50FiFff+Uvn9Kd4cPor6MR89jQMFU+NyeOTP3ksdRYgXn3nL93PSX9qQmNAs3pJTezbBl5SVPJIiuKnPLziuwXGZ+kjAxKLdfigBiUHw1zREQXqxZcSGO7wLCgp4tYSlSLeQmuV7fh3/Dv9lbJXYpbIZ/YoD6/4boHxWfpw+WfoSThFgNOf0x8wkEgjeYxI4rM8vOK7BcZn6SMDYmUigdOfIMMwV3SE478EAwlBRjt4/gz6V7ECnylrecWsXvbM48xfxBU+i7OnxNSKzgIcfhIWhjM+DUP2zOPMX8QVPouzp8TUis4CHP+O/zhYGc3waRRizzzO/EVc4bM4e0pMregswOnP6c/pz9glPY1D7JkiMk8RV/iyaPFKTK3oLMD5z/nP+a+cbWb78a9Q4POqZ3xdcH+ewPzlCYsB31JUfCJbDS9FKJmiZCnLiy1/T0lrR9QOSYkLDxI5fMe/01++RFCwR5JaFlQnU9WOqB1ihWRP5z+XPy7/ffzz8T8Tipm3XIiWv6ektSNqh6TEhQeJXP/5beg/pQq8dCwmotbVdczKLTof6JVwysjHXuXJHyr4anxPIBadl1eyad/hV1wVyPFlnaW4LMOovcqTP45/pz/nP9t8aeyR85PLH5f/Pv5FjvDx18ffCqvyubx0/UOxoWNJ2Yhir/LkT+PrX/8PJAokMRJABs4AAAAASUVORK5CYII=;" vertex="1" parent="1">
          <mxGeometry x="540" y="128" width="296.56" height="112" as="geometry" />
        </mxCell>
        <mxCell id="p4DQenMx6oALiS08usfD-6" value="&lt;font style=&quot;font-size: 13px;&quot;&gt;这个是Beacon Chain Block的body中的一部分&lt;br&gt;（block.body.eth1_data的部分，需要研究这个数据结构）&lt;/font&gt;" style="text;html=1;strokeColor=none;fillColor=none;align=center;verticalAlign=middle;whiteSpace=wrap;rounded=0;fontSize=15;" vertex="1" parent="1">
          <mxGeometry x="500" y="250" width="370" height="30" as="geometry" />
        </mxCell>
        <mxCell id="p4DQenMx6oALiS08usfD-7" value="&lt;font style=&quot;font-size: 15px;&quot;&gt;eth1_data被添加进BeaconState之后，新的validator申请才会被激活（32ETH从主链转移到beacon chain锁定，新的validator被添加进state.validators）&lt;br&gt;&lt;/font&gt;" style="rounded=1;whiteSpace=wrap;html=1;" vertex="1" parent="1">
          <mxGeometry x="160" y="400" width="320" height="80" as="geometry" />
        </mxCell>
      </root>
    </mxGraphModel>
  </diagram>
</mxfile>
